<svg width="24" height="25" viewBox="0 0 24 25" fill="none" xmlns="http://www.w3.org/2000/svg">
<path fill-rule="evenodd" clip-rule="evenodd" d="M20.1522 8.09123C20.8642 8.66388 21.2822 9.52539 21.2913 10.4391L21.2826 18.413C21.2826 20.5789 19.5268 22.3347 17.3609 22.3347H15.6217C14.5734 22.3347 13.7222 21.4874 13.7174 20.4391V16.8391C13.7174 16.5605 13.4916 16.3347 13.213 16.3347H10.6043C10.4691 16.3347 10.3394 16.389 10.2446 16.4855C10.1498 16.582 10.0977 16.7125 10.1 16.8478V18.2217C10.1 18.6539 9.74961 19.0043 9.31739 19.0043C8.88517 19.0043 8.53478 18.6539 8.53478 18.2217V16.8478C8.53478 16.2966 8.75374 15.7679 9.14349 15.3782C9.53324 14.9884 10.0619 14.7695 10.613 14.7695H13.2217C14.3661 14.7743 15.2913 15.7033 15.2913 16.8478V20.4391C15.2913 20.6215 15.4392 20.7695 15.6217 20.7695H17.4043C18.701 20.7695 19.7522 19.7183 19.7522 18.4217V10.4564C19.7458 10.0152 19.5415 9.60015 19.1957 9.32601L13.187 4.53471C12.4293 3.91091 11.336 3.91091 10.5783 4.53471L8.64783 5.97819C8.29004 6.23512 7.79172 6.15336 7.53478 5.79558C7.27785 5.43779 7.35961 4.93947 7.71739 4.68253L9.62174 3.29992C10.9421 2.23857 12.8231 2.23857 14.1435 3.29992L20.1522 8.09123ZM6.42174 20.7608H10.4217V20.7782C10.854 20.7782 11.2043 21.1286 11.2043 21.5608C11.2043 21.993 10.854 22.3434 10.4217 22.3434H6.42174C4.25781 22.3386 2.50478 20.5856 2.5 18.4217V10.4564C2.51384 9.53602 2.94588 8.67194 3.67391 8.10862L4.39565 7.56949C4.73552 7.40927 5.14129 7.5132 5.36229 7.81707C5.58329 8.12095 5.55714 8.539 5.3 8.81297L4.59565 9.33471C4.26191 9.61198 4.06776 10.0226 4.06522 10.4564V18.413C4.07474 19.7091 5.12562 20.7561 6.42174 20.7608Z" fill="#9499A1" fill-opacity="0.8"/>
</svg>
