<svg width="25" height="25" viewBox="0 0 25 25" fill="none" xmlns="http://www.w3.org/2000/svg">
<path fill-rule="evenodd" clip-rule="evenodd" d="M12.7499 2.5H12.7833C17.4697 2.51842 21.2683 6.34197 21.2499 11.0223V11.1153C21.1866 14.46 19.1758 17.2356 17.5004 18.9746C17.0236 19.4718 16.5161 19.9489 15.9927 20.3944C15.6792 20.6619 15.2086 20.6251 14.9408 20.312C14.673 19.998 14.7107 19.528 15.0242 19.2605C15.5089 18.8475 15.9804 18.4037 16.4239 17.9416C17.9149 16.3946 19.7027 13.9487 19.7571 11.0881C19.772 7.15842 16.6416 4.00574 12.7772 3.98996H12.7499C8.89862 3.98996 5.75768 7.11194 5.74276 10.9609C5.80861 12.8622 6.45138 14.6696 7.60256 16.1859C8.94604 17.9749 10.9841 19.8691 12.9212 21.1302C13.2671 21.3547 13.3646 21.816 13.1389 22.1615C12.9967 22.3807 12.757 22.5 12.5128 22.5C12.3732 22.5 12.2327 22.4614 12.1063 22.379C10.0322 21.0293 7.8493 19 6.41011 17.0839C5.07453 15.3238 4.32727 13.2235 4.25 11.0127C4.26844 6.28585 8.07848 2.5 12.7499 2.5ZM11.0052 11.1141C11.0052 12.0727 11.7867 12.854 12.7473 12.854C13.7079 12.854 14.4894 12.0727 14.4894 11.1141C14.4894 10.1547 13.7079 9.37337 12.7473 9.37337C12.3355 9.37337 12.0009 9.04012 12.0009 8.62883C12.0009 8.21665 12.3355 7.88341 12.7473 7.88341C14.5307 7.88341 15.9822 9.33215 15.9822 11.1141C15.9822 12.8952 14.5307 14.344 12.7473 14.344C10.9639 14.344 9.51241 12.8952 9.51241 11.1141C9.51241 10.702 9.84696 10.3687 10.2588 10.3687C10.6706 10.3687 11.0052 10.702 11.0052 11.1141Z" fill="#1463FF"/>
</svg>
