<svg width="24" height="25" viewBox="0 0 24 25" fill="none" xmlns="http://www.w3.org/2000/svg">
<path d="M21.7555 21.1065L18.3182 17.7458V17.7458L18.2376 17.6233C18.0878 17.4742 17.883 17.3902 17.6692 17.3902C17.4554 17.3902 17.2505 17.4742 17.1007 17.6233V17.6233C14.1795 20.3033 9.67815 20.449 6.58201 17.9637C3.48586 15.4784 2.75567 11.1334 4.87568 7.81017C6.9957 4.48697 11.3081 3.21685 14.9528 4.84214C18.5976 6.46743 20.4438 10.4838 19.267 14.2276C19.1823 14.4981 19.2515 14.7922 19.4487 14.9992C19.6459 15.2062 19.9411 15.2946 20.223 15.2311C20.505 15.1676 20.7309 14.9619 20.8156 14.6914V14.6914C22.2224 10.2486 20.0977 5.46755 15.8161 3.44106C11.5345 1.41456 6.38084 2.75082 3.68905 6.58542C0.99727 10.42 1.57518 15.6021 5.04893 18.7795C8.52268 21.9569 13.8498 22.1759 17.5841 19.2949L20.6277 22.2705C20.942 22.5765 21.4502 22.5765 21.7645 22.2705C22.0785 21.9602 22.0785 21.4606 21.7645 21.1503V21.1503L21.7555 21.1065Z" fill="#1463FF"/>
</svg>
