<svg width="25" height="25" viewBox="0 0 25 25" fill="none" xmlns="http://www.w3.org/2000/svg">
<path fill-rule="evenodd" clip-rule="evenodd" d="M9.44182 7.37447C8.61856 7.83075 7.60873 7.8242 6.79176 7.35727L6.75578 7.32213C6.38818 7.09899 6.27542 6.62709 6.50393 6.26812C6.73244 5.90914 7.21569 5.79903 7.58329 6.02218C7.74738 6.11568 7.93305 6.16705 8.12297 6.1715C8.41407 6.18339 8.69806 6.08174 8.91235 5.88897C9.12663 5.69619 9.25361 5.42811 9.26529 5.14383C9.25976 3.71545 10.4207 2.54284 11.8827 2.5H13.115C14.6053 2.5 15.8134 3.67975 15.8134 5.13505C15.811 5.32028 15.8608 5.5026 15.9573 5.66206C16.1006 5.90892 16.339 6.0896 16.6194 6.16384C16.8999 6.23808 17.1991 6.19972 17.4504 6.05731C18.7167 5.38418 20.3011 5.80193 21.0483 7.00593C21.2548 7.37335 21.1278 7.83444 20.7605 8.05116C20.3872 8.25928 19.912 8.1384 19.6901 7.77888C19.3853 7.27187 18.719 7.09942 18.197 7.3924C17.371 7.83407 16.369 7.82329 15.5532 7.36395C14.7373 6.90461 14.2258 6.06317 14.2034 5.14383C14.2131 4.85592 14.1028 4.57648 13.8976 4.3695C13.6924 4.16252 13.41 4.04574 13.115 4.04589H11.8827C11.587 4.04581 11.3037 4.16232 11.0971 4.36901C10.8905 4.57571 10.7781 4.85509 10.7854 5.14383C10.7771 6.06818 10.2651 6.91819 9.44182 7.37447ZM10.7854 19.8913C10.7903 20.4797 11.2802 20.9541 11.8827 20.9541L11.8737 20.9717C12.1533 20.9717 12.4117 21.1173 12.5514 21.3538C12.6912 21.5902 12.6912 21.8815 12.5514 22.1179C12.4117 22.3544 12.1533 22.5 11.8737 22.5C10.3835 22.5 9.17535 21.3202 9.17535 19.865C9.17777 19.6797 9.12798 19.4974 9.03143 19.3379C8.72964 18.8278 8.06266 18.6512 7.53832 18.9427C6.27209 19.6158 4.68767 19.1981 3.94046 17.9941L3.32882 16.9488C2.6395 15.7123 3.0673 14.1651 4.30024 13.4354C4.46366 13.3416 4.59987 13.2085 4.69601 13.049C4.8764 12.8034 4.94123 12.4945 4.87428 12.1995C4.80733 11.9045 4.61494 11.6512 4.34522 11.5031C3.11227 10.7734 2.68448 9.22618 3.37379 7.98968C3.48913 7.82036 3.66883 7.70292 3.8731 7.66335C4.07736 7.62379 4.28936 7.66536 4.46215 7.77888C4.80347 8.00552 4.90243 8.45394 4.68701 8.79776C4.38931 9.30716 4.57045 9.95576 5.09177 10.247C5.48345 10.4814 5.80585 10.8114 6.02722 11.2044C6.71653 12.4409 6.28874 13.9882 5.05579 14.7178C4.53447 15.0091 4.35333 15.6577 4.65103 16.1671L5.27167 17.2123C5.41288 17.4614 5.65203 17.6435 5.93385 17.7164C6.21567 17.7894 6.51576 17.7469 6.76478 17.5988C7.16629 17.3714 7.62284 17.2531 8.08699 17.2563C9.57728 17.2563 10.7854 18.436 10.7854 19.8913ZM20.6885 13.4267C20.4372 13.2853 20.2541 13.0518 20.1798 12.7781C20.1055 12.5043 20.1462 12.213 20.2927 11.9686C20.3889 11.809 20.5251 11.676 20.6885 11.5821C21.0576 11.3656 21.1782 10.8985 20.9584 10.5369C20.7398 10.18 20.2734 10.0526 19.897 10.247C18.664 10.9767 18.2362 12.5239 18.9256 13.7604C19.1445 14.1924 19.4845 14.5549 19.906 14.8057C20.1566 14.9453 20.3396 15.1772 20.414 15.4496C20.4883 15.7219 20.4479 16.0119 20.3017 16.2549L19.6901 17.3002C19.5428 17.5448 19.3043 17.7242 19.0245 17.8008C18.7442 17.8738 18.4456 17.8326 18.197 17.6866C17.3696 17.2443 16.3658 17.256 15.5494 17.7174C14.733 18.1789 14.2227 19.0231 14.2034 19.944C14.2464 20.3368 14.5859 20.6347 14.9904 20.6347C15.3949 20.6347 15.7344 20.3368 15.7774 19.944C15.77 19.5603 15.9768 19.2029 16.3172 19.0111C16.6577 18.8193 17.078 18.8234 17.4145 19.0217C18.6807 19.6949 20.2651 19.2771 21.0123 18.0731L21.624 17.0279C22.3792 15.7805 21.9613 14.1717 20.6885 13.4267ZM12.4944 9.20179C11.1257 9.20179 9.89191 10.0074 9.36897 11.2426C8.84604 12.4777 9.13704 13.8989 10.1061 14.8428C11.0753 15.7866 12.5314 16.067 13.7949 15.553C15.0583 15.0391 15.88 13.8322 15.8764 12.4956C15.8764 11.6205 15.5198 10.7814 14.8853 10.1634C14.2508 9.54545 13.3905 9.19946 12.4944 9.20179ZM12.4944 14.2611C11.5009 14.2611 10.6954 13.4746 10.6954 12.5044C10.6954 11.5342 11.5009 10.7477 12.4944 10.7477C13.4879 10.7477 14.2933 11.5342 14.2933 12.5044C14.2933 13.4746 13.4879 14.2611 12.4944 14.2611Z" fill="#9499A1" fill-opacity="0.8"/>
</svg>
