<svg width="26" height="26" viewBox="0 0 26 26" fill="none" xmlns="http://www.w3.org/2000/svg">
<g clip-path="url(#clip0_474_162)">
<path d="M7.66853 25.5141C7.15592 25.1731 6.7016 24.7517 6.32303 24.2661C5.90661 23.7649 5.52079 23.2391 5.16766 22.6915C4.33897 21.4775 3.6891 20.1506 3.23797 18.7517C2.69603 17.1267 2.43359 15.5691 2.43359 14.0457C2.43359 12.3443 2.80166 10.8591 3.52153 9.61106C4.05516 8.63561 4.83974 7.82045 5.79409 7.24994C6.71897 6.67548 7.78166 6.3611 8.87022 6.33994C9.25128 6.33994 9.66159 6.39519 10.0971 6.50081C10.4099 6.58938 10.791 6.72913 11.2565 6.903C11.8488 7.13131 12.1747 7.27106 12.2852 7.30519C12.6321 7.43194 12.9238 7.48719 13.1529 7.48719C13.3268 7.48719 13.5722 7.43194 13.8508 7.34744C14.0077 7.29219 14.3034 7.19469 14.7267 7.0135C15.146 6.86075 15.4758 6.72994 15.7383 6.63244C16.1405 6.51381 16.5297 6.40413 16.8766 6.34888C17.2879 6.28403 17.7053 6.26686 18.1205 6.29769C18.8401 6.34472 19.5488 6.4972 20.2241 6.75025C21.3283 7.19469 22.2212 7.88856 22.8858 8.87494C22.6049 9.04808 22.3413 9.24779 22.0985 9.47131C21.5701 9.93978 21.12 10.4897 20.7652 11.1004C20.3015 11.9349 20.0611 12.8749 20.0673 13.8296C20.0843 15.002 20.385 16.0347 20.9773 16.9276C21.4127 17.5894 21.9787 18.1554 22.6405 18.5908C22.9793 18.8191 23.271 18.9759 23.5505 19.0816C23.4197 19.4878 23.2799 19.8811 23.115 20.2711C22.7409 21.1456 22.2875 21.9841 21.7605 22.776C21.2909 23.4577 20.9228 23.9655 20.6433 24.3035C20.2078 24.8194 19.7886 25.2135 19.3653 25.4881C18.8997 25.7969 18.3497 25.9618 17.7907 25.9618C17.4121 25.9763 17.0336 25.9305 16.6694 25.8261C16.3566 25.7205 16.047 25.6059 15.7423 25.4751C15.4256 25.3296 15.099 25.2066 14.7649 25.1071C13.9392 24.895 13.0734 24.8936 12.247 25.103C11.9082 25.2005 11.5823 25.3142 11.2606 25.454C10.808 25.6441 10.5074 25.7717 10.3335 25.8261C9.98659 25.9277 9.62666 25.9911 9.26266 26.0122C8.69959 26.0122 8.17472 25.8513 7.65472 25.5255L7.66853 25.5141ZM15.0948 5.51444C14.3587 5.8825 13.6558 6.03931 12.9579 5.98812C12.8482 5.28531 12.9579 4.56625 13.2496 3.77894C13.4979 3.11193 13.8648 2.49534 14.3327 1.95894C14.8267 1.39427 15.4261 0.931431 16.0974 0.596375C16.8124 0.228312 17.4941 0.02925 18.1457 0C18.2302 0.736125 18.1457 1.46006 17.8752 2.2425C17.6248 2.93417 17.2585 3.57819 16.7921 4.147C16.316 4.71244 15.7318 5.17708 15.0737 5.51362L15.0948 5.51444Z" fill="black"/>
</g>
<defs>
<clipPath id="clip0_474_162">
<rect width="26" height="26" fill="white"/>
</clipPath>
</defs>
</svg>
