<svg width="26" height="26" viewBox="0 0 26 26" fill="none" xmlns="http://www.w3.org/2000/svg">
<path d="M6.41996 15.467L5.59721 18.5385L2.59008 18.6021C1.69139 16.9352 1.18164 15.0281 1.18164 13.0015C1.18164 11.0417 1.65825 9.19367 2.50306 7.56641H2.50371L5.1809 8.05723L6.35366 10.7184C6.10821 11.434 5.97442 12.2021 5.97442 13.0015C5.97451 13.869 6.13166 14.7002 6.41996 15.467Z" fill="#FBBB00"/>
<path d="M24.6116 10.793C24.7474 11.5079 24.8181 12.2462 24.8181 13.0008C24.8181 13.8469 24.7292 14.6722 24.5597 15.4683C23.9844 18.1774 22.4811 20.543 20.3987 22.217L20.398 22.2163L17.026 22.0443L16.5487 19.065C17.9305 18.2547 19.0104 16.9865 19.5793 15.4683H13.2598V10.793H19.6715H24.6116Z" fill="#518EF8"/>
<path d="M20.3976 22.2187L20.3983 22.2194C18.373 23.8473 15.8002 24.8213 12.9996 24.8213C8.49893 24.8213 4.58596 22.3058 2.58984 18.6038L6.41972 15.4688C7.41775 18.1324 9.98724 20.0285 12.9996 20.0285C14.2944 20.0285 15.5074 19.6785 16.5483 19.0674L20.3976 22.2187Z" fill="#28B446"/>
<path d="M20.5442 3.90436L16.7156 7.03876C15.6383 6.36541 14.3649 5.97642 13.0007 5.97642C9.92014 5.97642 7.3026 7.95952 6.35456 10.7187L2.50455 7.5667H2.50391C4.4708 3.7745 8.43313 1.18359 13.0007 1.18359C15.8682 1.18359 18.4974 2.20504 20.5442 3.90436Z" fill="#F14336"/>
</svg>
