<svg width="375" height="428" viewBox="0 0 375 428" fill="none" xmlns="http://www.w3.org/2000/svg">
<path d="M397.248 22.7679C397.969 17.4729 390.512 13.133 384.898 12.6806C382.217 12.4628 379.452 12.8817 376.904 11.9936C371.408 10.0834 369.213 2.97869 363.867 0.733342C359.862 -0.959045 355.253 0.549023 351.365 2.50951C347.478 4.47 343.64 6.91642 339.3 7.20128C335.529 7.43587 331.424 6.04509 328.122 7.88829C325.659 9.2623 324.369 12.0941 322.106 13.7697C319.894 15.4119 316.995 15.747 314.247 15.8978C311.499 16.0486 308.65 16.0821 306.136 17.2215C303.622 18.361 301.561 21.0252 302.081 23.723L397.248 22.7846V22.7679Z" fill="#EBEBEB"/>
<path d="M358.196 100.267C359.453 91.1517 346.583 83.6449 336.913 82.8741C332.305 82.5055 327.512 83.2092 323.138 81.6844C313.67 78.3834 309.9 66.1513 300.649 62.2638C293.745 59.3482 285.802 61.9455 279.099 65.3135C272.412 68.6815 265.793 72.9208 258.302 73.4068C251.8 73.8257 244.729 71.4128 239.048 74.5965C234.808 76.9591 232.579 81.852 228.674 84.734C224.854 87.5491 219.86 88.1523 215.117 88.4037C210.375 88.655 205.465 88.7053 201.141 90.6825C196.818 92.6598 193.248 97.2343 194.137 101.893L358.179 100.267H358.196Z" fill="#F5F5F5"/>
<path d="M187.612 413.984H155.664L159.846 398.484H187.612V413.984Z" fill="#E0E0E0"/>
<path d="M187.612 413.983C187.612 413.983 187.551 413.56 187.531 412.837L187.431 409.7L187.23 398.483L187.612 398.865C180.132 398.905 170.461 398.945 159.845 399.005L160.348 398.623L159.725 400.915C158.458 405.559 157.252 410.022 156.126 414.143L155.643 413.52C164.812 413.56 172.733 413.661 178.403 413.762C181.137 413.822 183.369 413.862 185.098 413.902C186.667 413.942 187.551 413.983 187.591 414.023C187.632 414.063 186.827 414.103 185.319 414.143C183.631 414.184 181.419 414.224 178.745 414.284C173.095 414.385 165.033 414.485 155.643 414.525H155L155.161 413.902L158.699 400.674L159.323 398.382L159.423 398H159.825C170.441 398.06 180.112 398.101 187.591 398.141H187.994V398.523C187.933 403.388 187.853 407.328 187.772 409.982L187.672 413.018C187.652 413.701 187.612 414.043 187.591 414.023L187.612 413.983Z" fill="#263238"/>
<path d="M239.736 212.252H210.734C206.321 212.252 202.719 208.67 202.719 204.238C202.719 197.438 208.224 191.934 215.024 191.934H232.916C236.68 191.934 239.736 194.989 239.736 198.754V212.252Z" fill="#EF8D53"/>
<path d="M248.992 336H218.945C211.213 336 204.945 342.268 204.945 350V399.752C204.945 407.484 211.213 413.752 218.945 413.752H248.992C256.724 413.752 262.992 407.484 262.992 399.752V350C262.992 342.268 256.724 336 248.992 336Z" fill="#263238"/>
<path d="M210.855 230.485L227.735 216.946L254.431 143.646C258.397 134.519 266.088 122.781 283.757 121L467.692 122.619C478.115 122.72 487.405 129.257 490.987 139.052L514.89 204.5L521.447 219.374L537.032 230.262C543.002 234.451 546.564 241.271 546.564 248.577V353.569C546.564 353.569 545.795 372.875 525.718 372.875H225.225C225.225 372.875 205.917 373.644 202.82 351.242C200.371 333.473 201.808 271.931 202.517 247.261C202.699 240.705 205.755 234.573 210.855 230.485Z" fill="#EF8D53"/>
<g opacity="0.3">
<path d="M201.082 305.566C203.389 306.133 546.567 305.566 546.567 305.566V352.355C546.567 363.749 538.41 372.876 527.015 372.876H227.17C212.517 372.876 201.568 361.907 201.73 347.154L201.102 305.566H201.082Z" fill="black"/>
</g>
<path d="M212.981 238.176L279.568 246.231V285.269C279.568 285.269 205.877 283.184 201.465 273.389L202.457 247.162C202.659 241.657 207.516 237.508 212.981 238.176Z" fill="#ECECEC"/>
<path d="M212.982 238.175C212.982 238.175 211.949 238.034 210.087 238.398C208.306 238.782 205.453 239.997 203.753 243.194C202.862 244.773 202.639 246.716 202.639 248.921C202.579 251.127 202.498 253.515 202.417 256.065C202.255 261.185 202.052 267.014 201.85 273.409L201.81 273.227C202.943 275.068 205.473 276.08 207.821 276.91C210.249 277.719 212.86 278.367 215.532 278.934C220.915 280.026 226.684 280.856 232.735 281.544C244.818 282.92 257.974 283.831 271.716 284.458C274.347 284.56 276.958 284.661 279.549 284.762L279.002 285.288C279.002 271.405 279.043 258.231 279.043 246.25L279.468 246.736C259.876 244.287 243.26 242.223 231.46 240.745C225.651 239.997 221.057 239.39 217.799 238.965C216.281 238.742 215.066 238.58 214.176 238.459C213.366 238.337 212.941 238.256 212.941 238.236C212.941 238.216 213.366 238.236 214.196 238.317C215.087 238.398 216.301 238.519 217.839 238.681C221.098 239.046 225.712 239.551 231.521 240.199C243.341 241.575 259.957 243.518 279.589 245.805L280.014 245.845V246.27C280.014 258.251 280.034 271.425 280.055 285.308V285.855H279.508C276.918 285.733 274.307 285.632 271.655 285.531C257.893 284.904 244.717 283.973 232.594 282.556C226.542 281.848 220.754 280.978 215.329 279.864C212.617 279.278 210.006 278.63 207.517 277.78C206.282 277.355 205.068 276.849 203.935 276.242C202.822 275.594 201.708 274.866 201.04 273.611L201 273.53V273.429C201.283 267.034 201.526 261.226 201.749 256.085C201.87 253.536 201.971 251.148 202.073 248.942C202.073 246.776 202.356 244.611 203.328 243.012C205.149 239.693 208.165 238.54 210.006 238.216C211.929 237.932 212.941 238.216 212.941 238.216L212.982 238.175Z" fill="#263238"/>
<path d="M305.132 246.211C294.79 246.211 285.803 253.658 284.265 263.878C283.82 266.792 283.638 270.172 283.84 274.098C285.014 297.432 289.669 326.007 300.76 333.009H377.184V246.211H305.132Z" fill="#263238"/>
<path d="M440.532 246.211C450.875 246.211 459.861 253.658 461.399 263.878C461.844 266.792 462.026 270.172 461.824 274.098C460.65 297.432 455.995 326.007 444.904 333.009H368.48V246.211H440.532Z" fill="#263238"/>
<path d="M459.758 277.01H286.652C284.081 277.01 281.977 274.925 281.977 272.335C281.977 269.765 284.061 267.66 286.652 267.66H459.758C462.329 267.66 464.434 269.745 464.434 272.335C464.434 274.905 462.349 277.01 459.758 277.01Z" fill="#455A64"/>
<path d="M450.692 258.572H292.765C290.195 258.572 288.09 256.488 288.09 253.898C288.09 251.327 290.174 249.223 292.765 249.223H450.692C453.263 249.223 455.368 251.307 455.368 253.898C455.368 256.468 453.283 258.572 450.692 258.572Z" fill="#455A64"/>
<path d="M459.758 288.445H288.453C285.871 288.445 283.777 290.534 283.777 293.11C283.777 295.686 285.871 297.775 288.453 297.775H459.758C462.34 297.775 464.433 295.686 464.433 293.11C464.433 290.534 462.34 288.445 459.758 288.445Z" fill="#455A64"/>
<path d="M453.79 318.557H292.3C289.73 318.557 287.625 316.472 287.625 313.882C287.625 311.312 289.71 309.207 292.3 309.207H453.769C456.34 309.207 458.445 311.291 458.445 313.882C458.445 316.452 456.36 318.557 453.769 318.557H453.79Z" fill="#455A64"/>
<path d="M240.508 205.674C240.508 205.674 259.816 141.238 269.005 133.062H480.222C480.222 133.062 498.356 172.951 504.995 205.674H240.508Z" fill="#455A64"/>
<path d="M294.402 344.34V349.946C294.402 356.766 299.928 362.29 306.748 362.29H441.562C448.383 362.29 453.908 356.766 453.908 349.946V344.34H294.402Z" fill="#263238"/>
<path d="M274.022 328.777V353.325C274.022 353.325 224.679 360.287 217.453 328.777H274.022Z" fill="#263238"/>
<path d="M521.469 219.375C521.469 219.375 521.388 219.253 521.287 218.99C521.166 218.687 521.004 218.302 520.801 217.796C520.356 216.683 519.749 215.145 518.939 213.162C517.32 209.033 515.013 203.084 512.078 195.576C506.229 180.418 497.971 158.946 488.175 133.548L488.621 133.851C468.078 133.851 444.823 133.831 420.273 133.811C375.989 133.689 335.895 133.588 306.832 133.507C292.36 133.426 280.622 133.345 272.445 133.285L263.094 133.163C262.062 133.143 261.253 133.123 260.666 133.103C260.119 133.103 259.836 133.062 259.836 133.042C259.836 133.022 260.119 133.001 260.666 132.981C261.273 132.981 262.062 132.961 263.094 132.941C265.28 132.92 268.417 132.9 272.445 132.86C280.622 132.839 292.34 132.799 306.832 132.738C335.915 132.738 375.989 132.738 420.273 132.738C444.823 132.799 468.078 132.839 488.621 132.88H488.945L489.066 133.184C498.72 158.642 506.856 180.155 512.625 195.353C515.438 202.902 517.684 208.872 519.243 213.02C519.971 215.024 520.558 216.602 520.963 217.715C521.145 218.221 521.267 218.606 521.388 218.93C521.469 219.213 521.51 219.355 521.51 219.355L521.469 219.375Z" fill="#263238"/>
<path d="M504.995 205.673C504.995 205.957 445.775 206.24 372.752 206.281C299.708 206.321 240.488 206.139 240.488 205.835C240.488 205.552 299.688 205.269 372.752 205.228C445.775 205.188 504.995 205.37 504.995 205.673Z" fill="#263238"/>
<path d="M240.506 205.674C240.688 205.897 233.523 212.292 224.517 219.962C215.49 227.632 208.021 233.683 207.839 233.46C207.657 233.237 214.822 226.842 223.849 219.172C232.875 211.502 240.344 205.451 240.526 205.674H240.506Z" fill="#263238"/>
<path d="M242.957 175.156C243.24 175.257 240.042 184.688 235.833 196.223C231.623 207.759 228 217.028 227.717 216.947C227.433 216.845 230.631 207.415 234.841 195.879C239.051 184.344 242.674 175.075 242.937 175.176L242.957 175.156Z" fill="#263238"/>
<path d="M475.871 245.319C475.871 245.319 475.709 245.359 475.365 245.399C474.96 245.42 474.475 245.46 473.888 245.501C472.491 245.582 470.589 245.683 468.18 245.824C463.222 246.088 456.037 246.371 447.152 246.634C429.381 247.18 404.831 247.464 377.731 247.362C350.61 247.282 326.08 246.958 308.31 246.735C299.486 246.614 292.341 246.513 287.281 246.432C284.873 246.371 282.95 246.33 281.554 246.31C280.947 246.29 280.461 246.27 280.076 246.249C279.732 246.249 279.57 246.209 279.57 246.189C279.57 246.168 279.732 246.148 280.076 246.128L281.574 246.088C282.971 246.088 284.873 246.047 287.302 246.007C292.362 246.007 299.526 245.986 308.351 245.966C326.202 246.047 350.691 246.148 377.771 246.29C404.872 246.391 429.402 246.229 447.172 245.865C455.976 245.663 463.141 245.501 468.2 245.379C470.609 245.319 472.532 245.278 473.928 245.258C474.535 245.258 475.021 245.258 475.426 245.258C475.77 245.258 475.932 245.258 475.932 245.298L475.871 245.319Z" fill="#263238"/>
<path d="M342.957 133.062H399.627V136.28C399.627 141.259 395.579 145.306 390.6 145.306H351.984C347.005 145.306 342.957 141.259 342.957 136.28V133.062Z" fill="#263238"/>
<path d="M272.14 206.422C270.886 207.758 272.748 186.832 275.601 177.645C276.269 175.52 278.536 174.062 281.147 174.062H332.271C335.085 174.062 337.493 175.783 337.938 178.11C339.112 184.424 342.249 196.567 342.958 206.483L272.14 206.422Z" fill="#263238"/>
<path d="M323.247 151.152H291.451C287.785 151.152 284.812 154.124 284.812 157.79V164.63C284.812 168.296 287.785 171.268 291.451 171.268H323.247C326.913 171.268 329.885 168.296 329.885 164.63V157.79C329.885 154.124 326.913 151.152 323.247 151.152Z" fill="#263238"/>
<path d="M137.388 159.047H118.215V413.82H137.388V159.047Z" fill="#E0E0E0"/>
<path d="M137.386 413.821C137.386 413.821 137.363 413.346 137.34 412.487C137.34 411.582 137.318 410.293 137.295 408.643C137.295 405.229 137.25 400.277 137.205 393.901C137.16 381.104 137.115 362.586 137.025 339.659C136.957 293.805 136.867 230.203 136.777 159.025L137.363 159.613C131.28 159.613 124.769 159.613 118.19 159.613L118.776 159.025C118.776 275.265 118.618 374.569 118.393 413.798L118.19 413.594C124.431 413.64 129.185 413.685 132.429 413.708L136.101 413.753C136.935 413.753 137.363 413.798 137.363 413.798C137.363 413.798 136.98 413.821 136.169 413.843C135.313 413.843 134.119 413.866 132.542 413.888C129.275 413.911 124.454 413.956 118.168 414.001H117.965V413.798C117.74 374.547 117.582 275.242 117.582 159.025V158.438H118.19C124.746 158.438 131.258 158.438 137.363 158.438H137.949V159.025C137.859 230.361 137.769 294.122 137.701 340.089C137.633 362.97 137.566 381.42 137.521 394.195C137.476 400.503 137.453 405.41 137.431 408.801C137.431 410.429 137.408 411.673 137.386 412.577C137.386 413.414 137.34 413.821 137.34 413.821H137.386Z" fill="#263238"/>
<path d="M183.008 23H78.7861C66.754 23 57 32.7531 57 44.7842V148.997C57 161.028 66.754 170.781 78.7861 170.781H183.008C195.04 170.781 204.794 161.028 204.794 148.997V44.7842C204.794 32.7531 195.04 23 183.008 23Z" fill="#455A64"/>
<path d="M182.828 165.85H78.9441C69.6168 165.85 62.0469 158.258 62.0469 148.954V45.0793C62.0469 35.7529 69.6394 28.1836 78.9441 28.1836H182.828C192.155 28.1836 199.725 35.7754 199.725 45.0793V148.954C199.725 158.28 192.133 165.85 182.828 165.85ZM78.9441 30.4364C70.8785 30.4364 64.2998 37.0144 64.2998 45.0793V148.954C64.2998 157.019 70.8785 163.597 78.9441 163.597H182.828C190.916 163.597 197.472 157.019 197.472 148.954V45.0793C197.472 36.9919 190.894 30.4364 182.828 30.4364H78.9441Z" fill="white"/>
<path d="M152.683 62.402C157.414 64.5196 161.064 67.5609 163.632 71.5257C166.201 75.468 167.485 80.1313 167.485 85.4703C167.485 90.8093 166.201 95.45 163.632 99.3473C161.064 103.267 157.414 106.286 152.683 108.426C147.952 110.566 142.387 111.625 135.966 111.625H123.597V130.165H103.523V59.2031H135.966C142.387 59.2031 147.952 60.2619 152.683 62.402ZM144.077 93.1071C146.172 91.3275 147.231 88.7593 147.231 85.4477C147.231 82.1362 146.172 79.568 144.077 77.7433C141.981 75.9186 138.872 74.9949 134.749 74.9949H123.597V95.7879H134.749C138.872 95.7879 141.981 94.8868 144.077 93.1071Z" fill="white"/>
<path d="M155.194 202.872L146.014 183.308L133.181 188.869L144.631 207.426L155.194 202.872Z" fill="#FFD0B7"/>
<path d="M154.247 201.65L163.561 208.781C164.08 209.197 163.705 212.676 163.705 212.676L162.717 223.173C162.717 223.173 160.505 224.47 159.803 221.81C159.659 221.263 159.619 218.81 159.533 218.275C159.187 216.236 159.213 214.512 159.213 214.512L158.936 217.664C158.936 217.664 158.718 218.513 156.954 220.043C154.778 221.924 152.564 220.448 153.598 219.362C154.624 218.265 156.292 216.387 156.292 216.387C156.292 216.387 153.508 218.091 152.773 216.338C152.773 216.338 150.703 216.87 149.951 215.392C149.198 213.913 149.312 212.526 149.312 212.526C149.312 212.526 144.677 209.939 144.07 208.053C143.471 206.179 142.37 202.909 142.37 202.909L154.266 201.654L154.247 201.65Z" fill="#FFD0B7"/>
<path d="M159.627 211.987L169.649 218.565C169.89 218.723 169.957 219.047 169.798 219.288L167.959 222.083C167.8 222.324 167.475 222.391 167.234 222.233L157.212 215.655C156.97 215.496 156.904 215.172 157.063 214.931L158.902 212.137C159.061 211.896 159.386 211.828 159.627 211.987Z" fill="#455A64"/>
<path d="M166.827 214.809C166.827 214.809 164.697 209.913 164.45 209.385C164.211 208.868 157.546 204.735 157.546 204.735C157.546 204.735 151.515 208.167 151.351 209.226C151.195 210.296 155.488 212.335 160.634 211.878L163.424 214.587C163.424 214.587 164.361 217.783 165.731 218.168C167.102 218.554 167.352 217.93 167.352 217.93L166.823 214.779L166.827 214.809Z" fill="#FFD0B7"/>
<path d="M152.973 206.346C152.87 206.315 152.571 207.216 153.072 208.563C153.31 209.229 153.753 209.957 154.406 210.63C155.116 211.414 156.24 211.648 157.231 211.805C158.606 212.023 159.919 212.068 160.848 212.331L160.7 212.231C162.238 213.754 163.332 214.698 163.455 214.585C163.578 214.471 162.697 213.323 161.278 211.706L161.233 211.637L161.13 211.605C160.004 211.192 158.715 211.131 157.389 210.914C156.409 210.75 155.514 210.563 155 210.028C154.391 209.474 153.955 208.856 153.674 208.301C153.094 207.186 153.133 206.34 152.996 206.331L152.973 206.346Z" fill="#9E5D3F"/>
<path d="M153.05 216.359C153.165 216.284 152.938 215.76 152.771 214.9C152.703 214.468 152.643 213.949 152.672 213.389C152.666 212.851 152.94 212.163 152.67 211.272C152.348 210.35 151.432 209.93 150.675 209.981C149.862 210.02 149.291 210.656 149.137 211.151C148.793 212.261 149.44 212.824 149.502 212.718C149.614 212.661 149.345 212.098 149.73 211.403C149.92 211.066 150.266 210.79 150.701 210.801C151.141 210.794 151.672 211.103 151.816 211.551C151.983 212.033 151.82 212.714 151.84 213.374C151.86 214.034 151.987 214.607 152.158 215.07C152.5 215.996 152.958 216.42 153.05 216.359Z" fill="#9E5D3F"/>
<path d="M155.726 216.153C155.841 216.177 156.072 215.599 156.219 214.616C156.293 214.124 156.337 213.537 156.317 212.877C156.293 212.236 156.237 211.37 155.61 210.663C155.305 210.321 154.899 210.077 154.426 210.008C153.953 209.94 153.471 210.107 153.159 210.36C152.531 210.885 152.364 211.586 152.29 212.077C152.2 213.072 152.183 213.625 152.282 213.675C152.419 213.733 152.688 213.114 152.919 212.208C153.049 211.778 153.272 211.288 153.668 211.013C154.033 210.741 154.551 210.83 154.948 211.26C155.329 211.668 155.441 212.317 155.504 212.916C155.562 213.535 155.583 214.096 155.594 214.565C155.622 215.515 155.616 216.11 155.749 216.138L155.726 216.153Z" fill="#9E5D3F"/>
<path d="M171.245 224.535C171.264 224.616 171.624 224.614 172.128 224.366C172.631 224.119 173.26 223.58 173.596 222.754C173.932 221.929 173.854 221.095 173.667 220.576C173.483 220.044 173.217 219.798 173.151 219.841C172.983 219.905 173.569 221.141 173.002 222.525C172.444 223.903 171.158 224.382 171.229 224.545L171.245 224.535Z" fill="#263238"/>
<path d="M173.486 228.182C173.485 228.252 174.243 228.305 175.347 227.851C176.432 227.422 177.858 226.316 178.531 224.594C178.883 223.758 179.039 222.853 178.947 222.051C178.855 221.249 178.58 220.578 178.314 220.064C177.753 219.045 177.358 218.476 177.295 218.505C177.203 218.542 177.469 219.218 177.909 220.248C178.109 220.769 178.317 221.391 178.358 222.097C178.4 222.804 178.251 223.577 177.935 224.343C177.323 225.908 176.112 226.932 175.146 227.435C174.173 227.966 173.46 228.071 173.48 228.174L173.486 228.182Z" fill="#263238"/>
<path d="M177.72 231.427C177.727 231.492 178.728 231.433 180.098 230.654C181.449 229.899 183.132 228.276 183.779 225.907C184.412 223.536 183.766 221.279 182.972 219.957C182.179 218.599 181.334 218.056 181.296 218.105C181.216 218.18 181.919 218.827 182.561 220.167C183.217 221.474 183.721 223.568 183.144 225.739C182.553 227.908 181.061 229.465 179.839 230.275C178.606 231.104 177.672 231.318 177.698 231.43L177.72 231.427Z" fill="#263238"/>
<path d="M49.209 404.848L47.3891 412.499C47.3891 412.499 34.8754 428.762 31.0239 427.958C28.4986 427.435 31.6023 423.2 36.3567 410.847L37.3584 405.751L49.209 404.848Z" fill="#EF8D53"/>
<path d="M30.5028 425.572C30.5028 425.572 30.5028 425.657 30.6016 425.798C30.6862 425.939 30.8414 426.137 31.1236 426.292C31.3916 426.447 31.7866 426.56 32.2381 426.532C32.6895 426.504 33.1833 426.32 33.6489 426.01C35.4265 424.654 37.6132 422.551 39.9551 420.123C42.2829 417.68 44.2157 415.323 45.5418 413.572C46.2049 412.697 46.7269 411.963 47.0796 411.469C47.2207 411.257 47.3476 411.073 47.4746 410.876C47.5592 410.735 47.6016 410.664 47.6016 410.664C47.6016 410.664 47.5451 410.721 47.4323 410.848L46.9949 411.412C46.5294 412.019 45.9933 412.697 45.4007 413.473C44.0323 415.196 42.0854 417.539 39.7717 419.967C37.4439 422.381 35.2572 424.513 33.5501 425.868C32.6613 426.518 31.6879 426.504 31.1659 426.207C30.6157 425.925 30.5169 425.544 30.5028 425.572Z" fill="#263238"/>
<path d="M32.2798 420.35C32.2798 420.35 32.6748 420.307 33.2956 420.406C33.9022 420.491 34.7346 420.759 35.5528 421.253C36.3711 421.747 36.9495 422.397 37.2458 422.947C37.5421 423.498 37.6267 423.879 37.669 423.865C37.6972 423.865 37.669 423.456 37.401 422.863C37.147 422.27 36.5404 421.55 35.6798 421.042C34.8474 420.519 33.9587 420.265 33.3238 420.223C32.6748 420.18 32.2798 420.322 32.2939 420.35H32.2798Z" fill="#263238"/>
<path d="M44.1157 416.538C44.1157 416.538 43.9887 415.987 43.89 415.098C43.7771 414.222 43.89 412.952 44.5248 411.738C45.1315 410.524 46.1331 409.705 46.9091 409.324C47.6991 408.928 48.2775 408.872 48.2634 408.83C48.2634 408.815 48.1223 408.815 47.8684 408.844C47.6145 408.886 47.2476 408.971 46.8385 409.154C46.0062 409.521 44.9481 410.354 44.2991 411.611C43.6501 412.867 43.5514 414.208 43.7207 415.098C43.7912 415.549 43.89 415.902 43.9746 416.142C44.0593 416.382 44.1157 416.509 44.1298 416.509L44.1157 416.538Z" fill="#263238"/>
<path d="M48.4045 406.145C48.4045 406.145 47.9389 407.189 47.7132 408.544C47.4875 409.9 47.2335 410.973 47.29 411.001C47.3605 411.029 47.7273 409.956 47.953 408.601C48.1929 407.246 48.4609 406.173 48.4045 406.159V406.145Z" fill="#263238"/>
<path d="M36.1318 411.934C36.1318 412.004 36.8513 411.99 37.6837 412.188C38.5161 412.371 39.1509 412.71 39.1932 412.64C39.2356 412.583 38.6289 412.145 37.7401 411.948C36.8513 411.736 36.1177 411.877 36.1318 411.948V411.934Z" fill="#263238"/>
<path d="M35.8778 413.249C35.8778 413.32 36.4845 413.249 37.1758 413.433C37.8671 413.588 38.3749 413.913 38.4173 413.856C38.4596 413.814 37.994 413.376 37.2322 413.193C36.4845 413.009 35.8637 413.193 35.8778 413.249Z" fill="#263238"/>
<path d="M34.8757 414.898C34.8757 414.898 35.4965 414.771 36.2301 414.94C36.9637 415.095 37.4151 415.533 37.4716 415.477C37.528 415.448 37.1048 414.884 36.2865 414.7C35.4824 414.517 34.8475 414.841 34.8898 414.898H34.8757Z" fill="#263238"/>
<path d="M36.9915 411.385C36.9915 411.385 37.1467 411.385 37.4148 411.343C37.6828 411.286 38.0637 411.202 38.5293 411.046C38.9949 410.891 39.531 410.665 40.0812 410.355C40.3633 410.199 40.6455 410.016 40.9417 409.818C41.2098 409.606 41.5625 409.338 41.5625 408.858C41.5343 408.35 40.97 408.152 40.6032 408.265C40.2223 408.364 39.9542 408.632 39.7285 408.844C39.277 409.296 38.882 409.719 38.5857 410.1C38.2754 410.482 38.0496 410.792 37.8945 411.018C37.7393 411.244 37.6687 411.371 37.6828 411.385C37.711 411.413 38.0779 410.933 38.7127 410.213C39.0372 409.86 39.4322 409.437 39.8837 409.013C40.1094 408.802 40.3492 408.576 40.6455 408.505C40.9276 408.435 41.2944 408.59 41.2944 408.886C41.2944 409.169 41.0264 409.451 40.7725 409.635C40.4903 409.832 40.2081 410.016 39.9401 410.171C39.3899 410.482 38.882 410.722 38.4305 410.905C37.5418 411.258 36.9492 411.371 36.9633 411.413L36.9915 411.385Z" fill="#263238"/>
<path d="M37.6538 411.228C37.6538 411.228 37.682 411.087 37.6679 410.847C37.6679 410.607 37.6397 410.24 37.5833 409.802C37.5268 409.364 37.4281 408.842 37.1883 408.291C37.0613 408.023 36.9202 407.741 36.6945 407.487C36.497 407.261 36.1019 406.95 35.6928 407.176C35.3119 407.416 35.3119 407.868 35.3401 408.179C35.3966 408.503 35.4953 408.8 35.6082 409.082C35.848 409.633 36.2007 410.042 36.497 410.367C36.8074 410.691 37.0895 410.903 37.287 411.044C37.4845 411.186 37.6115 411.242 37.6256 411.242C37.6538 411.214 37.2024 410.903 36.6239 410.254C36.3418 409.929 36.0314 409.52 35.8057 408.997C35.6928 408.743 35.6082 408.447 35.5659 408.164C35.5235 407.882 35.5659 407.529 35.7916 407.416C36.0173 407.289 36.2995 407.459 36.497 407.684C36.6945 407.896 36.8356 408.164 36.9625 408.419C37.2024 408.927 37.3152 409.435 37.3858 409.859C37.5268 410.72 37.5833 411.256 37.6256 411.256L37.6538 411.228Z" fill="#263238"/>
<g opacity="0.4">
<path d="M47.389 412.513L48.2637 408.828C48.2637 408.828 45.2023 409.393 44.3981 411.694C43.6081 413.995 43.8056 415.619 43.8056 415.619L37.1467 422.804C37.1467 422.804 35.4678 419.529 32.4487 420.32C32.4487 420.32 30.0645 425.557 30.135 426.87C30.2197 428.31 31.7292 428.028 32.2794 427.773C32.5193 427.661 35.3973 426.009 38.2471 423.058C41.774 419.388 45.6819 414.743 47.389 412.499V412.513Z" fill="black"/>
</g>
<path d="M111.399 408.714L111.456 398.507L92.3395 398.281L92.0997 413.217L93.2847 413.302C98.5611 413.655 120.104 414.742 123.645 413.726C127.595 412.582 111.399 408.728 111.399 408.728V408.714Z" fill="#EF8D53"/>
<g opacity="0.4">
<path d="M99.0406 413.145C98.7866 411.55 97.9119 410.053 96.6563 409.037C95.3866 408.02 93.8207 407.484 92.2124 407.597L92.1418 412.947L99.0547 413.159L99.0406 413.145Z" fill="black"/>
</g>
<g opacity="0.4">
<path d="M119.313 410.887C119.313 410.887 124.985 412.595 124.265 413.527C123.546 414.458 101.721 414.176 92.1132 413.216L92.1555 412.793L117.606 413.329C117.606 413.329 118.213 410.915 119.327 410.887H119.313Z" fill="black"/>
</g>
<path d="M91.8457 412.766C91.8457 412.766 91.9586 412.794 92.1702 412.808C92.4523 412.822 92.7627 412.85 93.1154 412.879C94.0606 412.935 95.2175 412.992 96.586 413.076C99.5204 413.217 103.569 413.359 108.056 413.429C112.542 413.486 116.591 413.457 119.525 413.387C120.894 413.344 122.051 413.316 122.996 413.288C123.349 413.274 123.659 413.26 123.941 413.246C124.153 413.246 124.266 413.217 124.266 413.217C124.266 413.217 124.153 413.217 123.941 413.203C123.659 413.203 123.349 413.203 122.996 413.203C122.051 413.203 120.894 413.217 119.525 413.231C116.591 413.26 112.542 413.26 108.056 413.203C103.583 413.147 99.5345 413.02 96.6001 412.921C95.2316 412.879 94.0748 412.836 93.1295 412.794C92.7768 412.794 92.4665 412.78 92.1843 412.766C91.9727 412.766 91.8598 412.766 91.8598 412.766H91.8457Z" fill="#263238"/>
<path d="M117.577 413.627C117.577 413.627 117.718 412.808 118.24 411.975C118.762 411.128 119.482 410.719 119.44 410.662C119.44 410.606 118.607 410.959 118.043 411.848C117.479 412.737 117.507 413.641 117.563 413.627H117.577Z" fill="#263238"/>
<path d="M111.976 410.69C111.976 410.69 112.3 410.393 112.582 409.97C112.865 409.532 113.048 409.151 113.006 409.123C112.949 409.095 112.681 409.419 112.399 409.843C112.117 410.28 111.933 410.662 111.976 410.69Z" fill="#263238"/>
<path d="M110.44 409.857C110.44 409.857 110.793 409.702 111.117 409.42C111.456 409.123 111.682 408.855 111.639 408.799C111.597 408.756 111.287 408.954 110.962 409.236C110.624 409.533 110.398 409.801 110.44 409.857Z" fill="#263238"/>
<path d="M109.493 408.036C109.493 408.036 109.93 408.163 110.494 408.177C111.045 408.177 111.496 408.149 111.496 408.079C111.496 408.008 111.059 407.952 110.494 407.938C109.944 407.938 109.493 407.966 109.493 408.036Z" fill="#263238"/>
<path d="M109.17 406.764C109.17 406.764 109.636 407.046 110.285 407.103C110.934 407.159 111.441 407.018 111.441 406.962C111.441 406.891 110.919 406.919 110.313 406.863C109.692 406.806 109.198 406.693 109.184 406.75L109.17 406.764Z" fill="#263238"/>
<path d="M112.656 409.04C112.656 409.04 113.121 409.125 113.883 409.04C114.264 408.997 114.716 408.913 115.195 408.772C115.435 408.687 115.689 408.63 115.943 408.475C116.07 408.39 116.197 408.278 116.253 408.094C116.31 407.91 116.211 407.699 116.07 407.6C114.899 406.979 113.714 407.628 113.277 408.221C113.037 408.532 112.924 408.828 112.867 409.04C112.811 409.252 112.811 409.365 112.825 409.365C112.867 409.379 112.91 408.885 113.404 408.32C113.643 408.052 113.996 407.783 114.462 407.656C114.899 407.529 115.52 407.501 115.929 407.769C116.126 407.91 116.042 408.15 115.83 408.278C115.633 408.405 115.365 408.475 115.139 408.56C114.673 408.715 114.236 408.814 113.869 408.87C113.136 408.997 112.67 408.983 112.67 409.026L112.656 409.04Z" fill="#263238"/>
<path d="M112.964 409.093C112.964 409.093 113.161 408.797 113.119 408.246C113.091 407.978 112.992 407.653 112.795 407.343C112.583 407.074 112.301 406.693 111.779 406.707C111.497 406.736 111.356 407.06 111.398 407.272C111.412 407.484 111.511 407.667 111.595 407.823C111.779 408.133 111.976 408.387 112.16 408.571C112.541 408.952 112.837 409.093 112.851 409.079C112.879 409.051 112.611 408.853 112.273 408.458C112.103 408.26 111.934 408.006 111.765 407.71C111.595 407.442 111.497 406.976 111.793 406.933C112.103 406.905 112.414 407.216 112.597 407.47C112.78 407.738 112.893 408.02 112.936 408.274C113.02 408.783 112.907 409.093 112.936 409.107L112.964 409.093Z" fill="#263238"/>
<path d="M92.2979 407.541C92.2979 407.541 92.8481 407.498 93.7087 407.611C94.5693 407.724 95.7544 408.077 96.7701 408.924C97.8 409.757 98.3925 410.858 98.6606 411.677C98.9427 412.496 98.9569 413.046 98.9992 413.046C98.9992 413.046 99.0274 412.905 98.9992 412.665C98.9851 412.411 98.9286 412.058 98.8017 411.635C98.5618 410.788 97.9693 409.63 96.8971 408.755C95.8249 407.879 94.5834 407.527 93.7087 407.456C93.2714 407.414 92.9046 407.442 92.6506 407.456C92.4108 407.484 92.2697 407.527 92.2697 407.541H92.2979Z" fill="#263238"/>
<path d="M94.3836 399.609C94.3836 399.609 94.2284 401.36 94.1719 403.534C94.1155 405.708 94.1296 407.459 94.1861 407.473C94.2566 407.473 94.3412 405.722 94.3977 403.548C94.4541 401.374 94.44 399.624 94.3836 399.624V399.609Z" fill="#263238"/>
<path d="M101.466 411.312C101.466 411.312 102.694 411.595 104.246 411.623C105.797 411.665 107.053 411.496 107.039 411.44C107.039 411.369 105.783 411.44 104.246 411.397C102.708 411.369 101.466 411.256 101.452 411.312H101.466Z" fill="#263238"/>
<path d="M97.7291 411.255C97.7291 411.255 97.8279 411.523 97.9549 411.805C98.0818 412.088 98.1383 412.342 98.2088 412.342C98.2652 412.342 98.3076 412.045 98.1665 411.707C98.0254 411.368 97.7715 411.198 97.7291 411.241V411.255Z" fill="#263238"/>
<path d="M96.3326 409.489C96.3326 409.489 96.4032 409.729 96.6007 409.94C96.7982 410.138 96.9957 410.265 97.038 410.223C97.0804 410.18 96.9675 409.983 96.77 409.771C96.5725 409.573 96.375 409.446 96.3326 409.489Z" fill="#263238"/>
<path d="M94.3282 408.656C94.3282 408.656 94.5962 408.726 94.8784 408.825C95.1605 408.924 95.358 409.079 95.4145 409.037C95.4709 409.008 95.3157 408.726 94.963 408.613C94.6103 408.486 94.3282 408.613 94.3423 408.67L94.3282 408.656Z" fill="#263238"/>
<path d="M92.8884 408.264C92.8884 408.264 92.973 408.419 93.1282 408.49C93.2834 408.56 93.4386 408.56 93.4527 408.49C93.4809 408.433 93.368 408.334 93.2129 408.264C93.0577 408.193 92.9025 408.193 92.8884 408.264Z" fill="#263238"/>
<path d="M32.6348 406.357L66.6912 205.977L119.215 213.981L113.134 404.847L88.8124 406.922L90.6746 238.898L53.2464 407.105L32.6348 406.357Z" fill="#455A64"/>
<path d="M61.3849 220.914L68.3541 161.819L57.8156 178.294L40.9707 163.711L60.6654 137.071C64.2911 133.316 68.5376 130.535 73.6023 128.686C76.0712 127.796 78.6811 127.26 81.7143 127.133C88.2463 129.152 94.7782 129.152 101.31 127.133C102.411 127.274 104.118 127.415 106.361 127.726C113.993 128.77 120.892 132.836 125.477 139.034L145.75 177.983L128.383 184.562L119.227 168.045L120.934 222.876L104.583 226.434L92.1118 217.413L74.9002 226.434L61.3849 220.9V220.914Z" fill="#263238"/>
<path d="M118.326 147.363C118.142 147.363 118.326 156.497 118.735 167.735C119.158 178.986 119.652 188.092 119.835 188.077C120.019 188.077 119.835 178.958 119.412 167.706C118.989 156.469 118.495 147.363 118.312 147.363H118.326Z" fill="#455A64"/>
<path d="M69.5375 150.961C69.3541 150.947 68.6769 156.213 68.0562 162.735C67.4213 169.257 67.0686 174.565 67.252 174.579C67.4354 174.593 68.1126 169.328 68.7334 162.805C69.3682 156.283 69.7209 150.975 69.5375 150.961Z" fill="#455A64"/>
<path d="M96.8945 77.2981C94.1858 76.6769 91.4489 76.0417 88.6837 76.1687C85.9186 76.2958 83.0688 77.2557 81.2348 79.3451C80.1061 80.6298 79.4149 82.3097 78.0746 83.3685C76.4099 84.6955 73.7294 85.1332 73.1651 87.1943C72.5866 89.3119 74.8298 91.2883 74.6746 93.4624C74.59 94.7047 73.7435 95.7494 73.024 96.7799C72.3186 97.8105 71.6978 99.1093 72.1352 100.281C72.4879 101.227 73.4331 101.834 73.8987 102.723C74.6182 104.107 74.0398 105.801 74.2655 107.34C74.59 109.598 76.6638 111.292 78.8788 111.871C81.0796 112.45 83.4215 112.168 85.6788 111.871" fill="#263238"/>
<path d="M98.9836 78.2716C100.846 77.9046 102.765 77.5658 104.613 78.0034C106.461 78.4411 108.21 79.8245 108.478 81.7021C108.648 82.8598 108.267 84.1585 108.916 85.1326C109.649 86.2197 111.3 86.3044 112.132 87.3067C113.938 89.4666 110.467 93.1936 112.273 95.3535C112.753 95.9324 113.529 96.2147 114.051 96.7512C114.954 97.6829 114.911 99.2781 114.164 100.323C113.416 101.382 112.104 101.918 110.806 101.989C109.508 102.059 108.238 101.706 107.025 101.255C102.934 99.744 99.167 96.9629 97.206 93.0524C95.2592 89.1419 95.4426 84.0456 98.2641 80.7281" fill="#263238"/>
<path d="M81.5319 92.812L81.0099 129.969L99.59 130.35C99.9145 128.204 100.606 119.861 100.606 119.861C100.606 119.861 108.393 119.437 109.254 111.771C109.677 108.045 109.917 100.294 110.044 93.292C110.199 85.5275 104.119 79.0759 96.3734 78.7512C88.346 78.4124 81.6307 84.7793 81.5178 92.812H81.5319Z" fill="#FFC7AA"/>
<path d="M100.633 119.749C100.633 119.749 95.7515 119.65 90.9125 115.895C90.9125 115.895 92.7183 121.654 100.449 121.725L100.633 119.734V119.749Z" fill="#EB996E"/>
<path d="M106.572 97.7665C106.529 98.3453 106.007 98.797 105.401 98.7688C104.794 98.7406 104.328 98.2465 104.371 97.6676C104.413 97.0888 104.935 96.6371 105.542 96.6653C106.148 96.6936 106.614 97.1877 106.572 97.7665Z" fill="#263238"/>
<path d="M108.04 96.9893C107.885 97.1164 107.123 96.4246 105.938 96.3117C104.767 96.1847 103.836 96.6929 103.723 96.5376C103.667 96.467 103.836 96.227 104.231 95.987C104.626 95.747 105.289 95.5494 106.023 95.62C106.756 95.7047 107.349 96.0294 107.673 96.3399C108.012 96.6505 108.111 96.9188 108.026 96.9893H108.04Z" fill="#263238"/>
<path d="M94.7395 97.0594C94.6972 97.6382 94.1752 98.09 93.5686 98.0618C92.9619 98.0335 92.4964 97.5394 92.5387 96.9606C92.581 96.3818 93.103 95.9301 93.7096 95.9583C94.3163 95.9865 94.7818 96.4806 94.7395 97.0594Z" fill="#263238"/>
<path d="M96.4308 96.044C96.2756 96.1711 95.5138 95.4793 94.3287 95.3664C93.1577 95.2393 92.2266 95.7476 92.1138 95.5923C92.0573 95.5217 92.2266 95.2817 92.6216 95.0417C93.0167 94.8017 93.6797 94.6041 94.4133 94.6747C95.147 94.7594 95.7395 95.0841 96.064 95.3946C96.4026 95.7052 96.5013 95.9734 96.4167 96.044H96.4308Z" fill="#263238"/>
<path d="M99.8312 105.219C99.8312 105.219 100.579 105.091 101.778 105.063C102.088 105.063 102.371 105.035 102.441 104.837C102.54 104.626 102.441 104.287 102.328 103.92C102.117 103.157 101.905 102.367 101.665 101.534C100.762 98.1458 100.127 95.3647 100.269 95.3364C100.41 95.2941 101.256 98.0187 102.159 101.407C102.371 102.24 102.582 103.044 102.78 103.793C102.864 104.146 103.02 104.555 102.822 104.993C102.723 105.204 102.483 105.346 102.286 105.388C102.088 105.43 101.919 105.416 101.764 105.402C100.565 105.346 99.8171 105.275 99.8171 105.204L99.8312 105.219Z" fill="#263238"/>
<path d="M96.2724 105.688C96.4699 105.688 96.343 106.973 97.3446 107.989C98.3463 109.006 99.7288 109.006 99.7147 109.189C99.7147 109.274 99.3903 109.401 98.8118 109.358C98.2475 109.316 97.4434 109.062 96.8226 108.441C96.216 107.82 96.0044 107.043 96.0044 106.521C96.0044 105.984 96.1878 105.674 96.2724 105.688Z" fill="#263238"/>
<path d="M97.1905 91.4551C97.0353 91.7657 95.8784 91.4975 94.4818 91.5257C93.0851 91.5257 91.9282 91.8222 91.7731 91.5257C91.7025 91.3845 91.9282 91.1022 92.4079 90.8339C92.8876 90.5657 93.6353 90.3398 94.4677 90.3398C95.3 90.3398 96.0477 90.5375 96.5415 90.7916C97.0353 91.0457 97.261 91.3281 97.1905 91.4692V91.4551Z" fill="#263238"/>
<path d="M107.943 93.5314C107.703 93.7855 106.927 93.4185 105.954 93.3055C104.98 93.1644 104.134 93.3055 103.965 93.0091C103.894 92.8679 104.049 92.6138 104.444 92.3879C104.825 92.1762 105.446 92.0209 106.109 92.1056C106.772 92.1903 107.336 92.5009 107.647 92.7973C107.957 93.1079 108.056 93.3903 107.943 93.5173V93.5314Z" fill="#263238"/>
<path d="M83.5508 98.8249C83.4238 98.7543 78.4437 96.7356 78.0769 102.001C77.7242 107.267 83.0711 106.533 83.0993 106.392C83.1134 106.236 83.5508 98.8249 83.5508 98.8249Z" fill="#FFC7AA"/>
<path d="M81.6172 104.29C81.6172 104.29 81.5184 104.346 81.3632 104.403C81.2081 104.459 80.94 104.488 80.672 104.375C80.1359 104.135 79.7267 103.217 79.7549 102.271C79.7691 101.791 79.9101 101.339 80.1076 100.972C80.291 100.605 80.5591 100.351 80.8412 100.309C81.1234 100.266 81.3068 100.45 81.3632 100.591C81.4197 100.746 81.3774 100.845 81.4056 100.859C81.4056 100.873 81.5184 100.775 81.4902 100.563C81.4761 100.464 81.4197 100.323 81.3068 100.224C81.1939 100.111 81.0105 100.055 80.813 100.055C80.4039 100.055 80.0089 100.408 79.7973 100.803C79.5574 101.198 79.4023 101.706 79.374 102.243C79.3317 103.302 79.8114 104.332 80.5591 104.6C80.9259 104.728 81.2363 104.629 81.4056 104.516C81.5749 104.403 81.6172 104.276 81.589 104.276L81.6172 104.29Z" fill="#EB996E"/>
<path d="M101.383 79.0908C101.002 78.3426 99.7186 77.4673 99.1401 77.0438C98.3642 76.4791 96.77 76.112 95.8107 76.0556C93.4547 75.9144 91.0422 75.985 88.7991 76.705C86.5559 77.425 84.4679 78.879 83.3816 80.9825C82.5352 82.6201 82.2953 84.6248 80.9833 85.9377C79.9252 86.9965 78.2464 87.4906 77.6538 88.8599C76.5816 91.2881 79.7982 94.0692 78.7542 96.4974C78.5708 96.935 78.2463 97.3303 78.2322 97.8103C78.2181 98.375 78.6555 98.8691 79.1634 99.095C79.6713 99.3208 80.2497 99.335 80.814 99.335C82.7891 99.3491 85.2015 99.095 86.0339 97.3021C86.7957 95.6503 85.7941 93.4339 86.9086 91.994C87.882 90.7517 89.5327 91.2458 90.887 90.4552C91.4654 90.1305 91.9874 89.7211 92.4671 89.2693C93.37 89.1846 94.2588 89.0717 95.1053 88.7894C96.1634 88.4223 97.165 87.7588 97.7011 86.7706C98.2795 85.6836 98.2795 84.2718 99.1542 83.3966C100.071 82.4789 101.778 82.366 102.216 81.1378C102.484 80.3755 102.06 79.4861 101.355 79.0908H101.383Z" fill="#263238"/>
<path d="M145.751 176.133L147.387 179.337C148.262 181.06 147.571 183.177 145.821 184.024L134.45 189.601C132.786 190.419 130.768 189.77 129.879 188.132L127.368 183.502L145.751 176.133Z" fill="#263238"/>
<path d="M29.6418 131.537L40.0111 134.092C40.0111 134.092 40.4484 132.059 40.5895 131.41C41.0833 129.123 40.5613 127.881 40.3497 127.429C40.2368 127.189 40.2086 126.737 40.2086 126.737C40.2791 125.918 42.1555 122.121 42.8468 120.723C43.665 119.043 42.8326 117.942 42.3107 118.591C41.3654 119.791 38.5015 125.128 37.8244 125.537C37.1472 125.947 37.9936 123.095 37.9936 123.095C40.0111 117.024 40.5613 116.177 39.5032 115.754C38.2758 115.26 35.2426 124.295 35.2426 124.295C35.2426 124.295 35.6658 123.024 34.7065 122.587C33.7613 122.149 33.07 123.349 33.07 123.349C33.3098 122.714 32.3928 122.431 32.3928 122.431C29.9804 122.347 29.6418 131.509 29.6418 131.509L40.0111 134.064L38.8824 170.049L42.6775 165.997L55.3887 176.444L42.6916 188.063C40.0111 190.321 36.4277 191.211 32.9995 190.477C27.2575 189.248 23.4061 183.842 24.0974 178.011L29.6559 131.495L29.6418 131.537Z" fill="#FFD0B7"/>
<path d="M37.8522 133.075C37.8522 133.075 37.429 132.439 36.8505 131.395C36.5543 130.872 36.2439 130.223 35.9617 129.489C35.8207 129.122 35.6937 128.727 35.5808 128.303C35.4821 127.894 35.3128 127.442 35.4256 127.089C35.4821 126.877 35.6373 126.722 35.8065 126.708C35.9758 126.68 36.2016 126.778 36.385 126.906C36.78 127.174 37.1327 127.498 37.429 127.809C38.0215 128.458 38.4024 129.122 38.6422 129.673L38.7269 129.87L38.8539 129.701C39.3617 128.995 39.9119 128.84 39.8837 128.783C39.8837 128.755 39.2912 128.811 38.6563 129.545L38.868 129.574C38.6704 128.995 38.3036 128.261 37.697 127.555C37.3866 127.202 37.0339 126.863 36.5966 126.567C36.3709 126.426 36.1028 126.256 35.7501 126.284C35.3833 126.327 35.1294 126.637 35.0306 126.948C34.8895 127.513 35.1012 127.964 35.1999 128.388C35.3269 128.811 35.468 129.221 35.6231 129.602C35.9335 130.364 36.2721 131 36.6107 131.522C37.2738 132.567 37.824 133.089 37.8522 133.061V133.075Z" fill="#EB996E"/>
<path d="M35.016 124.887C35.016 124.887 34.8326 125.621 34.6774 126.821C34.6069 127.471 34.5222 128.163 34.4235 128.925C34.367 129.306 34.3529 129.758 34.2401 130.125C34.1554 130.478 33.7745 130.746 33.5347 130.548C33.2807 130.351 33.2243 129.871 33.182 129.447C33.1396 129.024 33.1114 128.6 33.0973 128.205C33.0691 127.414 33.0691 126.694 33.055 126.087C33.055 124.873 32.9986 124.125 32.9421 124.125C32.8857 124.125 32.8434 124.873 32.7728 126.073C32.7446 126.68 32.7164 127.4 32.7305 128.205C32.7305 128.6 32.7446 129.024 32.787 129.475C32.8434 129.885 32.8152 130.435 33.2948 130.859C33.5488 131.057 33.9297 131.028 34.1554 130.859C34.3953 130.704 34.5363 130.45 34.6069 130.224C34.7338 129.758 34.7338 129.348 34.7762 128.953C34.8326 128.191 34.889 127.485 34.9455 126.836C35.0301 125.621 35.0583 124.887 35.0019 124.873L35.016 124.887Z" fill="#EB996E"/>
<path d="M32.7883 127.216C32.7883 127.216 32.8024 127.668 32.6331 128.346C32.5485 128.656 32.4074 129.108 32.1252 129.348C31.97 129.447 31.8854 129.447 31.7866 129.277C31.702 129.108 31.6315 128.812 31.5609 128.572C30.9966 126.482 31.1941 124.703 31.0812 124.703C30.9825 124.675 30.6016 126.496 31.18 128.685C31.2646 128.953 31.307 129.207 31.4481 129.489C31.5186 129.63 31.6738 129.772 31.8713 129.814C32.0688 129.842 32.2522 129.757 32.351 129.659C32.5767 129.461 32.6754 129.221 32.746 129.023C32.8306 128.812 32.8729 128.614 32.9012 128.43C33.014 127.682 32.8165 127.23 32.7742 127.245L32.7883 127.216Z" fill="#EB996E"/>
<path d="M40.971 162.766L59.2266 177.998L58.9444 178.309C56.8282 180.624 53.2589 180.822 50.8888 178.76L40.7876 169.937C39.0523 168.413 38.756 165.815 40.1104 163.937L40.9569 162.766H40.971Z" fill="#263238"/>
<path d="M102.496 127.61L101.24 122.076C101.24 122.076 94.4687 122.514 92.2961 128.782C92.2961 128.782 89.7002 122.076 81.5177 120.961L79.8671 128.005L92.9309 133.469L102.496 127.596" fill="#263238"/>
<path d="M128.399 184.263C128.512 184.446 131.983 182.583 136.328 180.437C140.673 178.291 144.271 176.668 144.186 176.47C144.115 176.286 140.377 177.614 136.003 179.773C131.63 181.933 128.301 184.093 128.399 184.263Z" fill="#455A64"/>
<path d="M42.0572 162.55C41.9867 162.606 42.5792 163.665 43.736 165.246C44.8929 166.827 46.6705 168.903 48.8854 170.921C51.1004 172.94 53.3294 174.521 54.9941 175.538C56.673 176.554 57.7875 177.048 57.8298 176.978C57.9427 176.78 53.7385 174.394 49.3792 170.385C44.9916 166.404 42.2406 162.423 42.0572 162.55Z" fill="#455A64"/>
<path d="M92.3109 128.785C92.3109 128.785 92.2545 129.082 92.2404 129.66C92.2263 130.31 92.1981 131.143 92.1699 132.159C92.1417 134.432 92.0852 137.552 92.0288 141.364C91.9724 149.227 91.9159 159.928 91.8313 171.744C91.8313 183.574 91.8454 194.275 91.8595 202.124C91.9018 205.936 91.93 209.056 91.9441 211.329C91.9724 212.345 91.9865 213.178 92.0006 213.828C92.0288 214.406 92.0429 214.703 92.0711 214.703C92.0993 214.703 92.1275 214.406 92.1417 213.828C92.1558 213.178 92.184 212.345 92.2122 211.329C92.2404 209.056 92.2968 205.936 92.3533 202.124C92.4097 194.261 92.4661 183.56 92.5508 171.744C92.5508 159.928 92.5367 149.227 92.5226 141.364C92.4802 137.552 92.452 134.418 92.4379 132.159C92.4097 131.129 92.3956 130.31 92.3815 129.66C92.3533 129.082 92.3392 128.785 92.3109 128.785Z" fill="#455A64"/>
<path d="M93.6372 126.695C93.6372 126.695 93.8488 126.61 94.1733 126.695C94.4978 126.766 94.8081 127.133 95.1185 127.726C95.7675 128.869 96.4446 130.592 96.5293 132.596L96.5575 133.443L97.15 132.836L97.1783 132.808C100.042 129.843 102.709 127.796 102.582 127.613C102.483 127.458 99.5766 129.265 96.6563 132.286L96.628 132.314L97.2629 132.554C97.1783 130.394 96.36 128.559 95.5559 127.443C95.2032 126.893 94.6953 126.385 94.2015 126.399C93.7359 126.399 93.5949 126.667 93.6372 126.681V126.695Z" fill="#455A64"/>
<path d="M81.3615 121.09C81.2204 121.062 80.4868 123.772 79.5839 127.711L79.5274 127.923L79.7249 128.05C80.8818 128.855 82.2079 129.716 83.6469 130.549C85.1424 131.424 86.6096 132.2 87.9216 132.85L88.4154 133.09V132.553C88.3872 130.662 89.1067 129.123 89.7274 128.191C90.3623 127.245 90.8843 126.793 90.8278 126.737C90.7996 126.695 90.1648 127.033 89.403 127.965C88.6552 128.883 87.7805 130.478 87.7382 132.567L88.2179 132.271C86.9341 131.593 85.5092 130.803 84.0137 129.942C82.6029 129.109 81.2768 128.276 80.1059 127.513L80.2469 127.866C81.0511 123.914 81.5166 121.132 81.3756 121.104L81.3615 121.09Z" fill="#455A64"/>
<path d="M90.1646 144.412C90.1082 144.497 90.2352 144.694 90.1505 144.991C90.0659 145.301 89.8119 145.499 89.4875 145.287C89.163 145.062 89.2476 144.765 89.5016 144.553C89.7414 144.37 89.9812 144.398 90.0236 144.313C90.0941 144.243 89.826 143.918 89.2758 144.087C89.036 144.172 88.7256 144.37 88.5987 144.765C88.4717 145.174 88.6974 145.669 89.0642 145.894C89.4169 146.134 89.953 146.163 90.2916 145.894C90.6161 145.626 90.6866 145.273 90.6584 145.005C90.5879 144.44 90.1928 144.313 90.1505 144.412H90.1646Z" fill="#455A64"/>
<path d="M89.6412 168.497C89.5848 168.581 89.7117 168.779 89.6271 169.075C89.5424 169.386 89.2885 169.584 88.964 169.372C88.6395 169.146 88.7242 168.85 88.9781 168.638C89.218 168.454 89.4578 168.483 89.5001 168.398C89.5707 168.341 89.3026 168.003 88.7524 168.172C88.5126 168.257 88.2022 168.454 88.0752 168.85C87.9482 169.259 88.174 169.753 88.5408 169.979C88.8935 170.219 89.4296 170.247 89.7682 169.979C90.0926 169.711 90.1632 169.358 90.135 169.09C90.0644 168.525 89.6694 168.398 89.6271 168.497H89.6412Z" fill="#455A64"/>
<path d="M89.5162 195.204C89.4598 195.288 89.5867 195.486 89.5021 195.783C89.4174 196.093 89.1635 196.291 88.839 196.079C88.5145 195.853 88.5992 195.557 88.8531 195.345C89.093 195.161 89.3328 195.19 89.3751 195.105C89.4457 195.048 89.1776 194.71 88.6274 194.879C88.3876 194.964 88.0772 195.161 87.9502 195.557C87.8232 195.966 88.049 196.46 88.4158 196.686C88.7685 196.926 89.3046 196.954 89.6432 196.686C89.9676 196.418 90.0382 196.065 90.01 195.797C89.9394 195.232 89.5444 195.105 89.5021 195.204H89.5162Z" fill="#455A64"/>
<path d="M133.702 175.143C133.899 175.185 134.28 174.112 134.562 172.757C134.83 171.402 134.901 170.258 134.703 170.216C134.506 170.174 134.125 171.247 133.843 172.602C133.575 173.957 133.504 175.101 133.702 175.143Z" fill="#F5F5F5"/>
<path d="M128.356 160.024C128.313 160.222 129.428 160.631 130.839 160.942C132.264 161.252 133.435 161.351 133.491 161.153C133.533 160.956 132.419 160.546 131.008 160.236C129.597 159.925 128.412 159.826 128.356 160.024Z" fill="#F5F5F5"/>
<path d="M124.645 168.621C124.49 168.763 124.955 169.483 125.661 170.245C126.366 171.007 127.071 171.515 127.212 171.374C127.354 171.233 126.902 170.513 126.197 169.751C125.491 168.989 124.786 168.494 124.645 168.621Z" fill="#F5F5F5"/>
<path d="M123.814 152.261C124.012 152.261 124.223 150.906 124.28 149.212C124.336 147.518 124.209 146.148 123.997 146.148C123.8 146.148 123.588 147.504 123.532 149.198C123.475 150.892 123.602 152.261 123.814 152.261Z" fill="#F5F5F5"/>
<path d="M113.007 138.583C113.007 138.78 114.333 138.936 115.969 138.936C117.606 138.936 118.918 138.752 118.918 138.54C118.918 138.343 117.592 138.188 115.955 138.188C114.319 138.188 113.007 138.371 113.007 138.583Z" fill="#F5F5F5"/>
<path d="M105.401 138.241C105.599 138.171 105.288 136.801 104.724 135.178C104.16 133.554 103.539 132.284 103.356 132.354C103.158 132.425 103.469 133.794 104.033 135.418C104.597 137.041 105.218 138.312 105.401 138.241Z" fill="#F5F5F5"/>
<path d="M108.251 155.21C108.435 155.309 109.182 154.222 109.93 152.81C110.678 151.384 111.143 150.156 110.96 150.057C110.777 149.958 110.029 151.031 109.281 152.457C108.533 153.883 108.068 155.111 108.251 155.21Z" fill="#F5F5F5"/>
<path d="M98.0096 149.311C98.2071 149.283 98.2353 148.295 98.0801 147.095C97.9108 145.895 97.6287 144.949 97.417 144.977C97.2195 145.005 97.1913 145.994 97.3465 147.194C97.5158 148.394 97.7979 149.339 98.0096 149.311Z" fill="#F5F5F5"/>
<path d="M99.2073 159.585C99.1791 159.783 100.138 160.079 101.324 160.22C102.523 160.376 103.51 160.333 103.538 160.136C103.567 159.938 102.607 159.642 101.422 159.501C100.223 159.345 99.2356 159.388 99.2073 159.585Z" fill="#F5F5F5"/>
<path d="M113.007 172.774C113.204 172.788 113.458 171.786 113.571 170.543C113.684 169.287 113.613 168.256 113.416 168.242C113.218 168.228 112.964 169.231 112.852 170.473C112.739 171.729 112.809 172.76 113.007 172.774Z" fill="#F5F5F5"/>
<path d="M101.607 176.699C101.452 176.826 102.157 177.956 103.187 179.198C104.217 180.455 105.176 181.358 105.346 181.231C105.501 181.104 104.796 179.975 103.766 178.732C102.736 177.476 101.776 176.572 101.621 176.699H101.607Z" fill="#F5F5F5"/>
<path d="M111.582 191.677C111.766 191.762 112.358 190.802 112.894 189.56C113.43 188.303 113.727 187.231 113.543 187.146C113.36 187.061 112.767 188.021 112.231 189.263C111.695 190.52 111.399 191.593 111.582 191.677Z" fill="#F5F5F5"/>
<path d="M98.6314 193.271C98.4339 193.313 98.4903 194.485 98.7725 195.897C99.0546 197.308 99.4356 198.424 99.6331 198.381C99.8306 198.339 99.7742 197.167 99.492 195.755C99.2098 194.344 98.8289 193.228 98.6314 193.271Z" fill="#F5F5F5"/>
<path d="M110.888 212.09C111.043 212.217 111.946 211.426 112.891 210.311C113.85 209.196 114.499 208.18 114.344 208.052C114.189 207.925 113.286 208.716 112.341 209.831C111.382 210.947 110.733 211.963 110.888 212.09Z" fill="#F5F5F5"/>
<path d="M110.253 219.259C110.225 219.457 111.34 219.796 112.75 220.022C114.161 220.248 115.332 220.262 115.374 220.064C115.403 219.866 114.288 219.528 112.877 219.302C111.467 219.076 110.296 219.062 110.253 219.259Z" fill="#F5F5F5"/>
<path d="M95.6832 209.62C95.5421 209.775 96.572 210.961 97.9828 212.274C99.3936 213.587 100.649 214.533 100.776 214.391C100.917 214.236 99.8873 213.064 98.4765 211.737C97.0658 210.424 95.8102 209.479 95.6832 209.634V209.62Z" fill="#F5F5F5"/>
<path d="M107.53 199.188C107.333 199.217 107.262 199.894 107.375 200.713C107.488 201.532 107.742 202.167 107.939 202.139C108.137 202.111 108.207 201.433 108.095 200.614C107.982 199.795 107.728 199.16 107.53 199.188Z" fill="#F5F5F5"/>
<path d="M95.8659 168.44C95.9223 168.638 96.8534 168.525 97.9397 168.2C99.026 167.875 99.8584 167.452 99.802 167.254C99.7455 167.056 98.8144 167.169 97.7281 167.494C96.6418 167.819 95.8095 168.242 95.8659 168.44Z" fill="#F5F5F5"/>
<path d="M86.0306 160.943C86.2281 160.915 86.1717 159.56 85.9036 157.922C85.6356 156.285 85.2547 154.986 85.0431 155.028C84.8455 155.057 84.902 156.412 85.17 158.049C85.4381 159.687 85.819 160.986 86.0306 160.943Z" fill="#F5F5F5"/>
<path d="M74.1093 167.791C74.2645 167.918 75.1956 167.057 76.1832 165.871C77.1707 164.685 77.8479 163.612 77.6927 163.485C77.5375 163.358 76.6064 164.219 75.6188 165.405C74.6313 166.591 73.9541 167.664 74.1093 167.791Z" fill="#F5F5F5"/>
<path d="M81.4755 173.566C81.2921 173.636 81.6166 174.893 82.2232 176.361C82.8158 177.829 83.4647 178.958 83.6481 178.888C83.8315 178.817 83.5071 177.561 82.9004 176.093C82.3079 174.624 81.6589 173.495 81.4755 173.566Z" fill="#F5F5F5"/>
<path d="M80.5003 189.545C80.6414 189.686 81.6712 188.867 82.7999 187.709C83.9285 186.552 84.7185 185.493 84.5775 185.352C84.4364 185.211 83.4065 186.029 82.2779 187.187C81.1492 188.345 80.3592 189.403 80.5003 189.545Z" fill="#F5F5F5"/>
<path d="M71.4576 190.308C71.6552 190.265 71.5564 189.037 71.2178 187.569C70.8933 186.101 70.456 184.943 70.2585 184.986C70.061 185.028 70.1597 186.256 70.4983 187.724C70.8228 189.192 71.2601 190.35 71.4576 190.308Z" fill="#F5F5F5"/>
<path d="M80.0784 204.496C80.2336 204.623 81.1083 203.832 82.1946 202.887C83.2668 201.927 84.1697 201.164 84.0569 200.981C83.944 200.811 82.8295 201.334 81.7149 202.336C80.5863 203.324 79.9373 204.369 80.0925 204.496H80.0784Z" fill="#F5F5F5"/>
<path d="M79.501 213.191C79.3741 213.346 80.2346 214.292 81.5749 215.069C82.9151 215.859 84.1707 216.142 84.2272 215.944C84.2977 215.746 83.2255 215.182 81.9417 214.433C80.6579 213.685 79.628 213.036 79.501 213.191Z" fill="#F5F5F5"/>
<path d="M67.8747 214.969C67.6772 214.969 67.4656 216.056 67.4092 217.425C67.3527 218.78 67.4797 219.896 67.6772 219.91C67.8747 219.91 68.0864 218.823 68.1428 217.453C68.1992 216.098 68.0723 214.983 67.8747 214.969Z" fill="#F5F5F5"/>
<path d="M72.1355 204.524C72.333 204.524 72.46 202.746 72.4176 200.572C72.3753 198.397 72.1778 196.633 71.9662 196.633C71.7687 196.633 71.6417 198.412 71.684 200.586C71.7263 202.76 71.9239 204.524 72.1355 204.524Z" fill="#F5F5F5"/>
<path d="M69.6519 174.75C69.5672 174.919 70.3008 175.484 71.4013 175.71C72.5017 175.95 73.4046 175.738 73.3905 175.54C73.3905 175.328 72.544 175.201 71.5564 174.99C70.5548 174.778 69.7365 174.566 69.6519 174.75Z" fill="#F5F5F5"/>
<path d="M73.7011 144.594C73.5036 144.622 73.5318 146.048 73.7576 147.799C73.9974 149.535 74.336 150.933 74.5476 150.905C74.7451 150.876 74.7169 149.451 74.4912 147.7C74.2513 145.964 73.9128 144.566 73.7011 144.594Z" fill="#F5F5F5"/>
<path d="M82.8297 141.022C82.6321 140.965 82.1666 141.925 81.7716 143.168C81.3765 144.41 81.2214 145.483 81.4048 145.539C81.6023 145.596 82.0678 144.636 82.4628 143.394C82.8579 142.151 83.0131 141.078 82.8297 141.022Z" fill="#F5F5F5"/>
<path d="M78.7381 133.301C78.6535 133.485 79.768 134.205 81.3199 134.656C82.8717 135.122 84.212 135.122 84.2261 134.925C84.2543 134.713 83.0128 134.402 81.5174 133.95C80.0219 133.513 78.8087 133.103 78.724 133.301H78.7381Z" fill="#F5F5F5"/>
<path d="M72.0204 136.887C72.2038 136.816 71.964 135.701 71.4843 134.388C70.9905 133.075 70.4403 132.073 70.2569 132.157C70.0735 132.228 70.3134 133.343 70.793 134.656C71.2868 135.969 71.837 136.971 72.0204 136.887Z" fill="#F5F5F5"/>
<path d="M58.393 144.751C58.52 144.906 59.6768 144.2 60.9888 143.17C62.3009 142.139 63.2602 141.179 63.1332 141.01C63.0063 140.854 61.8494 141.56 60.5374 142.591C59.2254 143.621 58.266 144.581 58.393 144.751Z" fill="#F5F5F5"/>
<path d="M63.1343 153.248C63.3318 153.248 63.5434 151.85 63.5998 150.1C63.6562 148.363 63.5293 146.938 63.3318 146.938C63.1343 146.938 62.9226 148.335 62.8662 150.086C62.8098 151.822 62.9367 153.248 63.1343 153.248Z" fill="#F5F5F5"/>
<path d="M58.4221 163.57C58.4363 163.768 59.5085 163.838 60.8205 163.725C62.1325 163.613 63.1624 163.344 63.1483 163.147C63.1342 162.949 62.062 162.878 60.7499 162.991C59.452 163.104 58.408 163.373 58.4221 163.57Z" fill="#F5F5F5"/>
<path d="M52.1585 162.737C52.3278 162.822 53.1319 161.481 53.4423 159.603C53.7668 157.725 53.4423 156.201 53.2448 156.215C53.0331 156.229 53.019 157.711 52.7087 159.476C52.4265 161.241 51.9609 162.652 52.1585 162.737Z" fill="#F5F5F5"/>
<path d="M53.3157 171.744C53.2734 171.941 54.1763 172.28 55.319 172.506C56.4618 172.732 57.4211 172.746 57.4634 172.549C57.5057 172.351 56.6028 172.012 55.4601 171.786C54.3174 171.56 53.358 171.546 53.3298 171.744H53.3157Z" fill="#F5F5F5"/>
<path d="M86.5967 128.022C86.7237 128.177 87.3021 127.867 87.6689 127.203C88.0357 126.54 87.9793 125.89 87.7818 125.862C87.5843 125.82 87.3303 126.3 87.02 126.85C86.7237 127.401 86.4556 127.881 86.5967 128.022Z" fill="#F5F5F5"/>
<path d="M82.6587 126.836C82.8421 126.921 83.2935 126.384 83.6745 125.622C84.0554 124.859 84.2106 124.168 84.0413 124.083C83.8579 123.998 83.4064 124.535 83.0255 125.297C82.6446 126.059 82.4894 126.751 82.6587 126.836Z" fill="#F5F5F5"/>
<path d="M98.0237 126.046C98.0378 126.243 98.6726 126.37 99.4345 126.314C100.196 126.258 100.803 126.046 100.789 125.848C100.775 125.65 100.14 125.523 99.378 125.58C98.6162 125.636 98.0096 125.848 98.0237 126.046Z" fill="#F5F5F5"/>
<path d="M73.0657 101.352C73.0657 101.352 73.2208 101.352 73.4889 101.282C73.7569 101.197 74.1379 101.056 74.5893 100.774C75.464 100.237 76.6914 99.0513 77.0441 97.1032C77.2134 96.1714 77.1993 95.1267 77.5237 94.1809C77.6789 93.715 77.9611 93.2915 78.3843 92.995C78.7935 92.6986 79.3437 92.5433 79.9221 92.3739C80.5005 92.2045 81.1495 92.0633 81.7561 91.6821C82.3769 91.301 82.8283 90.6516 83.0823 90.0022C83.5901 88.6893 83.6184 87.2352 84.3943 86.2611C86.1013 84.2847 89.6565 86.2046 91.6881 83.9035C92.5486 82.7883 92.5769 81.5318 92.9296 80.5718C93.2399 79.5978 93.8748 78.8354 94.5802 78.3131C96.0192 77.2543 97.6134 77.3531 98.5586 77.6213C99.5321 77.9037 99.9835 78.2848 100.012 78.2284C100.012 78.2143 99.9271 78.1013 99.7155 77.9319C99.4897 77.7625 99.1511 77.5366 98.6433 77.3531C97.6839 76.9861 95.9345 76.7743 94.2839 77.8896C93.4798 78.426 92.7462 79.2731 92.3511 80.3742C91.9561 81.4189 91.8574 82.633 91.1661 83.48C90.4748 84.327 89.191 84.4682 87.893 84.4964C87.23 84.5247 86.5387 84.5247 85.8192 84.68C85.0997 84.8211 84.352 85.1882 83.83 85.8094C82.8424 87.1081 82.8847 88.6187 82.4192 89.7622C82.2076 90.341 81.869 90.821 81.4034 91.1174C80.9237 91.428 80.3453 91.5833 79.7528 91.7527C79.1744 91.9221 78.5536 92.1057 78.0175 92.5009C77.4814 92.8821 77.1287 93.4609 76.9594 94.0115C76.6208 95.1409 76.6914 96.1573 76.5503 97.0467C76.3105 98.8114 75.2383 99.969 74.4482 100.562C73.6441 101.169 73.0657 101.31 73.0939 101.381L73.0657 101.352Z" fill="#455A64"/>
<path d="M101.467 404.847C101.467 404.847 101.495 404.692 101.509 404.381C101.523 404.042 101.552 403.591 101.58 403.026C101.622 401.798 101.693 400.047 101.777 397.845C101.932 393.285 102.144 386.791 102.412 378.773C102.976 362.622 103.738 340.388 104.585 315.838C105.389 291.245 105.897 268.983 106.01 252.861C106.08 244.8 106.08 238.278 106.01 233.774C105.981 231.558 105.953 229.821 105.939 228.579C105.925 228.014 105.911 227.577 105.897 227.224C105.897 226.913 105.869 226.758 105.854 226.758C105.854 226.758 105.826 226.913 105.812 227.224L105.784 228.579C105.77 229.807 105.742 231.558 105.713 233.774C105.657 238.334 105.572 244.842 105.473 252.861C105.22 268.968 104.641 291.231 103.837 315.81C103.033 340.388 102.285 362.637 101.876 378.758C101.664 386.819 101.537 393.342 101.467 397.845C101.439 400.061 101.425 401.798 101.41 403.04C101.41 403.605 101.41 404.042 101.41 404.395C101.41 404.706 101.41 404.861 101.439 404.861L101.467 404.847Z" fill="#263238"/>
<path d="M42.1579 406.71C42.3554 406.753 49.8467 366.42 58.8898 316.656C67.933 266.865 75.0998 226.489 74.9023 226.461C74.7048 226.433 67.2135 266.738 58.1703 316.529C49.1272 366.293 41.9604 406.682 42.1579 406.724V406.71Z" fill="#263238"/>
<path d="M89.6836 238.109C89.6836 238.109 89.9657 238.292 90.5301 238.236C91.0944 238.179 91.9126 237.84 92.5475 237.022C93.2106 236.217 93.5632 235.045 93.8172 233.803C94.0852 232.56 94.3392 231.191 94.5508 229.751C94.9881 226.857 95.1857 224.203 95.228 222.297C95.2844 220.377 95.1998 219.191 95.101 219.191C94.8894 219.191 94.6919 223.907 93.8172 229.638C93.6056 231.078 93.3798 232.433 93.1541 233.676C92.9425 234.904 92.6603 235.977 92.1384 236.711C91.6305 237.445 90.9533 237.812 90.4736 237.953C89.9798 238.094 89.6836 238.038 89.6836 238.109Z" fill="#263238"/>
<path d="M92.4353 220.278C92.3647 220.349 92.4776 220.589 92.3647 220.913C92.2519 221.252 91.9133 221.506 91.5324 221.238C91.1373 220.984 91.2361 220.574 91.5183 220.334C91.7722 220.094 92.0402 220.123 92.0826 220.024C92.139 219.953 91.8145 219.657 91.2643 219.897C91.0104 220.01 90.7141 220.25 90.6153 220.673C90.5166 221.111 90.7564 221.605 91.1373 221.845C91.5183 222.099 92.0685 222.141 92.4212 221.873C92.7739 221.619 92.8867 221.252 92.8867 220.984C92.8867 220.391 92.4917 220.193 92.4494 220.278H92.4353Z" fill="#263238"/>
</svg>
