<svg width="375" height="428" viewBox="0 0 375 428" fill="none" xmlns="http://www.w3.org/2000/svg">
<g clip-path="url(#clip0_474_1062)">
<path d="M316.776 413.727L176.347 413.082C159.454 413.008 145.825 399.252 145.899 382.357L147.388 30.2765C147.462 13.3713 161.218 -0.268973 178.122 -0.195013L318.551 0.449494C335.445 0.523454 349.073 14.28 348.999 31.1745L347.51 383.266C347.436 400.171 333.68 413.811 316.776 413.727Z" fill="#455A64"/>
<path d="M318.351 12.6096L291.125 12.4828C287.469 12.4616 284.501 15.5468 284.49 19.361L284.469 24.2952C284.458 28.1094 281.479 31.1946 277.834 31.1735L224.766 30.9305C221.111 30.9094 218.163 27.803 218.184 23.9888L218.206 19.0546C218.216 15.2404 215.279 12.1235 211.624 12.113L202.052 12.0707L178.217 11.9651C166.385 11.9122 156.749 21.4636 156.696 33.2972L155.238 376.957C155.186 388.791 164.736 398.416 176.559 398.469L316.713 399.113C328.546 399.166 338.181 389.615 338.234 377.781L339.692 34.1213C339.745 22.2877 330.194 12.6624 318.372 12.6096H318.351Z" fill="#FAFAFA"/>
<path d="M156.506 74.5352H179.474L199.981 95.0326L178.661 116.344L156.749 94.4304L156.506 74.5352Z" fill="#EBEBEB"/>
<path d="M204.65 86.0412L193.145 74.5352H219.039L204.65 86.0412Z" fill="#EBEBEB"/>
<path d="M214.719 95.4355L234.887 75.2656H305.355C305.355 75.2656 316.142 123.445 273.703 154.371L214.719 95.425V95.4355Z" fill="#EBEBEB"/>
<path d="M206.087 101.871L184.514 123.457L244.216 183.164L265.79 160.859L206.087 101.871Z" fill="#EBEBEB"/>
<path d="M156.242 135.678L169.765 121.647L156.506 108.387L156.242 135.678Z" fill="#EBEBEB"/>
<path d="M177.859 129.922L157.088 150.694V179.56L199.982 223.449L236.304 189.629L177.859 129.922Z" fill="#EBEBEB"/>
<path d="M281.723 160.437C281.723 160.437 326.212 127.81 311.833 75.2773H339.502L339.164 223.577L281.723 160.447V160.437Z" fill="#EBEBEB"/>
<path d="M273.386 168.992L251.865 191.465L317.843 257.438L338.022 236.053L273.386 168.992Z" fill="#EBEBEB"/>
<path d="M242.874 197.617L209.066 231.195L276.693 298.361L310.448 265.724L242.874 197.617Z" fill="#EBEBEB"/>
<path d="M225.156 365.854L276.851 312.254L326.03 362.388L225.156 365.854Z" fill="#EBEBEB"/>
<path d="M284.912 305.343L338.751 252.008C338.751 254.375 338.286 362.652 338.286 362.652L284.912 305.354V305.343Z" fill="#EBEBEB"/>
<path d="M238.817 275.367L269.36 305.913L209.066 368.155L181.195 334.725L238.817 275.367Z" fill="#EBEBEB"/>
<path d="M156.295 339.069C159.179 338.784 233.039 269.61 233.039 269.61L156.295 190.082V339.069Z" fill="#EBEBEB"/>
<path d="M155.229 354.834L173.009 339.07L197.636 368.158H155.229V357.032" fill="#EBEBEB"/>
<path d="M178.239 53.5949C178.133 53.7005 175.777 51.6508 172.967 49.0094C172.967 48.2064 172.967 48.7875 172.967 48.6079H172.977L172.998 48.5762L173.03 48.5445L173.094 48.4811L173.22 48.3543L173.484 48.1113C173.654 47.9528 173.823 47.7943 173.992 47.6358C174.319 47.3294 174.647 47.0336 174.964 46.7483C175.545 46.2306 176.094 45.7446 176.622 45.2691C177.573 44.4344 178.196 43.959 178.249 44.0118C178.302 44.0646 177.774 44.6563 176.886 45.5544C176.379 46.051 175.862 46.5687 175.312 47.1181L174.372 48.0268L173.865 48.5022L173.611 48.7452L173.484 48.872L173.421 48.9354L173.389 48.9671H173.368V48.9882H173.358C173.358 48.8192 173.358 49.3897 173.358 48.5973C176.168 51.2493 178.365 53.4787 178.26 53.5843L178.239 53.5949Z" fill="#263238"/>
<path d="M324.268 45.5317C324.268 46.1657 323.751 46.6728 323.127 46.6728C322.504 46.6728 321.986 46.1551 321.986 45.5317C321.986 44.9083 322.504 44.3906 323.127 44.3906C323.751 44.3906 324.268 44.9083 324.268 45.5317Z" fill="#263238"/>
<path d="M323.941 48.6609C324.385 49.1047 324.385 49.8337 323.941 50.2775C323.498 50.7213 322.769 50.7213 322.325 50.2775C321.881 49.8337 321.881 49.1047 322.325 48.6609C322.769 48.2172 323.498 48.2172 323.941 48.6609Z" fill="#263238"/>
<path d="M324.268 53.4145C324.268 54.0485 323.751 54.5556 323.127 54.5556C322.504 54.5556 321.986 54.0379 321.986 53.4145C321.986 52.7912 322.504 52.2734 323.127 52.2734C323.751 52.2734 324.268 52.7912 324.268 53.4145Z" fill="#263238"/>
<path d="M274.759 50.2148H225.336V54.3355H274.759V50.2148Z" fill="#263238"/>
<path d="M269.392 124.185C269.392 104.935 249.161 92.7311 228.538 102.388C223.879 104.565 220.022 108.252 217.688 112.795C212.5 122.843 214.793 134.328 219.494 143.859L235.542 184.547C237.856 190.411 246.171 190.379 248.432 184.494L264.173 143.594C269.625 131.137 269.392 124.196 269.392 124.196V124.185ZM250.016 140.942C236.155 149.004 222.104 134.106 229.7 119.399C230.714 117.444 232.257 115.796 234.106 114.729C247.967 106.667 262.029 121.565 254.422 136.272C253.408 138.227 251.865 139.875 250.016 140.942Z" fill="#8672E7"/>
<path d="M724.458 261.969H99.584V353.664H724.458V261.969Z" fill="#8672E7"/>
<g opacity="0.5">
<path d="M724.458 261.969H99.584V353.664H724.458V261.969Z" fill="black"/>
</g>
<path d="M187.594 413.177C220.797 410.943 245.901 382.213 243.667 349.008C241.433 315.803 212.705 290.696 179.502 292.93C146.299 295.165 121.194 323.895 123.429 357.1C125.663 390.305 154.391 415.412 187.594 413.177Z" fill="#343F44"/>
<path d="M123.313 352.031C123.313 352.031 123.313 352.133 123.313 352.189C122.829 385.461 149.42 412.831 182.69 413.304C215.96 413.789 243.328 387.196 243.812 353.924C243.812 353.867 243.812 353.822 243.812 353.766L123.336 352.031H123.313Z" fill="#343F44"/>
<path d="M141.255 352.448C140.917 375.809 159.579 395.024 182.938 395.362C206.296 395.7 225.51 377.036 225.848 353.676C226.186 330.316 207.524 311.1 184.165 310.762C160.806 310.424 141.592 329.088 141.255 352.448Z" fill="#FAFAFA"/>
<path d="M184.165 310.753C160.806 310.416 141.592 329.079 141.254 352.439L225.848 353.656C226.186 330.296 207.523 311.08 184.165 310.742V310.753Z" fill="#E0E0E0"/>
<path d="M157.788 352.687C157.585 366.913 168.949 378.615 183.185 378.829C197.41 379.032 209.123 367.667 209.326 353.43C209.528 339.205 198.164 327.491 183.928 327.288C169.704 327.085 158.002 338.45 157.788 352.687Z" fill="#343F44"/>
<path d="M262.531 210.382C262.531 210.382 173.804 216.926 140.917 224.304C117.739 229.508 73.0486 238.473 73.5892 266.598L77.137 286.749C77.137 286.749 60.5584 294.318 60.5584 313.646C60.5584 332.974 56.5151 362.946 95.2023 364.14C101.577 364.342 113.696 364.14 113.696 364.14C113.696 364.14 106.262 281.725 181.981 279.303C259.006 276.848 253.893 363.385 253.893 363.385H575.352C575.352 363.385 562.163 279.078 645.079 278.966C727.994 278.842 715.38 363.937 715.38 363.937C715.38 363.937 745.879 366.573 760.07 340.937C774.261 315.301 770.567 297.055 770.567 297.055L770.094 280.847C769.936 275.327 765.521 270.878 760.014 270.664C760.014 270.664 765.555 229.857 757.052 222.795C748.549 215.733 701.955 173.134 701.955 173.134L704.174 171.737C707.891 169.406 707.249 163.797 703.093 162.366C685.399 156.284 650.417 144.243 642.195 141.371C640.957 140.943 639.684 140.673 638.377 140.572C633.467 140.2 619.58 139.31 594.07 139.04C562.997 138.713 439.625 139.04 439.625 139.04C439.625 139.04 397.165 142.531 373.514 152.95C348.646 163.898 262.543 210.382 262.543 210.382H262.531Z" fill="#8672E7"/>
<g opacity="0.4">
<path d="M83.0507 311.416C79.8296 310.763 74.8966 310.695 72.4413 312.88C70.6168 314.502 70.1325 317.115 69.8622 319.548C69.4793 322.871 69.2878 326.284 70.0874 329.539C70.8758 332.794 72.7792 335.903 75.7188 337.502C78.6583 339.101 82.7016 338.842 84.9879 336.398C87.0828 334.168 87.3193 330.811 87.263 327.748C87.1841 323.4 87.5333 319.717 86.7336 315.448C86.576 314.637 86.148 313.601 85.6299 312.97C84.7739 311.934 84.1207 311.495 83.062 311.427" fill="black"/>
</g>
<path d="M77.1376 286.749C86.5532 286.771 95.6984 286.23 105.091 285.6C106.105 285.532 107.209 285.42 107.952 284.732C108.853 283.899 108.921 282.525 108.932 281.297C108.977 276.251 108.729 270.507 104.9 267.218C102.557 265.213 99.3475 264.582 96.2841 264.289C88.7269 263.58 80.7979 264.165 73.5898 266.576L77.1376 286.726V286.749Z" fill="#FAFAFA"/>
<path d="M272.725 360.808C272.725 360.808 272.691 360.537 272.646 360.008C272.612 359.456 272.556 358.668 272.488 357.643C272.376 355.548 272.207 352.484 271.993 348.553C271.768 344.611 271.509 339.779 270.945 334.192C270.36 328.617 269.504 322.264 267.623 315.461C265.731 308.669 262.836 301.438 258.557 294.331C254.254 287.28 248.6 280.229 241.032 274.777C225.827 263.964 205.295 257.848 183.829 257.589C162.295 257.33 141.842 264.133 127.031 275.476C119.553 281.029 113.358 287.516 108.594 294.297C103.785 301.055 100.271 308.005 97.8047 314.605C95.3044 321.205 93.9866 327.502 93.2433 333.043C92.4324 338.596 92.5563 343.451 92.6914 347.393C92.9955 351.324 93.3447 354.376 93.7952 356.404C93.9754 357.417 94.1218 358.194 94.2119 358.735C94.302 359.264 94.3358 359.535 94.3358 359.535C94.3358 359.535 94.2682 359.276 94.1556 358.746C94.0429 358.206 93.8853 357.429 93.6713 356.426C93.187 354.399 92.8041 351.346 92.4549 347.404C92.286 343.462 92.1283 338.585 92.9054 333.009C93.6262 327.434 94.9102 321.115 97.3992 314.47C99.8657 307.836 103.368 300.83 108.189 294.027C112.964 287.201 119.181 280.657 126.705 275.059C141.594 263.627 162.182 256.756 183.84 257.015C205.431 257.285 226.053 263.435 241.358 274.349C248.995 279.868 254.671 286.987 258.985 294.083C263.276 301.235 266.17 308.523 268.04 315.348C269.909 322.196 270.731 328.572 271.283 334.158C271.824 339.756 272.049 344.588 272.229 348.542C272.398 352.484 272.522 355.536 272.612 357.643C272.657 358.668 272.691 359.456 272.714 360.008C272.736 360.537 272.725 360.819 272.725 360.819V360.808Z" fill="white"/>
<path d="M275.772 362.227C275.772 362.227 275.75 362.002 275.738 361.551L275.671 359.558C275.615 357.789 275.536 355.176 275.434 351.775C275.243 344.949 274.95 334.947 274.59 322.242C274.241 309.525 273.824 294.083 273.34 276.4C273.216 271.973 273.092 267.411 272.968 262.715C272.81 260.372 273.058 257.973 273.272 255.562C273.441 254.357 273.61 253.152 273.79 251.935C274.038 250.73 274.286 249.525 274.533 248.297C275.671 243.454 277.326 238.599 279.545 233.869C281.775 229.149 284.422 224.486 287.801 220.161L287.823 220.127L287.857 220.105C305.055 209.269 323.751 197.488 343.528 185.031C348.473 181.911 353.485 178.757 358.564 175.558C363.542 172.179 368.926 169.295 374.478 166.671C380.042 164.058 385.82 161.771 391.755 159.767C394.717 158.73 397.747 157.874 400.776 156.973C403.84 156.196 406.892 155.329 410.023 154.698C422.007 152.04 434.08 150.722 445.906 150.17C457.743 149.618 469.355 149.652 480.64 150.283L480.967 150.305L480.899 150.632C475.572 174.465 470.549 196.947 465.942 217.548V217.593L465.908 217.638C463.104 222.256 460.863 227.111 459.196 232.01C457.597 236.921 456.56 241.967 456.921 246.889C457.304 251.834 457.439 256.677 457.563 261.363C457.653 266.06 457.743 270.621 457.833 275.037C458.092 292.72 458.16 308.14 458.205 320.856C458.216 333.562 458.227 343.541 458.238 350.367C458.227 353.768 458.216 356.37 458.205 358.15C458.205 359.028 458.193 359.682 458.182 360.143C458.182 360.594 458.16 360.819 458.16 360.819C458.16 360.819 458.148 360.594 458.137 360.143C458.137 359.682 458.126 359.017 458.115 358.15C458.115 356.381 458.092 353.768 458.07 350.367C458.025 343.541 457.968 333.55 457.901 320.856C457.811 308.151 457.698 292.72 457.405 275.048C457.315 270.633 457.214 266.071 457.112 261.374C456.977 256.677 456.831 251.857 456.448 246.923C456.076 241.911 457.112 236.809 458.723 231.853C460.401 226.908 462.631 222.031 465.469 217.357L465.435 217.435C470.019 196.823 475.031 174.341 480.336 150.508L480.595 150.857C469.343 150.226 457.732 150.204 445.928 150.756C434.125 151.308 422.097 152.626 410.147 155.272C407.027 155.892 403.986 156.771 400.934 157.536C397.916 158.437 394.897 159.282 391.947 160.318C386.034 162.312 380.267 164.587 374.726 167.189C369.196 169.802 363.835 172.674 358.891 176.02C353.811 179.219 348.799 182.372 343.855 185.481C324.055 197.927 305.348 209.697 288.139 220.51L288.195 220.454C284.861 224.712 282.214 229.363 279.996 234.049C277.777 238.746 276.133 243.567 274.995 248.376C272.461 258.029 273.734 267.558 273.756 276.377C274.195 294.061 274.578 309.503 274.894 322.219C275.198 334.924 275.434 344.926 275.592 351.752C275.66 355.154 275.716 357.767 275.761 359.535C275.772 360.414 275.784 361.078 275.795 361.529C275.795 361.979 275.795 362.205 275.795 362.205L275.772 362.227Z" fill="#263238"/>
<path d="M292.568 220.216L464.583 217.051L576.534 215.001L613.453 193.691C616.437 191.968 617.237 188.003 615.153 185.255L592.177 155.057C589.779 151.904 586.062 150.045 582.109 150.011L456.89 148.998C456.89 148.998 409.734 146.261 372.59 167.064C333.486 188.96 292.568 220.228 292.568 220.228V220.216Z" fill="#263238"/>
<path d="M371.407 152.105C371.407 152.105 380.035 156.036 374.415 159.686C368.806 163.324 281.655 218.278 281.655 218.278L261.619 209.211C297.108 189.433 332.957 170.24 371.407 152.117V152.105Z" fill="#455A64"/>
<path d="M284.472 219.652C284.472 219.652 284.292 219.708 283.931 219.787L282.343 220.136C280.924 220.429 278.863 220.857 276.228 221.398C270.912 222.456 263.208 223.943 253.657 225.576C234.556 228.865 208.021 232.695 178.547 235.252C171.181 235.894 163.973 236.423 157.013 236.874C150.052 237.335 143.34 237.752 136.965 238.338C124.216 239.453 112.784 241.311 103.504 244.071C94.2007 246.74 87.0827 250.165 82.4087 252.868C80.0097 254.129 78.3091 255.368 77.0927 256.112C76.5071 256.483 76.0565 256.776 75.7187 256.979C75.4033 257.17 75.2344 257.261 75.2344 257.261C75.2344 257.261 75.3808 257.137 75.6736 256.934C76.0002 256.709 76.4395 256.405 77.0139 256.01C78.2077 255.233 79.8971 253.96 82.2848 252.665C86.9363 249.894 94.0543 246.391 103.38 243.666C112.683 240.838 124.137 238.935 136.909 237.797C143.295 237.2 150.007 236.761 156.967 236.299C163.928 235.837 171.125 235.308 178.49 234.666C207.953 232.121 234.477 228.359 253.59 225.171C263.152 223.583 270.855 222.164 276.194 221.172C278.841 220.677 280.902 220.283 282.332 220.012C283.019 219.888 283.548 219.798 283.931 219.719C284.292 219.663 284.483 219.641 284.483 219.641L284.472 219.652Z" fill="#263238"/>
<path d="M559.145 325.945C559.145 326.103 494.43 326.238 414.611 326.238C334.793 326.238 270.066 326.103 270.066 325.945C270.066 325.788 334.77 325.652 414.611 325.652C494.452 325.652 559.145 325.788 559.145 325.945Z" fill="#263238"/>
<path d="M106.003 297.652C106.003 297.81 96.846 297.945 85.5609 297.945C74.2757 297.945 65.1191 297.81 65.1191 297.652C65.1191 297.495 74.2644 297.359 85.5609 297.359C96.8573 297.359 106.003 297.495 106.003 297.652Z" fill="#263238"/>
<path d="M314.148 214.391C314.148 214.391 369.133 174.676 390.825 166.792C411.762 159.178 422.675 157.263 442.34 156.711C461.137 156.182 472.591 156.7 472.591 156.7L458.063 212.623L314.148 214.414V214.391Z" fill="#455A64"/>
<path d="M306.105 214.573C306.105 211.093 307.986 207.882 311.016 206.17L323.641 199.074C327.245 197.047 331.3 195.988 335.433 195.988C338.001 195.988 340.535 196.394 342.934 197.182C348.329 198.951 351.922 204.075 352.147 209.752C352.451 217.637 346.133 224.203 338.238 224.203H315.735C310.419 224.203 306.105 219.889 306.105 214.573Z" fill="#8672E7"/>
<path d="M306.106 214.574C306.106 214.574 306.14 215.002 306.252 215.79C306.354 216.579 306.647 217.75 307.356 219.09C308.099 220.408 309.338 221.872 311.23 222.897C312.176 223.393 313.28 223.765 314.474 223.922C315.668 224.069 316.986 223.979 318.36 223.99C323.856 223.967 330.388 223.956 337.63 223.922C339.432 223.922 341.245 223.708 342.991 223.044C344.737 222.391 346.37 221.366 347.755 220.014C349.129 218.662 350.267 217.007 350.965 215.137C351.675 213.267 351.956 211.217 351.81 209.179C351.494 205.079 349.309 201.294 346.122 199.098C344.545 197.971 342.732 197.329 340.907 196.901C339.083 196.462 337.247 196.259 335.456 196.259C331.864 196.259 328.474 197.059 325.568 198.377C324.115 199.03 322.786 199.852 321.468 200.562C320.162 201.294 318.9 201.992 317.706 202.657C315.307 203.986 313.145 205.18 311.23 206.25C309.327 207.275 308.088 208.751 307.367 210.068C306.635 211.397 306.365 212.58 306.252 213.369C306.14 214.168 306.151 214.585 306.117 214.585C306.117 214.585 306.061 214.157 306.14 213.346C306.219 212.546 306.455 211.341 307.176 209.956C307.885 208.593 309.147 207.039 311.084 205.957C312.987 204.876 315.139 203.648 317.515 202.297C318.709 201.621 319.959 200.911 321.254 200.168C322.561 199.447 323.89 198.613 325.376 197.938C328.327 196.575 331.796 195.73 335.468 195.719C337.303 195.719 339.184 195.921 341.054 196.361C342.912 196.789 344.827 197.453 346.471 198.636C349.794 200.922 352.091 204.876 352.407 209.145C352.564 211.274 352.272 213.414 351.528 215.362C350.796 217.311 349.614 219.045 348.172 220.442C346.73 221.85 345.018 222.92 343.205 223.585C341.392 224.272 339.466 224.497 337.641 224.474C330.399 224.452 323.878 224.429 318.371 224.407C316.997 224.384 315.702 224.452 314.44 224.294C313.19 224.125 312.053 223.72 311.084 223.19C309.136 222.098 307.897 220.555 307.165 219.203C306.466 217.818 306.207 216.612 306.14 215.813C306.072 215.002 306.117 214.574 306.117 214.574H306.106Z" fill="#263238"/>
<path d="M455.651 220.217C455.651 220.217 455.561 220.239 455.392 220.25C455.19 220.25 454.931 220.273 454.626 220.284C453.906 220.295 452.926 220.318 451.687 220.352C449.085 220.397 445.402 220.464 440.886 220.543C431.763 220.712 419.172 221.05 405.251 221.433C391.33 221.816 378.727 222.086 369.605 222.143C365.043 222.176 361.349 222.176 358.793 222.143C357.554 222.12 356.574 222.109 355.853 222.098L355.087 222.075C354.918 222.075 354.828 222.052 354.828 222.041C354.828 222.03 354.918 222.019 355.087 222.007C355.29 222.007 355.549 221.985 355.853 221.974C356.574 221.962 357.554 221.94 358.793 221.906C361.394 221.861 365.077 221.793 369.593 221.715C378.716 221.546 391.319 221.208 405.24 220.825C419.16 220.442 431.763 220.172 440.886 220.115C445.447 220.081 449.142 220.081 451.698 220.115C452.937 220.138 453.917 220.149 454.638 220.16C454.942 220.16 455.19 220.183 455.404 220.183C455.573 220.183 455.663 220.205 455.663 220.217H455.651Z" fill="white"/>
<path d="M419.522 180.726C419.589 180.872 407.921 186.008 393.471 192.203C379.021 198.398 367.252 203.287 367.196 203.14C367.128 202.994 378.796 197.858 393.246 191.663C407.696 185.479 419.466 180.579 419.522 180.726Z" fill="white"/>
<path d="M139.859 227.885C139.859 227.885 139.634 227.953 139.195 228.009C138.699 228.077 138.068 228.155 137.28 228.257C136.446 228.347 135.433 228.482 134.262 228.674C133.09 228.865 131.75 229.034 130.286 229.327C127.346 229.834 123.877 230.611 120.059 231.625C116.264 232.683 112.119 234.001 107.884 235.646C103.65 237.324 99.7189 239.16 96.2163 240.973C92.7248 242.82 89.6614 244.611 87.1498 246.244C85.8771 247.022 84.7734 247.81 83.7935 248.475C82.8024 249.128 81.969 249.725 81.3045 250.22C80.6625 250.671 80.1444 251.043 79.739 251.336C79.3786 251.583 79.1759 251.707 79.1646 251.696C79.1533 251.685 79.3223 251.527 79.6602 251.245C80.0543 250.93 80.5499 250.536 81.1694 250.04C81.8226 249.511 82.6335 248.891 83.6133 248.204C84.5819 247.517 85.6744 246.706 86.9358 245.895C89.4249 244.217 92.4883 242.381 95.9685 240.5C99.4712 238.653 103.424 236.783 107.682 235.105C111.95 233.449 116.106 232.131 119.935 231.106C123.776 230.115 127.267 229.383 130.229 228.921C131.705 228.651 133.056 228.505 134.228 228.358C135.41 228.189 136.424 228.099 137.257 228.043C138.046 227.986 138.676 227.941 139.183 227.896C139.623 227.874 139.859 227.863 139.859 227.896V227.885Z" fill="white"/>
<path d="M340.975 201.316C340.975 201.316 340.637 200.876 339.894 200.268C339.151 199.671 337.878 198.984 336.177 198.77C334.466 198.545 332.404 198.838 330.174 199.423C327.933 199.986 325.523 200.775 323.079 201.834C318.18 203.94 314.193 206.745 311.546 209.009C308.866 211.261 307.458 212.917 307.368 212.838C307.334 212.816 307.672 212.388 308.314 211.644C308.967 210.912 309.947 209.876 311.264 208.704C313.866 206.339 317.876 203.444 322.842 201.304C325.32 200.234 327.764 199.446 330.039 198.905C332.292 198.342 334.443 198.083 336.234 198.365C338.024 198.646 339.32 199.423 340.052 200.11C340.423 200.448 340.66 200.764 340.806 200.978C340.942 201.203 341.009 201.327 340.987 201.338L340.975 201.316Z" fill="white"/>
<path d="M161.708 173.109C157.214 148.465 154.184 144.68 151.628 136.199C149.116 127.819 145.039 122.209 140.005 120.272C136.603 118.966 119.664 112.85 113.751 114.877C107.185 117.13 101.453 120.407 97.3867 123.099C93.4335 125.724 90.4377 129.553 88.8496 134.025L79.7832 159.446L95.641 175.272L103.592 158.376L112.22 178.606L110.947 199.049L160.435 212.362C164.94 205.154 164.264 187.109 161.708 173.132V173.109Z" fill="#8672E7"/>
<g opacity="0.2">
<path d="M148.825 146.234C146.64 159.063 146.29 160.831 144.105 173.66C143.351 178.064 141.166 184.935 138.024 188.111C135.704 190.465 133.417 192.741 130.196 193.507C127.189 194.216 122.639 194.295 119.812 193.045C116.985 191.795 114.586 186.321 115.746 183.46C119.936 184.361 121.242 185.757 124.858 183.46C128.011 181.455 132.494 177.017 134.206 173.694C141.425 159.728 143.407 159.221 148.802 146.223" fill="black"/>
</g>
<path d="M113.008 171.082C112.94 171.127 112.118 169.809 110.823 167.669C109.438 165.405 107.67 162.533 105.721 159.357C103.728 156.203 101.914 153.365 100.495 151.123C99.1437 149.017 98.3328 147.71 98.4004 147.665C98.4342 147.643 98.682 147.936 99.11 148.499C99.5379 149.051 100.124 149.873 100.844 150.898C102.286 152.948 104.201 155.82 106.217 159.053C108.233 162.296 109.967 165.281 111.172 167.466C111.78 168.559 112.253 169.46 112.569 170.08C112.884 170.71 113.042 171.059 113.008 171.082Z" fill="#263238"/>
<path d="M147.54 194.094C147.54 194.094 147.134 194.285 146.38 194.533C145.997 194.657 145.535 194.803 144.972 194.927C144.42 195.051 143.789 195.22 143.08 195.322C141.672 195.581 139.971 195.738 138.068 195.772C136.176 195.772 134.081 195.626 131.93 195.243C129.779 194.837 127.774 194.24 125.994 193.565C124.237 192.866 122.694 192.112 121.467 191.368C120.836 191.03 120.307 190.647 119.834 190.332C119.361 190.028 118.967 189.724 118.662 189.476C118.032 188.98 117.705 188.687 117.728 188.654C117.795 188.564 119.181 189.656 121.67 191.008C122.908 191.695 124.44 192.393 126.186 193.058C127.943 193.688 129.914 194.263 132.031 194.657C134.149 195.029 136.198 195.186 138.068 195.22C139.938 195.22 141.616 195.108 143.012 194.894C145.817 194.499 147.495 193.97 147.529 194.083L147.54 194.094Z" fill="#263238"/>
<path d="M127.684 155.693C127.594 156.132 122.278 166.72 122.278 166.72L97.1846 153.497L94.628 142.684C94.2225 140.994 93.1864 139.53 91.7335 138.584C90.1905 137.581 88.2984 137.266 86.5076 137.694L79.1081 140.724C78.4886 140.972 78.0156 141.501 77.8917 142.154C77.7903 142.706 77.9255 143.236 78.8715 143.157C80.7074 143.01 84.5367 142.605 84.5367 142.605L82.7909 148.766C82.3292 150.377 82.5094 152.111 83.2865 153.598L84.4015 155.727L86.8455 159.68L86.8005 159.714C86.8005 159.714 111.195 184.775 124.891 186.397C133.124 187.377 142.449 164.298 142.449 164.298L127.706 155.67L127.684 155.693Z" fill="#FFC7B1"/>
<path d="M84.3125 143.031C84.3125 143.031 84.504 142.772 84.9207 142.49C85.3374 142.22 86.0019 141.871 86.8241 141.905C87.6688 141.95 88.2882 142.502 88.5022 142.986C88.7275 143.493 88.581 143.831 88.5473 143.819C88.4797 143.819 88.5247 143.493 88.277 143.11C88.0404 142.738 87.4886 142.31 86.8015 142.276C86.1033 142.243 85.4838 142.513 85.0446 142.727C84.6053 142.941 84.335 143.087 84.3125 143.042V143.031Z" fill="#AA6550"/>
<path d="M87.477 146.873C87.477 146.873 87.3193 146.67 87.0715 146.366C86.835 146.073 86.4408 145.701 85.9115 145.499C85.3821 145.285 84.8415 145.285 84.4698 145.341C84.0869 145.397 83.8617 145.476 83.8279 145.431C83.8053 145.397 84.0081 145.217 84.4135 145.082C84.8077 144.958 85.4272 144.913 86.0466 145.15C86.666 145.397 87.0828 145.848 87.2855 146.22C87.4995 146.591 87.522 146.85 87.477 146.873Z" fill="#AA6550"/>
<path d="M132.887 122.277L126.096 154.479L144.105 165.303L151.02 145.513C151.02 145.513 148.159 121.488 132.887 122.277Z" fill="#8672E7"/>
<path d="M142.595 122.852C142.595 122.852 142.449 122.964 142.133 123.144C141.818 123.313 141.367 123.561 140.759 123.865C139.565 124.473 137.82 125.33 135.623 126.309C131.242 128.247 124.991 130.725 117.716 131.952C110.44 133.191 103.637 132.617 98.9973 131.322C96.6659 130.691 94.8413 129.981 93.625 129.396C93.0055 129.125 92.555 128.855 92.2397 128.697C91.9243 128.528 91.7666 128.427 91.7779 128.416C91.8004 128.371 92.4762 128.686 93.7151 129.193C94.954 129.711 96.7785 130.353 99.0986 130.927C103.716 132.099 110.418 132.606 117.614 131.378C124.811 130.162 131.04 127.774 135.454 125.938C137.662 125.014 139.441 124.214 140.658 123.674C141.885 123.122 142.561 122.829 142.584 122.874L142.595 122.852Z" fill="#EBEBEB"/>
<path d="M147.337 126.399C147.337 126.399 147.18 126.546 146.842 126.771C146.448 127.03 145.952 127.346 145.344 127.728C144.691 128.145 143.891 128.641 142.911 129.136C141.943 129.643 140.861 130.274 139.589 130.826C138.958 131.119 138.305 131.412 137.618 131.727C136.931 132.042 136.187 132.301 135.433 132.594C133.935 133.225 132.268 133.732 130.534 134.295C127.031 135.32 123.1 136.199 118.911 136.717C114.721 137.19 110.689 137.257 107.04 137.077C105.215 136.931 103.481 136.829 101.881 136.57C101.082 136.446 100.293 136.368 99.5613 136.232C98.8292 136.086 98.1197 135.951 97.4327 135.816C96.0699 135.579 94.876 135.219 93.8174 134.948C92.7474 134.689 91.8576 134.396 91.1256 134.137C90.4498 133.901 89.898 133.709 89.4474 133.552C89.0645 133.417 88.873 133.326 88.873 133.315C88.873 133.304 89.087 133.338 89.4812 133.439C89.9317 133.563 90.4949 133.721 91.1819 133.912C91.914 134.137 92.815 134.396 93.8849 134.622C94.9436 134.858 96.1487 135.196 97.5002 135.399C98.176 135.523 98.8855 135.647 99.6176 135.782C100.35 135.906 101.127 135.973 101.926 136.086C103.526 136.322 105.249 136.413 107.051 136.536C110.666 136.683 114.665 136.604 118.82 136.131C122.976 135.613 126.873 134.757 130.353 133.777C132.077 133.225 133.732 132.741 135.23 132.144C135.985 131.851 136.717 131.603 137.404 131.31C138.091 131.006 138.744 130.725 139.375 130.443C140.647 129.925 141.729 129.317 142.709 128.844C143.688 128.37 144.511 127.909 145.175 127.526C145.806 127.177 146.313 126.895 146.718 126.67C147.078 126.478 147.27 126.388 147.281 126.399H147.337Z" fill="#EBEBEB"/>
<path d="M144.105 165.302C144.105 165.302 143.576 165.065 142.641 164.558C141.639 163.995 140.31 163.252 138.677 162.328C135.242 160.346 130.545 157.642 125.128 154.523L124.959 154.421L124.993 154.23C125.477 151.819 125.995 149.24 126.524 146.582C127.347 142.572 128.124 138.765 128.833 135.285C129.205 133.55 129.509 131.894 129.847 130.351C130.207 128.808 130.658 127.378 131.289 126.161C132.527 123.694 134.51 122.354 135.94 121.892C136.672 121.656 137.269 121.599 137.663 121.611C138.057 121.611 138.271 121.656 138.271 121.678C138.271 121.757 137.415 121.599 136.019 122.118C134.656 122.624 132.798 123.965 131.66 126.353C131.075 127.535 130.647 128.932 130.32 130.453C130.016 132.007 129.701 133.651 129.363 135.386C128.664 138.866 127.899 142.685 127.099 146.694C126.558 149.353 126.029 151.932 125.545 154.342L125.409 154.049C130.782 157.237 135.445 160.008 138.846 162.035C140.445 163.015 141.752 163.804 142.731 164.401C143.632 164.964 144.117 165.279 144.094 165.313L144.105 165.302Z" fill="#263238"/>
<path d="M149.624 144.566C149.692 144.566 149.714 145.715 149.534 147.574C149.354 149.421 148.96 151.967 148.239 154.704C147.518 157.452 146.606 159.851 145.851 161.552C145.096 163.253 144.522 164.244 144.454 164.21C144.376 164.176 144.815 163.117 145.468 161.394C146.121 159.671 146.955 157.272 147.676 154.557C148.385 151.843 148.847 149.342 149.128 147.518C149.41 145.693 149.545 144.555 149.635 144.566H149.624Z" fill="#263238"/>
<path d="M51.9081 323.68L51.7054 340.879C51.7054 340.879 34.1582 346.454 33.8203 349.631L67.1465 351.219L68.5543 324.434L51.9081 323.691V323.68Z" fill="#455A64"/>
<path d="M62.0776 339.922C62.7195 340.125 63.125 340.88 62.9448 341.522C62.7646 342.164 62.01 342.592 61.368 342.4C60.726 342.209 60.208 341.319 60.4557 340.699C60.7035 340.08 61.6271 339.629 62.2014 339.967" fill="#E0E0E0"/>
<path d="M67.1466 351.206L67.1804 348.503L35.217 347.996C35.217 347.996 33.7078 348.571 33.8205 349.629L67.1466 351.217V351.206Z" fill="#E0E0E0"/>
<path d="M51.1762 340.676C51.1762 340.833 51.9871 340.946 52.7642 341.509C53.5526 342.05 53.9355 342.771 54.0819 342.714C54.2283 342.692 54.0369 341.701 53.0908 341.047C52.1447 340.372 51.1536 340.518 51.1762 340.676Z" fill="#263238"/>
<path d="M47.6173 341.96C47.5723 342.118 48.2593 342.422 48.7887 343.143C49.3293 343.841 49.4306 344.596 49.5996 344.596C49.746 344.629 49.9037 343.683 49.2504 342.805C48.5972 341.926 47.6399 341.814 47.6286 341.96H47.6173Z" fill="#263238"/>
<path d="M45.4318 346.048C45.5783 346.093 45.8486 345.282 45.4656 344.381C45.094 343.469 44.3506 343.074 44.2718 343.21C44.1704 343.333 44.6435 343.84 44.9363 344.595C45.2516 345.338 45.2629 346.025 45.4206 346.048H45.4318Z" fill="#263238"/>
<path d="M51.6597 336.767C51.716 336.913 52.4819 336.733 53.3942 336.834C54.3177 336.924 55.016 337.262 55.1061 337.127C55.2075 337.014 54.5317 336.384 53.4505 336.271C52.3693 336.158 51.5809 336.632 51.6597 336.767Z" fill="#263238"/>
<g opacity="0.3">
<path d="M51.8751 327.082L51.8301 330.146L68.2172 330.776L68.3749 328.028L51.8751 327.082Z" fill="black"/>
</g>
<path d="M51.7628 333.3C51.7628 333.368 52.3935 333.503 53.4296 333.368C53.9477 333.3 54.5559 333.165 55.1979 332.917C55.5245 332.793 55.8511 332.635 56.1777 332.455C56.3354 332.365 56.5269 332.275 56.6958 332.084C56.8873 331.926 57.0112 331.498 56.8084 331.216C56.6508 330.957 56.3579 330.822 56.1101 330.811C55.8624 330.788 55.6596 330.833 55.4794 330.867C55.1078 330.935 54.7474 331.047 54.4207 331.171C53.7675 331.43 53.2382 331.768 52.8327 332.106C52.0218 332.782 51.729 333.379 51.7853 333.413C51.8529 333.469 52.2583 332.973 53.0692 332.421C53.4747 332.151 53.9928 331.87 54.6009 331.656C54.905 331.554 55.2317 331.464 55.5695 331.408C55.9299 331.329 56.2228 331.34 56.3129 331.509C56.3467 331.565 56.3467 331.599 56.2678 331.689C56.189 331.779 56.0426 331.87 55.8849 331.96C55.5808 332.14 55.2767 332.286 54.9839 332.421C54.387 332.68 53.8238 332.849 53.3395 332.962C52.3709 333.187 51.7402 333.199 51.7402 333.289L51.7628 333.3Z" fill="#263238"/>
<path d="M51.9641 333.547C52.0204 333.569 52.3696 333.006 52.4822 331.959C52.5385 331.441 52.516 330.799 52.3358 330.123C52.2457 329.785 52.1218 329.436 51.9641 329.087C51.7839 328.749 51.5699 328.298 50.9392 328.197C50.6126 328.174 50.3198 328.411 50.2184 328.625C50.0945 328.85 50.072 329.042 50.0157 329.233C49.9368 329.616 49.9256 329.999 49.9594 330.359C50.0269 331.069 50.2972 331.677 50.5901 332.116C51.1983 333.006 51.874 333.243 51.8853 333.187C51.9416 333.108 51.3897 332.77 50.928 331.914C50.7027 331.497 50.5112 330.945 50.4774 330.326C50.4549 330.01 50.4774 329.684 50.5563 329.368C50.6239 329.019 50.7703 328.737 50.9054 328.782C51.0744 328.782 51.3447 329.064 51.4686 329.357C51.6262 329.661 51.7501 329.976 51.8402 330.281C52.0204 330.889 52.088 331.474 52.088 331.959C52.088 332.939 51.8853 333.536 51.9754 333.569L51.9641 333.547Z" fill="#263238"/>
<path d="M119.822 199.206C119.822 199.206 67.7777 177.378 51.6609 176.443C41.5583 175.857 33.9109 182.345 35.285 192.809C35.972 198.035 50.3544 259.274 50.3544 259.274L72.2941 249.25L61.7522 206.91L104.505 227.692L119.822 199.195V199.206Z" fill="#263238"/>
<path d="M55.1853 196.201C55.0164 196.348 56.7396 198.567 58.5528 201.506C60.3774 204.446 61.5938 206.98 61.7965 206.89C61.9879 206.823 61.0644 204.097 59.2061 201.101C57.359 198.093 55.3317 196.055 55.1853 196.19V196.201Z" fill="#455A64"/>
<path d="M50.9293 198.633C50.8166 198.824 53.4521 200.491 56.5268 202.766C59.6128 205.03 61.9892 207.035 62.1356 206.878C62.2708 206.731 60.1083 204.445 56.9773 202.147C53.8576 199.849 51.0194 198.453 50.9293 198.633Z" fill="#455A64"/>
<path d="M160.435 212.34C160.435 212.34 153.891 220.777 147.64 223.086C139.801 225.98 81.7987 253.35 81.7987 253.35C81.7987 253.35 71.2794 331.496 72.1128 328.241L47.8418 327.655L50.4773 255.671C50.7926 246.446 58.1809 235.87 66.1098 231.161L119.81 199.207L160.423 212.34H160.435Z" fill="#263238"/>
<path d="M50.0158 268.84C50.0158 268.84 50.0721 268.502 50.1171 267.848C50.1509 267.128 50.2072 266.181 50.2635 265.021C50.3987 262.566 50.5338 258.995 51.2209 254.67C51.9417 250.379 53.2481 245.198 56.4693 240.399C58.0686 238.012 60.2085 235.849 62.7088 233.957C65.2091 232.064 68.0247 230.397 70.9418 228.742C82.6211 222.051 92.7012 215.226 100.157 210.551C103.874 208.186 106.892 206.305 108.987 205.021C109.978 204.413 110.778 203.917 111.397 203.534C111.949 203.185 112.231 202.994 112.219 202.971C112.208 202.948 111.904 203.095 111.33 203.399C110.755 203.703 109.911 204.154 108.841 204.762C106.689 205.967 103.626 207.78 99.8755 210.089C92.3408 214.651 82.2157 221.409 70.5701 228.077C67.6531 229.733 64.8036 231.411 62.2583 233.36C59.7129 235.297 57.5167 237.539 55.8836 240.005C52.6174 244.961 51.3448 250.244 50.6915 254.58C50.0721 258.962 50.0158 262.543 49.9707 264.999C49.9707 266.17 49.9707 267.105 49.9707 267.837C49.9707 268.49 50.0045 268.828 50.027 268.828L50.0158 268.84Z" fill="#455A64"/>
<path d="M139.013 220.583C139.103 220.482 138.394 219.829 137.527 218.578C136.659 217.339 135.691 215.447 135.229 213.194C134.779 210.931 134.925 208.813 135.252 207.337C135.567 205.851 135.961 204.972 135.848 204.916C135.781 204.871 135.207 205.682 134.733 207.202C134.26 208.712 134.001 210.953 134.486 213.352C134.97 215.74 136.074 217.711 137.099 218.916C138.124 220.133 138.968 220.651 139.013 220.583Z" fill="#455A64"/>
<path d="M56.7617 327.654C56.7617 327.654 56.7955 327.519 56.8406 327.26C56.8743 326.956 56.9307 326.562 56.987 326.077C57.0996 324.985 57.2685 323.453 57.4713 321.527C57.8655 317.517 58.4286 311.806 59.1156 304.778C59.4535 301.23 59.8252 297.367 60.2194 293.211C60.6248 289.054 61.0415 284.605 61.3681 279.92C61.7285 275.245 62.1791 270.334 63.0238 265.311C63.9022 260.31 65.2087 255.163 67.4838 250.285C69.7138 245.386 72.8786 241.106 76.2912 237.366C79.7601 233.649 83.5105 230.462 87.2835 227.68C94.8295 222.127 102.274 218.072 108.412 214.49C114.573 210.954 119.483 207.935 122.75 205.66C124.394 204.533 125.633 203.621 126.466 202.979C126.849 202.675 127.153 202.438 127.401 202.247C127.604 202.078 127.716 201.988 127.705 201.977C127.705 201.977 127.581 202.033 127.356 202.191C127.097 202.371 126.782 202.585 126.376 202.866C125.52 203.463 124.248 204.342 122.592 205.423C119.281 207.62 114.348 210.548 108.153 214.028C101.993 217.543 94.5029 221.552 86.8781 227.117C83.0713 229.899 79.2758 233.097 75.7505 236.859C72.2816 240.644 69.0718 244.98 66.7967 249.97C64.4879 254.937 63.1702 260.141 62.2917 265.187C61.447 270.244 61.0077 275.178 60.6699 279.863C60.3658 284.549 59.9716 288.998 59.5999 293.154C59.2395 297.31 58.9016 301.185 58.5975 304.733C58.0119 311.773 57.5276 317.483 57.1897 321.504C57.0433 323.442 56.9307 324.962 56.8518 326.066C56.818 326.55 56.7955 326.945 56.7842 327.26C56.773 327.53 56.7842 327.665 56.7842 327.665L56.7617 327.654Z" fill="#455A64"/>
<path d="M113.909 75.2419C112.411 70.9956 107.433 68.3149 103.063 69.4075C102.061 69.6553 101.069 70.0833 100.045 70.0608C98.7718 70.0382 97.6231 69.3399 96.3729 69.0921C93.6924 68.5515 90.7641 70.455 90.1559 73.1244C88.0273 72.6851 85.6621 72.9893 83.9615 74.3521C82.2721 75.715 81.4837 78.2718 82.5198 80.1866C82.9591 81.0088 83.6799 81.6621 84.0853 82.5069C84.7498 83.8923 84.4458 85.5593 84.9075 87.0235C85.5945 89.1974 87.8921 90.5377 90.1559 90.7968C92.4197 91.0558 94.6835 90.4363 96.8797 89.8281" fill="#263238"/>
<path d="M103.468 119.79C103.187 117.616 102.995 116.084 102.995 116.084C102.995 116.084 95.742 116.039 92.8137 107.04C91.3608 102.568 90.3922 95.0103 89.8065 88.8041C89.2772 83.2174 93.5007 78.3066 99.1095 78.0137L118.391 77L118.808 79.9848L123.887 117.064C124.664 122.718 120.689 127.922 115.024 128.665C109.381 129.409 104.223 125.422 103.479 119.79H103.468Z" fill="#FFC7B1"/>
<path d="M92.5203 94.1198C92.5991 94.7505 93.1961 95.2011 93.8493 95.1335C94.5025 95.0659 94.9756 94.5027 94.8967 93.872C94.8179 93.2412 94.221 92.7907 93.5677 92.8583C92.9145 92.9259 92.4415 93.489 92.5203 94.1198Z" fill="#263238"/>
<path d="M92.0475 92.4532C92.2165 92.5884 93.0049 91.7774 94.2775 91.5747C95.5502 91.3607 96.5864 91.8675 96.699 91.6873C96.7553 91.6085 96.5639 91.3494 96.1134 91.1241C95.6628 90.8876 94.942 90.7186 94.1424 90.8425C93.354 90.9777 92.7346 91.3719 92.3967 91.7324C92.0475 92.0928 91.9687 92.3969 92.0475 92.4532Z" fill="#263238"/>
<path d="M104.618 92.069C104.697 92.6997 105.294 93.1503 105.947 93.0827C106.6 93.0151 107.073 92.452 106.994 91.8212C106.916 91.1904 106.319 90.7399 105.665 90.8075C105.012 90.8751 104.539 91.4382 104.618 92.069Z" fill="#263238"/>
<path d="M104.595 90.7071C104.764 90.8423 105.564 90.0313 106.825 89.8286C108.098 89.6146 109.134 90.1214 109.247 89.9412C109.303 89.8624 109.111 89.6033 108.661 89.378C108.21 89.1415 107.49 88.9725 106.69 89.0964C105.901 89.2316 105.282 89.6258 104.944 89.9863C104.606 90.3467 104.516 90.6508 104.595 90.7071Z" fill="#263238"/>
<path d="M101.474 100.88C101.474 100.801 100.652 100.801 99.3456 100.835C99.019 100.858 98.6923 100.835 98.6022 100.621C98.4896 100.396 98.5684 100.024 98.6698 99.6187C98.85 98.7853 99.0415 97.9067 99.2329 96.9944C100.01 93.2549 100.517 90.2025 100.359 90.18C100.213 90.1462 99.4582 93.1535 98.6811 96.893C98.5009 97.8166 98.3207 98.6951 98.1517 99.5286C98.0841 99.9229 97.9377 100.373 98.1855 100.835C98.3094 101.06 98.5797 101.207 98.7937 101.229C99.0077 101.263 99.1991 101.229 99.3568 101.229C100.663 101.094 101.463 100.97 101.452 100.903L101.474 100.88Z" fill="#263238"/>
<path d="M102.996 116.084C102.996 116.084 109.269 115.499 114.822 110.824C114.822 110.824 112.828 117.639 103.469 118.247L102.996 116.084Z" fill="#AA6550"/>
<path d="M105.36 101.161C105.146 101.184 105.36 102.569 104.346 103.729C103.321 104.901 101.823 104.98 101.846 105.171C101.846 105.261 102.218 105.385 102.837 105.306C103.445 105.227 104.312 104.889 104.943 104.18C105.574 103.459 105.754 102.614 105.709 102.04C105.675 101.454 105.461 101.139 105.371 101.161H105.36Z" fill="#263238"/>
<path d="M103.467 85.7626C103.647 86.0893 104.897 85.7176 106.418 85.6613C107.938 85.5712 109.211 85.8189 109.357 85.481C109.425 85.3234 109.166 85.0305 108.625 84.7715C108.085 84.5124 107.274 84.3209 106.361 84.366C105.449 84.411 104.65 84.6813 104.143 84.9855C103.625 85.2896 103.399 85.6049 103.478 85.7626H103.467Z" fill="#263238"/>
<path d="M91.9232 88.691C92.1935 88.9388 93.0269 88.4995 94.0744 88.3193C95.1218 88.1053 96.0566 88.2067 96.2143 87.8688C96.2819 87.7111 96.0904 87.4407 95.6624 87.2267C95.2344 87.0127 94.5587 86.9001 93.8379 87.0353C93.117 87.1704 92.5314 87.5308 92.216 87.8913C91.8894 88.2517 91.8106 88.5671 91.9345 88.691H91.9232Z" fill="#263238"/>
<path d="M88.8375 84.7604C88.8375 84.7604 93.9395 86.4837 99.796 82.564C103.637 79.9959 108.299 78.3853 109.459 79.0836C110.619 79.7707 111.374 83.9832 115.598 84.6928C115.598 84.6928 116.341 92.8025 119.517 92.1042C121.781 91.6086 120.463 82.6654 119.517 77.563C119.134 75.5244 117.388 74.015 115.305 73.9362L109.369 73.7109L101.958 75.7834L94.007 77.946L87.959 80.4577L88.8262 84.7604H88.8375Z" fill="#263238"/>
<path d="M118.818 88.8261C118.942 88.736 123.864 86.1567 124.776 91.5293C125.689 96.902 120.102 96.7105 120.069 96.5528C120.035 96.3951 118.818 88.8261 118.818 88.8261Z" fill="#FFC7B1"/>
<path d="M121.363 94.2349C121.363 94.2349 121.464 94.28 121.633 94.325C121.802 94.3701 122.072 94.3701 122.331 94.2237C122.861 93.9196 123.187 92.9396 123.052 91.9597C122.985 91.4641 122.804 91.0249 122.568 90.6644C122.343 90.304 122.039 90.0675 121.746 90.0675C121.453 90.0449 121.273 90.2589 121.239 90.4166C121.194 90.5743 121.239 90.6757 121.216 90.6982C121.205 90.7095 121.081 90.6306 121.093 90.3941C121.093 90.2815 121.138 90.1463 121.25 90.0224C121.363 89.8985 121.543 89.8084 121.746 89.7971C122.162 89.7521 122.602 90.0787 122.861 90.4617C123.142 90.8559 123.356 91.3515 123.435 91.9034C123.582 92.996 123.199 94.0998 122.467 94.4489C122.106 94.6066 121.768 94.5503 121.588 94.4489C121.397 94.3476 121.352 94.2237 121.363 94.2124V94.2349Z" fill="#AA6550"/>
<path d="M91.4179 71.1409C91.4179 71.1409 91.6094 71.4224 91.981 71.8617C92.3527 72.301 93.0285 72.8304 94.0083 73.1683C94.9882 73.5174 96.2383 73.6075 97.5898 73.326C98.9414 73.0669 100.372 72.4925 101.926 71.9518C103.469 71.4112 105.057 71.0282 106.532 71.1296C108.008 71.1972 109.292 71.873 110.024 72.7065C110.79 73.5287 111.094 74.441 111.094 75.0605C111.116 75.68 110.959 76.0067 110.936 75.9954C110.88 75.9954 110.959 75.6575 110.869 75.0831C110.79 74.5199 110.463 73.7089 109.731 72.9993C109.01 72.2672 107.873 71.7153 106.499 71.6815C105.136 71.6139 103.638 71.9856 102.117 72.515C100.597 73.0444 99.1216 73.6301 97.6912 73.8666C96.2721 74.1369 94.8981 73.9905 93.8732 73.5625C92.837 73.157 92.15 72.5263 91.8008 72.0081C91.4517 71.5013 91.3841 71.1521 91.4179 71.1409Z" fill="#455A64"/>
<path d="M109.562 76.2909C109.562 76.2909 109.291 76.0093 108.728 75.6151C108.176 75.2209 107.241 74.8492 106.025 74.8154C104.809 74.7591 103.39 75.1082 101.926 75.8178C100.45 76.4936 98.9071 77.4961 97.0375 78.1043C93.2645 79.3208 89.5591 78.3296 87.4192 77.0568C86.3155 76.4261 85.5384 75.7503 85.0541 75.2434C84.5698 74.7253 84.3445 74.4099 84.3783 74.3874C84.4684 74.2973 85.437 75.5588 87.6219 76.6964C89.7506 77.834 93.2871 78.7125 96.8686 77.5524C98.6368 76.978 100.18 76.0093 101.712 75.3335C103.221 74.6352 104.775 74.286 106.059 74.4099C107.343 74.5 108.345 74.9731 108.875 75.4461C109.426 75.9192 109.595 76.2909 109.573 76.3022L109.562 76.2909Z" fill="#455A64"/>
<path d="M92.8806 167.818L66.7288 145.527L58.1016 147.476C58.1016 147.476 67.1905 166.376 73.7679 173.303C73.7679 173.303 80.2665 182.01 90.9885 178.248C101.711 174.486 92.8806 167.829 92.8806 167.829V167.818Z" fill="#FFC7B1"/>
<path d="M64.7586 120.972H53.6424C51.9642 120.972 50.455 122.921 51.0632 124.52L62.247 146.292C62.675 147.137 63.5535 147.667 64.4996 147.667L78.0485 147.633C79.6028 147.419 80.1659 145.695 79.524 144.761L68.7343 123.439C67.991 121.918 66.448 120.961 64.7586 120.961V120.972Z" fill="#455A64"/>
<path d="M64.0043 122.277H52.888C51.4914 122.277 50.5904 123.741 51.2324 124.98L62.1459 146.279C62.5739 147.124 63.4524 147.653 64.3984 147.653H77.801C78.6232 147.653 79.1525 146.797 78.7809 146.065L67.9912 124.744C67.2479 123.223 65.7049 122.266 64.0155 122.266L64.0043 122.277Z" fill="#263238"/>
<path d="M63.0577 131.198L56.2888 133.902L54.8359 139.353L58.0908 147.463L70.0405 149.197L66.5378 145.616L66.9883 142.496C66.9883 142.496 70.3221 141.448 70.4009 140.941C70.4798 140.434 69.9842 138.722 69.4774 138.632C68.9706 138.553 65.4679 139.849 65.4679 139.849C65.4679 139.849 69.6125 136.571 69.4886 136.042C69.376 135.512 68.9255 134.172 68.1033 134.014C67.2812 133.868 60.5912 137.01 60.5912 137.01L59.5099 139.488L58.5639 135.535C58.5639 135.535 64.4993 133.868 63.0351 131.176L63.0577 131.198Z" fill="#FFC7B1"/>
<path d="M63.9142 143.982C63.9142 143.982 63.7453 143.745 63.6889 143.306C63.6214 142.867 63.6552 142.236 63.8917 141.594C64.1282 140.952 64.5224 140.456 64.849 140.164C65.1869 139.871 65.4347 139.769 65.4572 139.803C65.5248 139.882 64.6463 140.513 64.2183 141.718C63.7678 142.901 64.0156 143.959 63.9142 143.982Z" fill="#AA6550"/>
<path d="M60.6934 142.799C60.6934 142.799 60.8961 142.134 60.9637 141.03C61.02 140.478 61.0425 139.791 61.3015 139.07C61.4367 138.71 61.6169 138.338 61.921 138.023C62.2251 137.708 62.6193 137.494 63.0247 137.325C64.6466 136.739 66.0994 136.266 67.1694 135.917C68.2393 135.579 68.9038 135.387 68.9151 135.432C68.9264 135.477 68.2956 135.748 67.2482 136.142C66.2121 136.547 64.7479 137.066 63.1599 137.64C62.777 137.798 62.4278 137.989 62.1688 138.248C61.9097 138.507 61.7295 138.845 61.6056 139.172C61.3466 139.836 61.2903 140.501 61.2114 141.053C61.0763 142.179 60.7384 142.821 60.6934 142.799Z" fill="#AA6550"/>
<path d="M59.1392 141.571C59.0491 141.56 59.0604 140.963 59.1842 140.242C59.3081 139.521 59.4771 138.947 59.5672 138.969C59.6573 138.981 59.646 139.578 59.5221 140.298C59.3982 141.019 59.2293 141.594 59.1392 141.571Z" fill="#AA6550"/>
<path d="M58.959 126.392C58.959 127.169 59.5897 127.811 60.3781 127.811C61.1665 127.811 61.7972 127.18 61.7972 126.392C61.7972 125.603 61.1665 124.973 60.3781 124.973C59.5897 124.973 58.959 125.603 58.959 126.392Z" fill="#FAFAFA"/>
<path d="M111.248 44.7679C111.969 39.4729 104.512 35.133 98.8979 34.6806C96.2167 34.4628 93.4516 34.8817 90.9044 33.9936C85.4079 32.0834 83.2126 24.9787 77.8668 22.7333C73.8617 21.041 69.2533 22.549 65.3655 24.5095C61.4777 26.47 57.6401 28.9164 53.2999 29.2013C49.5294 29.4359 45.4237 28.0451 42.1224 29.8883C39.659 31.2623 38.3687 34.0941 36.1064 35.7697C33.8943 37.4119 30.9952 37.747 28.2469 37.8978C25.4986 38.0486 22.6498 38.0821 20.1361 39.2215C17.6225 40.361 15.5613 43.0252 16.0807 45.723L111.248 44.7846V44.7679Z" fill="#EBEBEB"/>
</g>
<defs>
<clipPath id="clip0_474_1062">
<rect width="375" height="428" fill="white"/>
</clipPath>
</defs>
</svg>
