<svg width="375" height="428" viewBox="0 0 375 428" fill="none" xmlns="http://www.w3.org/2000/svg">
<path d="M242.688 112.237C243.17 108.698 238.184 105.794 234.431 105.486C232.647 105.341 230.785 105.611 229.088 105.023C225.413 103.74 223.947 99.0038 220.368 97.4894C217.687 96.3609 214.61 97.364 212.006 98.6758C209.411 99.978 206.845 101.627 203.942 101.811C201.415 101.975 198.675 101.039 196.467 102.274C194.817 103.19 193.959 105.09 192.444 106.209C190.959 107.299 189.03 107.53 187.188 107.637C185.345 107.733 183.445 107.752 181.767 108.524C180.088 109.296 178.699 111.061 179.056 112.874L242.688 112.247V112.237Z" fill="#F5F5F5"/>
<path d="M258.683 362.657C258.965 359.281 258.502 354.914 254.567 353.613C247.906 351.41 243.958 346.245 244.176 340.409C244.395 334.561 237.386 328.88 232.127 334.355C226.867 339.829 227.574 330.142 220.565 327.785C213.557 325.427 207.615 331.147 209.532 336.364C211.448 341.581 204.529 344.841 196.247 340.409C187.965 335.965 178.848 344.042 180.609 350.367C182.371 356.692 180.931 357.388 175.684 355.288C171.453 353.588 164.522 357.156 163.75 362.669H258.683V362.657Z" fill="#E0E0E0"/>
<path d="M255.516 44.4821C255.516 41.3388 258.062 38.7753 261.213 38.7753C261.778 38.7753 262.331 38.8655 262.846 39.0201C262.769 38.4532 262.717 37.8607 262.717 37.2681C262.717 30.5952 268.118 25.1976 274.767 25.1976C275.526 25.1976 276.272 25.2749 276.992 25.4037C278.844 22.3635 282.174 20.3281 285.981 20.3281C291.755 20.3281 296.436 24.9786 296.513 30.7369C296.578 30.7369 296.629 30.7369 296.693 30.7369C302.056 30.7369 306.403 35.091 306.403 40.4628C306.403 45.8347 302.056 50.1888 296.693 50.1888H261.045C257.972 50.0987 255.516 47.5867 255.516 44.4821Z" fill="#F5F5F5"/>
<path d="M-126.987 364.925V381.595H341.85V364.925C341.85 362.027 339.831 359.695 336.937 359.695H-122.087C-124.981 359.695 -127 362.027 -127 364.925H-126.987Z" fill="#E0E0E0"/>
<path d="M315.126 359.695H285.973V381.595H315.126V359.695Z" fill="#F5F5F5"/>
<path d="M259.248 359.695H231.316V381.595H259.248V359.695Z" fill="#F5F5F5"/>
<path d="M204.595 359.695H175.441V381.595H204.595V359.695Z" fill="#F5F5F5"/>
<path d="M148.717 359.695H120.785V381.595H148.717V359.695Z" fill="#F5F5F5"/>
<path d="M94.0608 359.695H66.1289V381.595H94.0608V359.695Z" fill="#F5F5F5"/>
<path d="M39.4075 359.695H10.2539V381.595H39.4075V359.695Z" fill="#F5F5F5"/>
<path d="M183.196 146.267C184.453 137.152 171.583 129.645 161.913 128.874C157.305 128.505 152.512 129.209 148.138 127.684C138.67 124.383 134.9 112.151 125.649 108.264C118.745 105.348 110.802 107.945 104.099 111.313C97.4124 114.681 90.7931 118.921 83.3023 119.407C76.8003 119.826 69.7285 117.413 64.0476 120.596C59.8079 122.959 57.5791 127.852 53.6745 130.734C49.8537 133.549 44.8599 134.152 40.1174 134.404C35.375 134.655 30.4649 134.705 26.1414 136.683C21.8179 138.66 18.2485 143.234 19.1366 147.893L183.179 146.267H183.196Z" fill="#F5F5F5"/>
<path d="M77.9469 78.0461C78.7273 72.6962 70.7365 68.2904 64.7329 67.838C61.8717 67.6216 58.8959 68.0347 56.1803 67.1398C50.3016 65.2024 47.9606 58.0233 42.2172 55.7417C37.9304 54.0306 32.9986 55.5549 28.8367 57.5316C24.6852 59.5083 20.5754 61.9964 15.9245 62.2816C11.8874 62.5275 7.49665 61.1113 3.96945 62.9798C1.33706 64.3665 -0.0467663 67.2381 -2.47106 68.9296C-4.84334 70.5818 -7.94394 70.9358 -10.8885 71.0833C-13.833 71.2309 -16.8816 71.2604 -19.566 72.4208C-22.2504 73.5813 -24.4666 76.266 -23.9152 79L77.9365 78.0461H77.9469Z" fill="#F5F5F5"/>
<path d="M314.878 418.922L174.448 418.278C157.555 418.204 143.926 404.447 144 387.553L145.49 35.4718C145.564 18.5667 159.319 4.92634 176.223 5.0003L316.653 5.64481C333.546 5.71877 347.175 19.4753 347.101 36.3699L345.611 388.461C345.537 405.366 331.782 419.007 314.878 418.922Z" fill="#455A64"/>
<path d="M316.452 17.8049L289.226 17.6781C285.571 17.657 282.602 20.7421 282.592 24.5564L282.571 29.4905C282.56 33.3048 279.581 36.3899 275.936 36.3688L222.868 36.1258C219.213 36.1047 216.265 32.9984 216.286 29.1841L216.307 24.25C216.318 20.4357 213.381 17.3189 209.725 17.3083L200.153 17.266L176.319 17.1604C164.486 17.1075 154.851 26.6589 154.798 38.4925L153.34 382.152C153.287 393.986 162.838 403.611 174.66 403.664L314.815 404.309C326.648 404.361 336.283 394.81 336.336 382.977L337.794 39.3166C337.846 27.4831 328.296 17.8577 316.473 17.8049H316.452Z" fill="#FAFAFA"/>
<path d="M176.338 58.7902C176.233 58.8959 173.877 56.8461 171.066 54.2047C171.066 53.4017 171.066 53.9828 171.066 53.8032H171.077L171.098 53.7715L171.13 53.7398L171.193 53.6764L171.32 53.5496L171.584 53.3066C171.753 53.1481 171.922 52.9896 172.091 52.8311C172.419 52.5247 172.746 52.2289 173.063 51.9436C173.644 51.4259 174.194 50.9399 174.722 50.4644C175.673 49.6297 176.296 49.1543 176.349 49.2071C176.402 49.2599 175.873 49.8516 174.986 50.7497C174.479 51.2463 173.961 51.764 173.412 52.3134L172.472 53.2221L171.964 53.6975L171.711 53.9405L171.584 54.0673L171.521 54.1307L171.489 54.1624H171.468V54.1836H171.457C171.457 54.0145 171.457 54.585 171.457 53.7926C174.268 56.4446 176.465 58.674 176.359 58.7796L176.338 58.7902Z" fill="#263238"/>
<path d="M322.368 50.727C322.368 51.361 321.85 51.8681 321.227 51.8681C320.604 51.8681 320.086 51.3504 320.086 50.727C320.086 50.1037 320.604 49.5859 321.227 49.5859C321.85 49.5859 322.368 50.1037 322.368 50.727Z" fill="#263238"/>
<path d="M322.039 53.8563C322.483 54.3 322.483 55.029 322.039 55.4728C321.595 55.9166 320.866 55.9166 320.423 55.4728C319.979 55.029 319.979 54.3 320.423 53.8563C320.866 53.4125 321.595 53.4125 322.039 53.8563Z" fill="#263238"/>
<path d="M322.368 58.6098C322.368 59.2438 321.85 59.7509 321.227 59.7509C320.604 59.7509 320.086 59.2332 320.086 58.6098C320.086 57.9865 320.604 57.4688 321.227 57.4688C321.85 57.4688 322.368 57.9865 322.368 58.6098Z" fill="#263238"/>
<path d="M272.86 55.4102H223.438V59.5308H272.86V55.4102Z" fill="#263238"/>
<path d="M332 207.509V316.48C332 319.53 329.53 322 326.491 322H165.52C162.47 322 160 319.53 160 316.48V207.509C160 204.47 162.47 202 165.52 202H326.491C329.53 202 332 204.47 332 207.509Z" fill="#EBEBEB"/>
<path d="M332 241.774C310.061 248.638 287.412 255.754 265.681 262.618L285.499 299.572L332 301.146V312.087L278.842 310.283L255.067 265.973C244.945 269.176 235.096 272.301 225.674 275.285L247.044 322H235.031L215.18 278.63C192.848 285.745 173.598 291.954 160 296.435V284.937C164.001 283.625 168.472 282.16 173.369 280.575C183.753 277.209 196.204 273.209 210.6 268.618L192.083 228.123L160 238.32V226.855L187.503 218.111L180.135 202H192.148L221.094 265.274C232.484 261.656 244.934 257.71 258.412 253.458C266.25 250.988 274.087 248.507 281.816 246.081L261.506 202H273.552L292.331 242.769C306.454 238.331 319.954 234.101 332 230.32V241.774Z" fill="white"/>
<rect x="159" y="336" width="171" height="40" rx="6" fill="#EBEBEB"/>
<path d="M326.279 83H165.721C163.114 83 161 85.3483 161 88.245V181.755C161 184.652 163.114 187 165.721 187H326.279C328.886 187 331 184.652 331 181.755V88.245C331 85.3483 328.886 83 326.279 83Z" fill="#EBEBEB"/>
<path d="M288.355 90.4609H204.133C201.956 90.4609 200.191 92.2289 200.191 94.4097V175.576C200.191 177.757 201.956 179.525 204.133 179.525H288.355C290.532 179.525 292.297 177.757 292.297 175.576V94.4097C292.297 92.2289 290.532 90.4609 288.355 90.4609Z" fill="white"/>
<path d="M213.418 136.544H277.692L276.403 125.002L257.884 121.031L240.676 124.036L219.948 126.076L214.804 131.977L213.418 136.544Z" fill="#263238"/>
<path opacity="0.2" d="M213.418 136.544H277.692L276.403 125.002L257.884 121.031L240.676 124.036L219.948 126.076L214.804 131.977L213.418 136.544Z" fill="black"/>
<path d="M231.297 136.547C231.297 140.311 228.254 143.36 224.496 143.36C220.738 143.36 217.695 140.311 217.695 136.547C217.695 132.783 220.738 129.734 224.496 129.734C228.254 129.734 231.297 132.783 231.297 136.547Z" fill="#263238"/>
<path opacity="0.2" d="M224.498 141.105C227.01 141.105 229.046 139.065 229.046 136.548C229.046 134.032 227.01 131.992 224.498 131.992C221.986 131.992 219.949 134.032 219.949 136.548C219.949 139.065 221.986 141.105 224.498 141.105Z" fill="black"/>
<path d="M275.7 136.547C275.7 140.311 272.657 143.36 268.899 143.36C265.141 143.36 262.098 140.311 262.098 136.547C262.098 132.783 265.141 129.734 268.899 129.734C272.657 129.734 275.7 132.783 275.7 136.547Z" fill="#263238"/>
<path opacity="0.2" d="M268.9 141.105C271.412 141.105 273.448 139.065 273.448 136.548C273.448 134.032 271.412 131.992 268.9 131.992C266.388 131.992 264.352 134.032 264.352 136.548C264.352 139.065 266.388 141.105 268.9 141.105Z" fill="black"/>
<path d="M282.078 130.481L281.33 135.808L277.15 137.131C277.15 137.131 277.042 128.127 267.945 128.127C258.848 128.127 260.018 138.856 260.018 138.856H258.426L255.426 137.565H235.781L234.07 138.856H232.911C232.911 138.856 233.875 128.127 224.496 128.127C215.118 128.127 216.309 138.856 216.309 138.856L210.949 136.545L210.418 131.132L212.66 129.733L213.201 126.446C213.439 126.261 213.689 126.088 213.938 125.925C220.208 121.716 228.785 121.152 228.785 121.152C236.16 113.634 239.149 112.571 239.149 112.571C256.076 111.388 272.223 113.211 272.223 113.211L277.15 119.535L278.309 120.479L279.511 121.466C280.258 124.905 280.042 128.127 280.042 128.127L282.078 130.481Z" fill="#407BFF"/>
<path opacity="0.6" d="M218.595 126.293L214.837 129.732H212.66L213.202 126.445C213.44 126.26 213.689 126.087 213.938 125.924L216.667 125.512L218.595 126.293Z" fill="white"/>
<path opacity="0.6" d="M280.04 128.128L278.676 127.619C278.676 124.766 276.965 121.902 276.965 121.902L278.308 120.48L279.51 121.468C280.257 124.907 280.04 128.128 280.04 128.128Z" fill="white"/>
<path d="M277.15 119.535C268.237 121.673 228.785 121.152 228.785 121.152C229.013 120.924 229.229 120.696 229.457 120.479C233.518 116.4 236.16 114.383 237.644 113.417C238.673 112.734 239.149 112.571 239.149 112.571C256.076 111.388 272.223 113.211 272.223 113.211L277.15 119.535Z" fill="#263238"/>
<path opacity="0.2" d="M282.078 130.48L281.33 135.806L277.15 137.13C277.15 137.13 277.042 128.126 267.945 128.126C258.848 128.126 260.018 138.855 260.018 138.855H258.426L255.426 137.564H235.781L234.07 138.855H232.911C232.911 138.855 233.875 128.126 224.496 128.126C215.118 128.126 216.309 138.855 216.309 138.855L210.949 136.544L210.418 131.131H214.836C214.836 131.131 218.053 125.869 225.125 125.869C232.196 125.869 234.471 131.131 234.471 131.131H257.148C257.148 131.131 261.003 125.794 266.678 125.511C272.353 125.229 275.699 127.616 275.699 127.616H278.677L280.042 128.126L282.078 130.48Z" fill="black"/>
<path d="M331.449 124.438V138.996H309.27C309.27 138.996 310.742 134.016 311.89 130.632C312.453 128.95 312.941 127.649 313.125 127.551C316.06 125.945 322.947 124.98 331.449 124.438Z" fill="#263238"/>
<path opacity="0.2" d="M331.449 124.438V138.996H309.27C309.27 138.996 310.742 134.016 311.89 130.632C312.453 128.95 312.941 127.649 313.125 127.551C316.06 125.945 322.947 124.98 331.449 124.438Z" fill="black"/>
<path d="M321.593 143.346C325.17 143.346 328.069 140.441 328.069 136.858C328.069 133.276 325.17 130.371 321.593 130.371C318.017 130.371 315.117 133.276 315.117 136.858C315.117 140.441 318.017 143.346 321.593 143.346Z" fill="#263238"/>
<path opacity="0.2" d="M321.592 142.599C324.756 142.599 327.321 140.029 327.321 136.86C327.321 133.69 324.756 131.121 321.592 131.121C318.428 131.121 315.863 133.69 315.863 136.86C315.863 140.029 318.428 142.599 321.592 142.599Z" fill="white"/>
<path d="M323.12 118.243C326.293 116.301 329.033 114.718 331.448 113.438V140.916H329.336L328.979 138.996L328.156 134.559C327.669 131.901 325.362 129.981 322.665 129.981H320.077C317.576 129.981 315.388 131.641 314.706 134.049L313.309 138.996L312.767 140.916L303.984 139.777L305.1 132.303L305.273 131.12L306.984 129.981L310.341 122.257L313.46 121.281L323.12 118.243Z" fill="#407BFF"/>
<path opacity="0.7" d="M315.118 121.824L310.992 128.832L306.996 129.982L310.353 122.258L313.472 121.281C314.447 121.563 315.118 121.824 315.118 121.824Z" fill="white"/>
<path opacity="0.4" d="M331.448 115.359V119.547C329.163 119.579 326.932 119.46 325.016 119.113C325.016 119.113 328.113 117.258 331.448 115.359Z" fill="black"/>
<path opacity="0.2" d="M331.448 132.478V140.918H329.336L328.979 138.998L328.156 134.561C327.669 131.903 325.362 129.983 322.665 129.983H320.077C317.576 129.983 315.388 131.643 314.706 134.051L313.309 138.998L312.767 140.918L303.984 139.779L305.1 132.305L311.695 130.374L311.89 130.634L313.125 132.272C313.125 132.272 315.28 128.117 322.633 128.117C328.503 128.117 330.777 131.231 331.448 132.478Z" fill="black"/>
<path d="M261.975 170.893H230.526C227.699 170.893 225.414 168.604 225.414 165.773C225.414 162.941 227.699 160.652 230.526 160.652H261.975C264.801 160.652 267.086 162.941 267.086 165.773C267.086 168.604 264.801 170.893 261.975 170.893Z" fill="#407BFF"/>
<mask id="mask0_474_1488" style="mask-type:alpha" maskUnits="userSpaceOnUse" x="161" y="101" width="170" height="83">
<path d="M326.279 101H165.721C163.114 101 161 102.874 161 105.186V179.814C161 182.126 163.114 184 165.721 184H326.279C328.886 184 331 182.126 331 179.814V105.186C331 102.874 328.886 101 326.279 101Z" fill="white"/>
</mask>
<g mask="url(#mask0_474_1488)">
<path d="M111.194 137.149L182.961 137.262L182.978 126.64L111.211 126.528L111.194 137.149Z" fill="#455A64"/>
<path d="M186.716 118.815C186.716 118.815 184.92 119.016 184.602 118.812C183.881 118.347 168.173 112.018 154.675 112C143.85 111.985 134.103 114.858 124.621 121.186C124.621 121.186 113.077 122.46 108.568 125.839C107.513 126.451 105.362 128.86 106.183 134.337C106.705 137.831 109.306 137.978 112.858 137.899C112.858 137.899 111.536 127.29 120.992 128.101C129.026 128.791 127.488 138.598 127.488 138.598L167.742 138.66C167.742 138.66 167.919 134.304 168.089 133.248C168.43 131.134 171.057 127.671 175.962 128.185C181.341 128.75 183.131 133.659 182.787 137.802C182.787 137.802 188.462 139.029 189.229 134.463L190.582 134.042C190.582 134.042 191.103 124.572 186.375 120.589L187.391 119.914L186.716 118.813V118.815Z" fill="#407BFF"/>
<path d="M184.04 118.513C184.04 118.513 183.703 119.426 182.551 119.324C181.611 119.241 176.238 117.206 174.281 116.455C173.72 116.239 173.271 115.783 173.111 115.202C173.072 115.058 173.056 114.925 173.085 114.828C173.085 114.828 181.436 116.833 184.04 118.513Z" fill="#263238"/>
<g opacity="0.3">
<path d="M176.078 119.324C176.078 119.324 176.644 119.816 176.076 120.399C175.508 120.98 172.792 123 171.532 123.121C170.271 123.242 131.99 125.799 129.721 125.15C127.452 124.501 126.13 123.352 126.698 122.697L127.727 122.357L145.775 122.726L176.079 119.324H176.078Z" fill="white"/>
</g>
<g opacity="0.7">
<path d="M190.005 127.463C190.005 127.463 187.776 128.123 186.825 126.365C185.875 124.608 184.824 122.75 184.824 122.349C184.824 121.844 185.184 120.227 186.376 120.555C186.376 120.555 189.689 123.195 190.005 127.463Z" fill="white"/>
</g>
<path d="M175.701 119.323C175.701 119.323 172.354 122.236 170.904 122.233C169.454 122.232 131.236 124.551 129.535 123.863C127.834 123.175 126.949 122.612 126.949 122.612C126.949 122.612 139.42 113.63 153.953 114.062C164.618 114.378 175.701 119.322 175.701 119.322V119.323Z" fill="#263238"/>
<path d="M179.577 140.47C182.078 137.969 182.078 133.914 179.577 131.413C177.076 128.912 173.021 128.912 170.52 131.413C168.02 133.914 168.02 137.969 170.52 140.47C173.021 142.971 177.076 142.971 179.577 140.47Z" fill="#263238"/>
<path d="M175.054 131.68C172.698 131.676 170.79 133.585 170.785 135.941C170.782 138.291 172.684 140.205 175.04 140.21C177.396 140.213 179.304 138.305 179.309 135.955C179.312 133.599 177.411 131.685 175.054 131.681V131.68ZM171.632 135.942C171.635 134.055 173.166 132.523 175.053 132.526C176.94 132.529 178.466 134.067 178.463 135.954C178.459 137.841 176.929 139.367 175.041 139.364C173.154 139.36 171.628 137.83 171.632 135.942Z" fill="#1E282D"/>
<path d="M175.054 132.523C173.167 132.52 171.636 134.054 171.633 135.94C171.63 137.827 173.157 139.358 175.043 139.361C176.93 139.364 178.461 137.837 178.464 135.951C178.467 134.066 176.939 132.527 175.054 132.523Z" fill="#1E282D"/>
</g>
<path opacity="0.2" d="M192.25 142.076L197.524 149.127V135.035L192.25 142.076Z" fill="black"/>
<path opacity="0.2" d="M300.239 142.076L294.965 135.035V149.127L300.239 142.076Z" fill="black"/>
<path d="M184.561 307.805H174.043V418.009H184.561V307.805Z" fill="#263238"/>
<path opacity="0.2" d="M184.561 307.805H174.043V418.009H184.561V307.805Z" fill="black"/>
<path d="M259.862 307.805H249.344V418.009H259.862V307.805Z" fill="#263238"/>
<path opacity="0.2" d="M259.862 307.805H249.344V418.009H259.862V307.805Z" fill="black"/>
<path d="M84.1549 307.805H73.6367V418.009H84.1549V307.805Z" fill="#263238"/>
<path d="M8.85414 307.805H-1.66406V418.009H8.85414V307.805Z" fill="#263238"/>
<path d="M281.419 303.73V311.881C281.419 313.196 280.365 314.266 279.052 314.266H-11.6193C-12.9323 314.266 -14 313.196 -14 311.881V303.73C-14 302.429 -12.9323 301.359 -11.6193 301.359H279.052C280.365 301.359 281.419 302.429 281.419 303.73Z" fill="#263238"/>
<path opacity="0.1" d="M281.419 303.73V311.881C281.419 313.196 280.365 314.266 279.052 314.266H-11.6193C-12.9323 314.266 -14 313.196 -14 311.881V303.73C-14 302.429 -12.9323 301.359 -11.6193 301.359H279.052C280.365 301.359 281.419 302.429 281.419 303.73Z" fill="white"/>
<path opacity="0.2" d="M68.0535 303.73V311.881C68.0535 313.196 67.0003 314.266 65.6873 314.266H-11.6193C-12.9323 314.266 -14 313.196 -14 311.881V303.73C-14 302.429 -12.9323 301.359 -11.6193 301.359H65.6873C67.0003 301.359 68.0535 302.429 68.0535 303.73Z" fill="white"/>
<path d="M137.881 204.381L150.404 182.196L156.907 181.353C156.907 181.353 155.398 196.828 152.586 203.327C152.586 203.327 150.281 211.045 141.858 211.16C133.434 211.275 137.884 204.389 137.884 204.389L137.881 204.381Z" fill="#FFC7B1"/>
<path d="M131.777 174.918C136.811 178.529 135.95 188.652 137.931 191.547C139.668 204.022 143.721 193.863 143.721 193.863L154.724 195.6C154.724 195.6 155.351 202.227 149.512 210.657C143.674 219.101 132.552 217.857 126.445 204.31C120.338 190.763 131.792 174.918 131.792 174.918H131.777Z" fill="#407BFF"/>
<path d="M131.777 174.918C136.811 178.529 135.95 188.652 137.931 191.547C139.668 204.022 143.721 193.863 143.721 193.863L154.724 195.6C154.724 195.6 155.351 202.227 149.512 210.657C143.674 219.101 132.552 217.857 126.445 204.31C120.338 190.763 131.792 174.918 131.792 174.918H131.777Z" fill="white" fill-opacity="0.2"/>
<path d="M197.964 410.142L208.017 407.382L206.215 382.824L196.191 385.599L197.964 410.142Z" fill="#EBB376"/>
<path d="M208.628 406.038L196.981 406.843C196.579 406.843 196.251 407.187 196.266 407.604L196.341 416.899C196.415 417.899 197.279 418.675 198.277 418.615C202.343 418.272 204.264 417.899 209.388 417.496C212.53 417.272 218.771 417.123 223.031 416.123C227.29 415.139 226.188 410.946 224.312 410.991C219.828 411.066 213.558 408.604 210.475 406.5C209.939 406.142 209.298 405.978 208.643 406.023L208.628 406.038Z" fill="#263238"/>
<path d="M212.425 407.56C211.486 407.605 210.548 407.545 209.625 407.381C209.535 407.381 209.446 407.306 209.431 407.217C209.416 407.127 209.431 407.023 209.505 406.963C209.818 406.71 212.633 404.502 213.929 404.904C214.227 405.009 214.465 405.248 214.54 405.561C214.748 406.023 214.659 406.56 214.331 406.933C213.795 407.381 213.11 407.605 212.41 407.575L212.425 407.56ZM213.795 405.397C213.095 405.173 211.427 406.173 210.28 407.023C212.157 407.262 213.527 407.112 213.974 406.59C214.167 406.337 214.212 406.008 214.093 405.71C214.063 405.561 213.944 405.442 213.795 405.397Z" fill="#263238"/>
<path d="M209.687 407.38C209.687 407.38 209.628 407.41 209.583 407.395C209.509 407.365 209.464 407.291 209.434 407.216C209.434 407.127 208.973 404.113 209.941 403.024C210.209 402.74 210.566 402.591 210.953 402.621C211.385 402.606 211.758 402.889 211.877 403.292C212.19 404.411 210.79 406.694 209.807 407.38C209.762 407.395 209.717 407.395 209.673 407.38H209.687ZM210.834 403.143C210.641 403.143 210.462 403.248 210.328 403.397C209.747 404.038 209.792 405.769 209.881 406.739C210.715 405.918 211.594 404.202 211.43 403.456C211.4 403.322 211.296 403.158 210.953 403.143H210.834Z" fill="#263238"/>
<path opacity="0.2" d="M196.191 385.596L206.215 382.836L207.243 396.875L197.16 399.128L196.191 385.596Z" fill="black"/>
<path d="M184.843 409.782L175.355 414.109L172.942 403.904L169.695 390.178L179.153 385.836L182.4 399.547L184.843 409.782Z" fill="#EBB376"/>
<path opacity="0.2" d="M182.4 399.547L172.942 403.904L169.695 390.178L179.153 385.836L182.4 399.547Z" fill="black"/>
<path d="M185.229 408.365L173.85 411.021C173.448 411.095 173.18 411.483 173.255 411.886L174.804 421.047C175.027 422.031 176.01 422.643 176.993 422.434C180.955 421.435 182.787 420.763 187.776 419.555C190.844 418.824 196.981 417.69 201.032 416.034C205.083 414.378 203.326 410.424 201.479 410.767C197.07 411.558 190.487 410.126 187.106 408.544C186.51 408.276 185.855 408.216 185.229 408.365Z" fill="#263238"/>
<path d="M189.223 409.261C188.3 409.455 187.376 409.544 186.438 409.529C186.349 409.529 186.259 409.485 186.215 409.395C186.185 409.305 186.2 409.201 186.245 409.126C186.513 408.828 188.925 406.187 190.296 406.381C190.608 406.426 190.877 406.635 190.996 406.933C191.264 407.351 191.279 407.888 191.011 408.321C190.549 408.843 189.923 409.186 189.223 409.261ZM190.236 406.903C189.506 406.799 188.032 408.037 187.019 409.067C188.911 409.007 190.236 408.634 190.608 408.052C190.757 407.769 190.743 407.441 190.579 407.172C190.519 407.023 190.385 406.918 190.236 406.903Z" fill="#263238"/>
<path d="M186.479 409.515C186.479 409.515 186.42 409.56 186.39 409.56C186.315 409.53 186.256 409.485 186.211 409.41C186.196 409.321 185.273 406.426 186.047 405.188C186.256 404.875 186.598 404.666 186.986 404.621C187.403 404.532 187.835 404.755 188.013 405.143C188.49 406.188 187.477 408.679 186.613 409.5C186.569 409.53 186.524 409.53 186.479 409.53V409.515ZM186.926 405.143C186.732 405.188 186.569 405.307 186.479 405.472C186.003 406.203 186.315 407.889 186.569 408.843C187.269 407.903 187.864 406.068 187.581 405.367C187.522 405.233 187.403 405.084 187.06 405.128H186.941L186.926 405.143Z" fill="#263238"/>
<path d="M114.528 270.357L111.475 236.43L54.9224 237.758C54.9224 237.758 48.2201 285.023 53.0904 293.706C61.7736 309.208 118.788 300.405 132.118 301.733C137.554 304.642 166.702 401.351 166.702 401.351L183.011 394.757C183.011 394.757 165.466 313.131 161.474 297.749C155.919 276.369 133.265 276.742 114.543 270.342L114.528 270.357Z" fill="#407BFF"/>
<path opacity="0.6" d="M114.528 270.357L111.475 236.43L54.9224 237.758C54.9224 237.758 48.2201 285.023 53.0904 293.706C61.7736 309.208 118.788 300.405 132.118 301.733C137.554 304.642 166.702 401.351 166.702 401.351L183.011 394.757C183.011 394.757 165.466 313.131 161.474 297.749C155.919 276.369 133.265 276.742 114.543 270.342L114.528 270.357Z" fill="white"/>
<path d="M208.242 393.104L193.854 394.431C193.854 394.431 176.205 304.422 174.849 304.049C172.392 303.347 165.243 302.542 161.4 301.542C134.695 294.59 68.9531 281.788 68.9531 281.788L93.2006 258.395C93.2006 258.395 203.133 271.613 205.576 297.454C206.752 309.882 208.257 393.104 208.257 393.104H208.242Z" fill="#407BFF"/>
<path opacity="0.6" d="M208.242 393.104L193.854 394.431C193.854 394.431 176.205 304.422 174.849 304.049C172.392 303.347 165.243 302.542 161.4 301.542C134.695 294.59 68.9531 281.788 68.9531 281.788L93.2006 258.395C93.2006 258.395 203.133 271.613 205.576 297.454C206.752 309.882 208.257 393.104 208.257 393.104H208.242Z" fill="white"/>
<path opacity="0.2" d="M170.947 304.122C168.49 303.42 165.228 302.555 161.385 301.555C162.443 302.122 159.36 288.098 156.277 284.473C150.155 277.251 125.595 273.343 116.793 271.925C109.42 270.747 84.7109 268.553 84.7109 268.553C84.7109 268.553 125.101 267.459 158.002 276.5C165.768 280.68 174.596 294.185 170.962 304.122H170.947Z" fill="black"/>
<path d="M112.754 243.368C116.06 224.375 121.631 198.922 131.922 175.125C126.501 172.828 120.931 170.933 115.241 169.456C106.93 167.203 98.5002 165.428 89.9957 164.145C84.1126 163.518 78.1848 163.354 72.2719 163.652C72.2719 163.652 59.5226 187.509 53.0586 243.368H112.754Z" fill="#407BFF"/>
<path d="M94.3485 180.244C94.3485 180.244 79.5141 168.382 77.6374 161.37C75.7608 154.358 84.4737 149.629 96.6868 152.329C108.9 155.029 120.204 162.728 116.6 171.799C112.996 180.87 106.681 182.929 106.681 182.929C106.681 182.929 104.059 177.722 94.3485 180.244Z" fill="#407BFF"/>
<path d="M124.61 186.803L127.506 185.645L133.832 182.553L135.727 174.537C136.028 173.284 136.796 172.198 137.873 171.497C139.017 170.754 140.42 170.52 141.747 170.837L147.233 173.084C147.693 173.267 148.043 173.66 148.135 174.144C148.21 174.553 148.11 174.946 147.409 174.887C146.048 174.779 143.209 174.478 143.209 174.478L144.503 179.046C144.845 180.24 144.712 181.526 144.136 182.628L143.309 184.206L141.747 185.645L140.246 186.803C140.246 186.803 131.289 197.762 121.136 198.964C115.032 199.69 110.133 194.331 110.133 194.331L111.871 192.357L124.61 186.803Z" fill="#FFC7B1"/>
<path d="M143.375 174.798C143.375 174.798 143.233 174.606 142.924 174.397C142.615 174.196 142.123 173.938 141.513 173.963C140.887 173.996 140.427 174.405 140.269 174.764C140.102 175.14 140.21 175.391 140.235 175.382C140.286 175.382 140.252 175.14 140.436 174.856C140.611 174.581 141.02 174.263 141.53 174.238C142.047 174.213 142.507 174.414 142.832 174.572C143.158 174.731 143.358 174.839 143.375 174.806V174.798Z" fill="#AA6550"/>
<path d="M141.028 177.645C141.028 177.645 141.145 177.495 141.328 177.269C141.504 177.052 141.796 176.777 142.188 176.626C142.581 176.468 142.982 176.468 143.257 176.51C143.541 176.551 143.708 176.61 143.733 176.576C143.75 176.551 143.6 176.418 143.299 176.317C143.007 176.226 142.547 176.192 142.088 176.368C141.629 176.551 141.32 176.885 141.17 177.161C141.011 177.436 140.994 177.628 141.028 177.645Z" fill="#AA6550"/>
<path opacity="0.2" d="M94.3485 180.244C94.3485 180.244 79.5141 168.382 77.6374 161.37C75.7608 154.358 84.4737 149.629 96.6868 152.329C108.9 155.029 120.204 162.728 116.6 171.799C112.996 180.87 106.681 182.929 106.681 182.929C106.681 182.929 104.059 177.722 94.3485 180.244Z" fill="white"/>
<path d="M102.955 143.699C100.691 151.86 95.7993 165.447 88.1289 167.805C88.1289 167.805 93.3187 177.835 101.779 178.611C107.155 179.103 110.134 173.016 110.134 173.016C104.653 171.987 106.738 167.959 111.072 162.916L102.955 143.714V143.699Z" fill="#FFBF9D"/>
<path opacity="0.2" d="M107.367 150.645L112.163 162.013C111.135 163.177 110.212 164.43 109.407 165.758C104.016 166.161 100.143 157.597 101.469 154.121C101.945 152.689 106.414 151.808 107.382 150.645H107.367Z" fill="black"/>
<path d="M112.159 212.9H112.13C111.921 212.9 111.772 212.706 111.787 212.497C113.023 194.221 106.917 182.285 106.857 182.181C106.768 182.002 106.827 181.778 107.021 181.674C107.2 181.584 107.423 181.644 107.527 181.838C107.587 181.957 113.798 194.057 112.547 212.557C112.547 212.751 112.368 212.9 112.174 212.9H112.159Z" fill="white"/>
<path d="M89.5977 206.397C89.5977 206.397 89.4637 206.383 89.4041 206.353C89.2254 206.248 89.1658 206.024 89.2701 205.845C95.9575 194.462 93.9915 179.035 93.9766 178.871C93.9468 178.662 94.0957 178.483 94.2893 178.453C94.4829 178.423 94.6766 178.572 94.7064 178.766C94.7213 178.93 96.7171 194.596 89.9105 206.218C89.836 206.338 89.7169 206.397 89.5828 206.397H89.5977Z" fill="white"/>
<path d="M111.877 212.277C111.877 212.277 113.069 212.337 112.86 214.277L111.118 214.098C111.118 214.098 110.924 212.471 111.877 212.277Z" fill="white"/>
<path d="M89.7148 205.34C89.7148 205.34 90.7127 206.011 89.536 207.563L88.1211 206.519C88.1211 206.519 88.7764 205.027 89.7148 205.34Z" fill="white"/>
<path d="M73.6885 163.669C79.4227 164.997 93.1699 188.808 100.513 193.195C107.855 197.581 128.171 183.467 128.171 183.467L135.126 192.135C135.126 192.135 118.668 206.667 104.266 207.01C89.8634 207.353 69.4437 186.958 66.4053 179.469C63.3669 171.994 66.7181 162.043 73.6885 163.654V163.669Z" fill="#407BFF"/>
<path opacity="0.2" d="M73.6885 163.669C79.4227 164.997 93.1699 188.808 100.513 193.195C107.855 197.581 128.171 183.467 128.171 183.467L135.126 192.135C135.126 192.135 118.668 206.667 104.266 207.01C89.8634 207.353 69.4437 186.958 66.4053 179.469C63.3669 171.994 66.7181 162.043 73.6885 163.654V163.669Z" fill="white"/>
<path d="M123.014 136.774C124.884 137.311 127.075 136.234 127.799 134.424C128.523 132.615 127.671 130.326 125.947 129.425C127.34 128.404 127.964 126.465 127.438 124.818C126.909 123.18 125.261 121.964 123.534 121.953C123.743 120.262 123.01 118.488 121.667 117.441C120.324 116.394 118.425 116.106 116.836 116.724C115.246 114.827 112.274 114.265 110.102 115.456C108.52 114.878 106.601 115.452 105.594 116.793C104.586 118.133 104.564 120.136 105.551 121.496" fill="#263238"/>
<path d="M121.128 158.852C121.908 154.551 122.793 145.564 123.493 137.417C124.248 128.664 118.156 120.792 109.489 119.338L108.631 119.194C99.2566 118.174 93.1493 125.571 92.3893 134.969L88.1241 167.805L110.129 173.017L110.349 167.651C110.349 167.651 119.509 167.768 121.124 158.86L121.128 158.852Z" fill="#FFBF9D"/>
<path d="M110.43 167.646C110.43 167.646 104.676 167.029 99.3125 162.254C99.3125 162.254 100.98 169.138 110.028 169.835L110.438 167.65L110.43 167.646Z" fill="#FF9A6C"/>
<path d="M118.368 144.556C118.281 145.235 117.632 145.712 116.922 145.632C116.211 145.551 115.708 144.939 115.803 144.264C115.889 143.585 116.538 143.107 117.249 143.188C117.959 143.269 118.462 143.88 118.368 144.556Z" fill="#263238"/>
<path d="M120.839 141.459C120.652 141.602 119.81 140.72 118.436 140.492C117.07 140.247 115.942 140.782 115.823 140.586C115.762 140.502 115.977 140.226 116.468 139.981C116.952 139.732 117.746 139.549 118.592 139.697C119.446 139.849 120.114 140.279 120.469 140.672C120.831 141.069 120.927 141.39 120.843 141.451L120.839 141.459Z" fill="#263238"/>
<path d="M106.204 142.634C106.117 143.313 105.468 143.79 104.758 143.71C104.047 143.629 103.544 143.018 103.639 142.342C103.725 141.663 104.374 141.185 105.085 141.266C105.795 141.347 106.298 141.958 106.204 142.634Z" fill="#263238"/>
<path d="M107.452 139.529C107.278 139.687 106.368 138.873 104.978 138.754C103.598 138.61 102.519 139.233 102.384 139.05C102.312 138.971 102.505 138.676 102.983 138.396C103.452 138.112 104.215 137.867 105.08 137.946C105.946 138.026 106.643 138.41 107.028 138.777C107.425 139.14 107.54 139.46 107.452 139.529Z" fill="#263238"/>
<path d="M110.576 150.459C110.58 150.383 111.464 150.373 112.871 150.432C113.227 150.458 113.573 150.441 113.671 150.212C113.792 149.973 113.712 149.572 113.61 149.131C113.424 148.23 113.227 147.285 113.023 146.288C112.222 142.25 111.712 138.956 111.873 138.919C112.031 138.889 112.813 142.135 113.615 146.173C113.802 147.162 113.983 148.12 114.158 149.026C114.219 149.449 114.376 149.942 114.111 150.429C113.974 150.68 113.684 150.817 113.45 150.843C113.213 150.877 113.015 150.841 112.839 150.824C111.438 150.662 110.576 150.526 110.58 150.45L110.576 150.459Z" fill="#263238"/>
<path d="M107.741 134.816C107.6 135.191 106.366 134.955 104.887 135.088C103.414 135.185 102.216 135.612 102.036 135.264C101.954 135.094 102.176 134.753 102.673 134.404C103.159 134.06 103.933 133.742 104.814 133.673C105.695 133.604 106.495 133.791 107.018 134.062C107.544 134.325 107.798 134.637 107.741 134.816Z" fill="#263238"/>
<path d="M121.369 137.632C121.033 137.875 120.09 137.318 118.864 137.018C117.647 136.672 116.545 136.695 116.386 136.318C116.319 136.135 116.55 135.866 117.073 135.683C117.588 135.496 118.398 135.435 119.232 135.656C120.067 135.877 120.736 136.326 121.092 136.74C121.456 137.156 121.517 137.511 121.369 137.632Z" fill="#263238"/>
<path d="M123.317 133.183C123.317 133.183 121.903 127.201 119.424 125.437C116.425 123.306 114.419 126.648 111.461 125.26C108.494 123.868 105.64 121.828 102.057 123.695C98.1383 125.737 99.4584 127.858 98.5753 131.786C94.9991 147.694 91.3052 151.748 91.7407 144.039C91.7897 143.199 89.5973 142.148 89.8488 138.588C90.1723 133.976 90.922 128.433 92.484 125.385C93.7956 122.81 95.6637 121.198 98.7843 119.599C103.714 117.069 109.744 118.016 113.764 119.113C117.785 120.21 124.875 126.244 123.32 133.175L123.317 133.183Z" fill="#263238"/>
<path d="M92.3557 143.895C92.5311 142.509 91.5243 141.219 90.135 141.119C88.4453 140.998 86.4343 141.63 85.9654 145.086C85.136 151.224 91.4644 150.79 91.498 150.621C91.5189 150.504 92.0325 146.466 92.3557 143.895Z" fill="#FFBF9D"/>
<path d="M90.4702 148.128C90.4702 148.128 90.3582 148.187 90.1585 148.247C89.9704 148.302 89.6643 148.316 89.3556 148.155C88.7417 147.826 88.3323 146.722 88.4567 145.615C88.5225 145.052 88.7028 144.539 88.965 144.129C89.2144 143.703 89.5446 143.428 89.8787 143.416C90.2117 143.384 90.4165 143.607 90.4717 143.795C90.5304 143.974 90.478 144.097 90.5026 144.108C90.5154 144.123 90.645 144.023 90.6294 143.765C90.6257 143.638 90.5647 143.486 90.4406 143.346C90.3084 143.202 90.1037 143.115 89.8759 143.105C89.3957 143.074 88.916 143.45 88.6328 143.91C88.3251 144.359 88.097 144.939 88.0314 145.568C87.8989 146.808 88.3764 148.047 89.2287 148.43C89.6461 148.608 90.0234 148.518 90.2276 148.402C90.4354 148.278 90.4913 148.147 90.4702 148.128Z" fill="#FF9A6C"/>
<path d="M94.4603 132.089C95.1589 132.765 95.9066 133.461 96.8428 133.715C97.7791 133.97 98.9691 133.607 99.2843 132.687C99.4309 132.276 99.4079 131.763 99.7416 131.479C100.136 131.145 100.736 131.372 101.238 131.509C102.986 131.993 105.006 131.046 105.747 129.399C106.084 130.152 107.141 130.303 107.903 129.97C108.66 129.645 109.227 128.997 109.866 128.476C110.504 127.955 111.351 127.533 112.136 127.781C112.579 127.922 112.954 128.266 113.415 128.298C114.228 128.364 114.777 127.486 115.029 126.713C115.282 125.941 115.537 125.024 116.292 124.707C116.988 124.414 117.759 124.782 118.483 125.014C119.206 125.245 120.187 125.238 120.492 124.546C120.649 124.177 120.556 123.76 120.402 123.395C119.705 121.743 117.741 120.721 115.987 121.114C115.728 119.001 114.107 117.109 112.059 116.535C110.003 115.958 107.638 116.739 106.324 118.413C105.232 117.027 103.44 116.215 101.673 116.321C99.9087 116.42 98.2196 117.431 97.2977 118.934C95.8795 118.29 94.0912 118.581 92.9431 119.639C91.7951 120.697 91.3667 122.449 91.8901 123.921C90.685 124.364 89.5613 125.297 89.3261 126.551C89.0874 127.813 90.1085 129.274 91.3806 129.15C90.7254 130.05 90.9016 131.451 91.758 132.165C92.6178 132.87 94.028 132.785 94.7838 131.966" fill="#263238"/>
<path d="M116.154 122.993C116.154 122.993 116.156 123.033 116.136 123.102C116.117 123.171 116.096 123.288 116.04 123.419C115.933 123.692 115.753 124.09 115.397 124.518C115.043 124.938 114.522 125.412 113.804 125.734C113.094 126.06 112.164 126.244 111.182 126.028L111.311 125.909C111.412 126.465 111.254 127.084 110.901 127.572C110.56 128.075 110.091 128.494 109.601 128.894C109.354 129.089 109.129 129.322 108.8 129.481C108.482 129.636 108.13 129.689 107.767 129.679C107.064 129.65 106.321 129.304 105.926 128.642L106.168 128.619C105.806 129.809 104.915 130.9 103.689 131.46C103.038 131.782 102.277 131.912 101.579 131.779C100.878 131.654 100.249 131.337 99.6792 131.016L99.8521 130.974C99.3964 131.679 98.7804 132.239 98.0893 132.611C97.4064 132.987 96.5618 133.13 95.8662 132.833C94.4738 132.288 93.7181 130.93 93.7198 129.77L93.8484 129.854C93.0672 130.12 92.2924 130.031 91.7009 129.808C91.0977 129.589 90.6496 129.233 90.3512 128.913C90.0481 128.58 89.8899 128.271 89.7972 128.057C89.7163 127.839 89.6892 127.721 89.6927 127.713C89.7312 127.69 89.8185 128.211 90.4305 128.84C90.736 129.145 91.1746 129.477 91.7603 129.669C92.3342 129.865 93.0681 129.937 93.7979 129.677L93.9229 129.634L93.9231 129.769C93.9446 130.852 94.6675 132.128 95.957 132.621C96.5872 132.889 97.3324 132.753 97.9768 132.399C98.6212 132.045 99.2103 131.503 99.6369 130.844L99.7022 130.736L99.8168 130.785C100.375 131.11 100.979 131.416 101.628 131.529C102.281 131.653 102.96 131.536 103.583 131.231C104.735 130.707 105.57 129.68 105.925 128.554L106.016 128.274L106.167 128.532C106.504 129.101 107.161 129.42 107.801 129.442C108.112 129.459 108.436 129.403 108.712 129.279C108.979 129.151 109.212 128.922 109.468 128.731C109.954 128.339 110.408 127.933 110.731 127.471C111.062 127.012 111.205 126.473 111.119 125.972L111.098 125.818L111.248 125.853C112.17 126.072 113.061 125.911 113.749 125.614C114.456 125.316 114.964 124.875 115.327 124.478C116.038 123.65 116.13 123.003 116.171 123.02L116.154 122.993Z" fill="#455A64"/>
<path d="M106.24 151.619C107.858 152.203 109.4 152.987 110.829 153.945L110.84 153.989C110.464 155.096 109.914 156.293 108.833 156.741C108.024 157.073 107.052 156.88 106.38 156.323C105.709 155.765 105.344 155.01 105.347 154.141C105.351 153.271 105.834 152.365 106.231 151.616L106.24 151.619Z" fill="#FF9A6C"/>
<path d="M107.794 156.77C107.809 156.689 107.059 156.814 106.317 156.081C105.957 155.724 105.645 155.185 105.589 154.523C105.525 153.857 105.696 153.117 106.047 152.406C106.125 152.246 106.243 152.015 106.318 151.931C106.368 151.904 106.285 151.917 106.349 151.925L106.595 152.03C106.936 152.205 107.265 152.364 107.593 152.524C108.188 152.807 108.763 153.071 109.304 153.322C110.284 153.769 110.904 154.014 110.929 153.957C110.953 153.9 110.386 153.551 109.443 153.042C108.915 152.759 108.363 152.466 107.779 152.158C107.453 151.99 107.128 151.822 106.787 151.648C106.689 151.606 106.63 151.562 106.508 151.509C106.387 151.429 106.08 151.491 106.001 151.631C105.827 151.857 105.772 152.008 105.657 152.21C105.284 152.97 105.092 153.807 105.193 154.567C105.275 155.327 105.676 155.953 106.112 156.313C106.541 156.69 107.016 156.824 107.324 156.85C107.645 156.87 107.808 156.805 107.799 156.781L107.794 156.77Z" fill="#263238"/>
<path d="M147.297 162.731L155.3 160.763C156.508 160.465 157.94 161.601 157.785 162.86L153.589 180.515C153.43 181.199 152.892 181.736 152.211 181.903L142.45 184.278C141.294 184.399 140.583 183.258 140.88 182.471L144.872 165.211C145.138 163.985 146.079 163.022 147.295 162.723L147.297 162.731Z" fill="#455A64"/>
<path d="M148.073 163.538L156.076 161.569C157.082 161.322 157.99 162.216 157.747 163.222L153.661 180.488C153.503 181.172 152.964 181.709 152.283 181.877L142.634 184.25C142.042 184.395 141.51 183.873 141.648 183.28L145.64 166.019C145.906 164.793 146.847 163.831 148.063 163.531L148.073 163.538Z" fill="#263238"/>
<path d="M150.005 169.335L155.406 169.491L157.808 172.915L156.694 183.645L149.733 183.645L151.258 180.259L150.149 178.201C150.149 178.201 147.561 178.322 147.377 177.989C147.193 177.657 147.101 176.339 147.431 176.147C147.764 175.962 150.532 175.971 150.532 175.971C150.532 175.971 146.811 174.746 146.763 174.346C146.706 173.949 146.678 172.901 147.21 172.581C147.745 172.27 153.204 172.752 153.204 172.752L154.588 174.201L154.239 171.208C154.239 171.208 149.682 171.561 150.015 169.313L150.005 169.335Z" fill="#FFC7B1"/>
<path d="M152.67 178.451C152.67 178.451 152.727 178.244 152.655 177.923C152.59 177.6 152.405 177.17 152.077 176.783C151.749 176.397 151.348 176.152 151.046 176.032C150.736 175.914 150.538 175.906 150.53 175.936C150.504 176.008 151.276 176.223 151.881 176.953C152.496 177.661 152.594 178.462 152.67 178.451Z" fill="#AA6550"/>
<path d="M154.61 176.808C154.61 176.808 154.3 176.398 153.971 175.646C153.791 175.276 153.6 174.804 153.236 174.368C153.05 174.152 152.83 173.939 152.538 173.797C152.246 173.655 151.917 173.606 151.592 173.592C150.313 173.598 149.181 173.639 148.347 173.669C147.516 173.706 147.005 173.742 147.008 173.777C147.012 173.811 147.52 173.838 148.35 173.846C149.175 173.864 150.326 173.851 151.578 173.846C151.885 173.858 152.177 173.902 152.423 174.017C152.669 174.131 152.881 174.32 153.05 174.516C153.4 174.913 153.609 175.361 153.804 175.725C154.186 176.475 154.585 176.836 154.61 176.808Z" fill="#AA6550"/>
<path d="M155.38 175.557C155.44 175.526 155.28 175.114 155.01 174.644C154.74 174.173 154.476 173.816 154.419 173.855C154.359 173.886 154.519 174.299 154.789 174.769C155.059 175.239 155.323 175.596 155.38 175.557Z" fill="#AA6550"/>
<path d="M152.431 165.604C152.569 166.163 152.228 166.737 151.661 166.877C151.093 167.016 150.527 166.674 150.388 166.106C150.248 165.539 150.59 164.973 151.158 164.833C151.726 164.694 152.291 165.036 152.431 165.604Z" fill="#FAFAFA"/>
<path d="M58.8438 242.621C58.8438 242.621 68.2354 249.662 71.6043 265.516C74.9732 281.357 87.6126 316.403 58.8438 302.564L59.583 299.287C59.583 299.287 68.7565 307.129 72.1133 301.848C75.458 296.567 73.725 268.235 60.2131 253.182L58.8438 242.621Z" fill="#263238"/>
<path d="M39.4648 236.052C39.4648 236.052 42.8822 229.169 47.9113 229.012C52.9404 228.854 54.6976 230.286 54.3825 235.251L52.1164 235.409C52.1164 235.409 54.4067 231.257 48.9414 231.087C43.476 230.917 41.9127 236.052 41.9127 236.052H39.4648Z" fill="#263238"/>
<path d="M12.0422 305.257C12.0422 305.257 7.619 277.834 19.1314 269.519C19.1314 269.519 17.3015 263.765 26.572 244.852C30.4136 237.01 33.6734 234.85 36.9211 234.716L59.3642 233.781C61.7273 233.684 63.7753 235.396 64.0904 237.751C65.6657 249.477 69.4709 283.467 64.1994 305.257H12.0543H12.0422Z" fill="#263238"/>
<path opacity="0.1" d="M12.0422 305.257C12.0422 305.257 7.619 277.834 19.1314 269.519C19.1314 269.519 17.3015 263.765 26.572 244.852C30.4136 237.01 33.6734 234.85 36.9211 234.716L59.3642 233.781C61.7273 233.684 63.7753 235.396 64.0904 237.751C65.6657 249.477 69.4709 283.467 64.1994 305.257H12.0543H12.0422Z" fill="white"/>
<path d="M48.0942 263.767C50.3118 263.852 52.0447 261.8 51.5358 259.64C50.4936 255.172 47.5852 248.642 39.4659 247.428C30.765 246.129 25.2511 254.007 22.6942 258.96C21.7853 260.732 23.0214 262.844 25.0209 262.917L48.0942 263.767Z" fill="#263238"/>
<path d="M15.7029 276.389C16.2725 274.423 45.2716 275.588 47.1863 276.389C49.101 277.19 46.7864 297.353 45.0656 299.283C43.3448 301.201 15.0607 299.927 12.9036 299.283C10.7465 298.64 11.0616 292.558 15.7029 276.389Z" fill="#263238"/>
<path opacity="0.2" d="M48.0942 263.767C50.3118 263.852 52.0447 261.8 51.5358 259.64C50.4936 255.172 47.5852 248.642 39.4659 247.428C30.765 246.129 25.2511 254.007 22.6942 258.96C21.7853 260.732 23.0214 262.844 25.0209 262.917L48.0942 263.767Z" fill="white"/>
<path opacity="0.2" d="M15.7029 276.389C16.2725 274.423 45.2716 275.588 47.1863 276.389C49.101 277.19 46.7864 297.353 45.0656 299.283C43.3448 301.201 15.0607 299.927 12.9036 299.283C10.7465 298.64 11.0616 292.558 15.7029 276.389Z" fill="white"/>
<path d="M62.1999 283.724C62.1999 283.724 62.1515 283.724 62.1151 283.724C61.7879 283.676 61.5456 283.372 61.594 283.045C63.1452 271.355 60.6852 242.901 60.1641 240.849C59.6672 238.834 58.3948 237.754 56.4074 237.62C53.911 237.462 33.9522 237.62 33.7583 237.62C33.4311 237.62 33.1523 237.353 33.1523 237.013C33.1523 236.673 33.4189 236.406 33.7583 236.406C34.5823 236.406 53.9595 236.248 56.5043 236.406C59.0128 236.564 60.7336 238.033 61.3638 240.546C61.8485 242.476 64.454 270.893 62.818 283.19C62.7816 283.494 62.515 283.712 62.2121 283.712L62.1999 283.724Z" fill="#263238"/>
<path d="M43.8895 280.847C43.8895 280.847 43.8046 280.847 43.7683 280.847C36.7881 279.439 16.6838 280.203 16.4899 280.216C16.1749 280.216 15.8719 279.973 15.8598 279.633C15.8477 279.293 16.1022 279.014 16.4415 279.002C17.2776 278.965 36.8972 278.213 44.0107 279.657C44.3378 279.718 44.556 280.046 44.4833 280.373C44.4227 280.665 44.1682 280.859 43.8895 280.859V280.847Z" fill="#263238"/>
<path d="M49.5831 259.395C49.3286 259.395 49.0862 259.237 49.0014 258.97C47.6684 254.867 44.348 248.093 37.0527 248.664C29.5757 249.271 26.3644 257.416 26.3401 257.489C26.219 257.805 25.8675 257.963 25.5524 257.841C25.2374 257.72 25.0798 257.368 25.201 257.052C25.3464 256.688 28.7153 248.106 36.9558 247.45C45.0872 246.77 48.7227 254.151 50.1526 258.594C50.2617 258.909 50.0799 259.249 49.7649 259.359C49.7043 259.383 49.6437 259.383 49.5831 259.383V259.395Z" fill="#263238"/>
</svg>
