<svg width="375" height="429" viewBox="0 0 375 429" fill="none" xmlns="http://www.w3.org/2000/svg">
<path d="M249.211 30.0625H175.645V263.224H249.211V30.0625Z" fill="#F5F5F5"/>
<path d="M249.22 30.0625H212.432V262.588H249.22V30.0625Z" fill="#EBEBEB"/>
<path d="M210.02 7.17578H184.045V30.0647H210.02V7.17578Z" fill="#F5F5F5"/>
<path d="M210.03 7.17578H203.838V30.0647H210.03V7.17578Z" fill="#EBEBEB"/>
<path d="M169.51 30.0655V28.7344H251.372V30.0655" fill="#E0E0E0"/>
<path d="M196.401 40.0469H190.17V53.1745H196.401V40.0469Z" fill="#FAFAFA"/>
<path d="M212.433 58.3367C212.433 58.4718 204.195 58.5875 194.039 58.5875C183.882 58.5875 175.645 58.4718 175.645 58.3367C175.645 58.2017 183.882 58.0859 194.039 58.0859C204.195 58.0859 212.433 58.2017 212.433 58.3367Z" fill="#E0E0E0"/>
<path d="M233.506 40.0469H227.275V53.1745H233.506V40.0469Z" fill="#E0E0E0"/>
<path d="M249.538 58.3367C249.538 58.4718 241.301 58.5875 231.144 58.5875C220.987 58.5875 212.75 58.4718 212.75 58.3367C212.75 58.2017 220.987 58.0859 231.144 58.0859C241.301 58.0859 249.538 58.2017 249.538 58.3367Z" fill="#E0E0E0"/>
<path d="M233.506 66.1211H227.275V79.2487H233.506V66.1211Z" fill="#E0E0E0"/>
<path d="M249.538 84.407C249.538 84.5421 241.301 84.6578 231.144 84.6578C220.987 84.6578 212.75 84.5421 212.75 84.407C212.75 84.272 220.987 84.1562 231.144 84.1562C241.301 84.1562 249.538 84.272 249.538 84.407Z" fill="#E0E0E0"/>
<path d="M233.506 92.9727H227.275V106.1H233.506V92.9727Z" fill="#E0E0E0"/>
<path d="M249.538 111.263C249.538 111.398 241.301 111.513 231.144 111.513C220.987 111.513 212.75 111.398 212.75 111.263C212.75 111.127 220.987 111.012 231.144 111.012C241.301 111.012 249.538 111.127 249.538 111.263Z" fill="#E0E0E0"/>
<path d="M233.506 119.836H227.275V132.964H233.506V119.836Z" fill="#E0E0E0"/>
<path d="M249.538 138.126C249.538 138.261 241.301 138.377 231.144 138.377C220.987 138.377 212.75 138.261 212.75 138.126C212.75 137.991 220.987 137.875 231.144 137.875C241.301 137.875 249.538 137.991 249.538 138.126Z" fill="#E0E0E0"/>
<path d="M233.506 145.926H227.275V159.053H233.506V145.926Z" fill="#E0E0E0"/>
<path d="M249.538 164.204C249.538 164.339 241.301 164.455 231.144 164.455C220.987 164.455 212.75 164.339 212.75 164.204C212.75 164.069 220.987 163.953 231.144 163.953C241.301 163.953 249.538 164.069 249.538 164.204Z" fill="#E0E0E0"/>
<path d="M233.506 172.113H227.275V185.241H233.506V172.113Z" fill="#E0E0E0"/>
<path d="M233.506 198.66H227.275V211.788H233.506V198.66Z" fill="#E0E0E0"/>
<path d="M249.538 190.403C249.538 190.538 241.301 190.654 231.144 190.654C220.987 190.654 212.75 190.538 212.75 190.403C212.75 190.268 220.987 190.152 231.144 190.152C241.301 190.152 249.538 190.268 249.538 190.403Z" fill="#E0E0E0"/>
<path d="M196.401 66.5156H190.17V79.6432H196.401V66.5156Z" fill="#FAFAFA"/>
<path d="M212.433 84.8016C212.433 84.9366 204.195 85.0523 194.039 85.0523C183.882 85.0523 175.645 84.9366 175.645 84.8016C175.645 84.6665 183.882 84.5508 194.039 84.5508C204.195 84.5508 212.433 84.6665 212.433 84.8016Z" fill="#E0E0E0"/>
<path d="M196.401 92.9844H190.17V106.112H196.401V92.9844Z" fill="#FAFAFA"/>
<path d="M212.433 111.27C212.433 111.405 204.195 111.521 194.039 111.521C183.882 111.521 175.645 111.405 175.645 111.27C175.645 111.135 183.882 111.02 194.039 111.02C204.195 111.02 212.433 111.135 212.433 111.27Z" fill="#E0E0E0"/>
<path d="M196.401 119.449H190.17V132.577H196.401V119.449Z" fill="#FAFAFA"/>
<path d="M212.433 137.739C212.433 137.874 204.195 137.99 194.039 137.99C183.882 137.99 175.645 137.874 175.645 137.739C175.645 137.604 183.882 137.488 194.039 137.488C204.195 137.488 212.433 137.604 212.433 137.739Z" fill="#E0E0E0"/>
<path d="M196.401 145.926H190.17V159.053H196.401V145.926Z" fill="#FAFAFA"/>
<path d="M212.433 164.204C212.433 164.339 204.195 164.455 194.039 164.455C183.882 164.455 175.645 164.339 175.645 164.204C175.645 164.069 183.882 163.953 194.039 163.953C204.195 163.953 212.433 164.069 212.433 164.204Z" fill="#E0E0E0"/>
<path d="M196.401 172.395H190.17V185.522H196.401V172.395Z" fill="#FAFAFA"/>
<path d="M212.433 190.673C212.433 190.808 204.195 190.923 194.039 190.923C183.882 190.923 175.645 190.808 175.645 190.673C175.645 190.538 183.882 190.422 194.039 190.422C204.195 190.422 212.433 190.538 212.433 190.673Z" fill="#E0E0E0"/>
<path d="M196.401 198.863H190.17V211.991H196.401V198.863Z" fill="#FAFAFA"/>
<path d="M334.767 130.234H247.822V405.779H334.767V130.234Z" fill="#F5F5F5"/>
<path d="M334.767 133.852H291.295V405.788H334.767V133.852Z" fill="#EBEBEB"/>
<path d="M288.46 106.797H257.758V133.853H288.46V106.797Z" fill="#F5F5F5"/>
<path d="M288.46 106.797H281.139V133.853H288.46V106.797Z" fill="#EBEBEB"/>
<path d="M240.578 133.851V132.27H337.313V133.851" fill="#E0E0E0"/>
<path d="M272.35 145.648H264.99V161.168H272.35V145.648Z" fill="#FAFAFA"/>
<path d="M291.295 167.256C291.295 167.42 281.562 167.555 269.563 167.555C257.564 167.555 247.822 167.42 247.822 167.256C247.822 167.092 257.555 166.957 269.563 166.957C281.572 166.957 291.295 167.092 291.295 167.256Z" fill="#E0E0E0"/>
<path d="M316.199 145.648H308.84V161.168H316.199V145.648Z" fill="#E0E0E0"/>
<path d="M335.142 167.252C335.142 167.416 325.41 167.551 313.411 167.551C301.412 167.551 291.67 167.416 291.67 167.252C291.67 167.088 301.402 166.953 313.411 166.953C325.42 166.953 335.142 167.088 335.142 167.252Z" fill="#E0E0E0"/>
<path d="M316.199 176.457H308.84V191.977H316.199V176.457Z" fill="#E0E0E0"/>
<path d="M335.142 198.065C335.142 198.229 325.41 198.364 313.411 198.364C301.412 198.364 291.67 198.229 291.67 198.065C291.67 197.901 301.402 197.766 313.411 197.766C325.42 197.766 335.142 197.901 335.142 198.065Z" fill="#E0E0E0"/>
<path d="M316.199 208.191H308.84V223.711H316.199V208.191Z" fill="#E0E0E0"/>
<path d="M335.142 229.807C335.142 229.971 325.41 230.106 313.411 230.106C301.412 230.106 291.67 229.971 291.67 229.807C291.67 229.643 301.402 229.508 313.411 229.508C325.42 229.508 335.142 229.643 335.142 229.807Z" fill="#E0E0E0"/>
<path d="M316.199 239.934H308.84V255.453H316.199V239.934Z" fill="#E0E0E0"/>
<path d="M335.142 261.541C335.142 261.705 325.41 261.84 313.411 261.84C301.412 261.84 291.67 261.705 291.67 261.541C291.67 261.377 301.402 261.242 313.411 261.242C325.42 261.242 335.142 261.377 335.142 261.541Z" fill="#E0E0E0"/>
<path d="M316.199 270.762H308.84V286.281H316.199V270.762Z" fill="#E0E0E0"/>
<path d="M335.142 292.369C335.142 292.533 325.41 292.668 313.411 292.668C301.412 292.668 291.67 292.533 291.67 292.369C291.67 292.205 301.402 292.07 313.411 292.07C325.42 292.07 335.142 292.205 335.142 292.369Z" fill="#E0E0E0"/>
<path d="M316.199 301.723H308.84V317.242H316.199V301.723Z" fill="#E0E0E0"/>
<path d="M316.199 333.082H308.84V348.602H316.199V333.082Z" fill="#E0E0E0"/>
<path d="M335.142 323.33C335.142 323.494 325.41 323.629 313.411 323.629C301.412 323.629 291.67 323.494 291.67 323.33C291.67 323.166 301.402 323.031 313.411 323.031C325.42 323.031 335.142 323.166 335.142 323.33Z" fill="#E0E0E0"/>
<path d="M272.35 176.93H264.99V192.449H272.35V176.93Z" fill="#FAFAFA"/>
<path d="M291.295 198.533C291.295 198.697 281.562 198.832 269.563 198.832C257.564 198.832 247.822 198.697 247.822 198.533C247.822 198.369 257.555 198.234 269.563 198.234C281.572 198.234 291.295 198.369 291.295 198.533Z" fill="#E0E0E0"/>
<path d="M272.35 208.199H264.99V223.719H272.35V208.199Z" fill="#FAFAFA"/>
<path d="M291.295 229.815C291.295 229.979 281.562 230.114 269.563 230.114C257.564 230.114 247.822 229.979 247.822 229.815C247.822 229.651 257.555 229.516 269.563 229.516C281.572 229.516 291.295 229.651 291.295 229.815Z" fill="#E0E0E0"/>
<path d="M272.35 239.48H264.99V255H272.35V239.48Z" fill="#FAFAFA"/>
<path d="M291.295 261.096C291.295 261.26 281.562 261.395 269.563 261.395C257.564 261.395 247.822 261.26 247.822 261.096C247.822 260.932 257.555 260.797 269.563 260.797C281.572 260.797 291.295 260.932 291.295 261.096Z" fill="#E0E0E0"/>
<path d="M272.35 270.762H264.99V286.281H272.35V270.762Z" fill="#FAFAFA"/>
<path d="M291.295 292.369C291.295 292.533 281.562 292.668 269.563 292.668C257.564 292.668 247.822 292.533 247.822 292.369C247.822 292.205 257.555 292.07 269.563 292.07C281.572 292.07 291.295 292.205 291.295 292.369Z" fill="#E0E0E0"/>
<path d="M272.35 302.043H264.99V317.563H272.35V302.043Z" fill="#FAFAFA"/>
<path d="M291.295 323.647C291.295 323.811 281.562 323.946 269.563 323.946C257.564 323.946 247.822 323.811 247.822 323.647C247.822 323.483 257.555 323.348 269.563 323.348C281.572 323.348 291.295 323.483 291.295 323.647Z" fill="#E0E0E0"/>
<path d="M272.35 333.324H264.99V348.844H272.35V333.324Z" fill="#FAFAFA"/>
<path d="M269.429 405.781H156.267L155.775 226.934H268.937L269.429 405.781Z" fill="#F5F5F5"/>
<path d="M268.936 226.934H212.355V405.781H268.936V226.934Z" fill="#EBEBEB"/>
<path d="M208.661 191.727H168.699V226.933H208.661V191.727Z" fill="#F5F5F5"/>
<path d="M208.651 191.727H199.131V226.933H208.651V191.727Z" fill="#EBEBEB"/>
<path d="M272.245 224.879H146.342V226.933H272.245V224.879Z" fill="#E0E0E0"/>
<path d="M187.691 242.289H178.113V262.487H187.691V242.289Z" fill="white"/>
<path d="M212.356 270.413C212.356 270.625 199.692 270.799 184.066 270.799C168.44 270.799 155.775 270.625 155.775 270.413C155.775 270.201 168.44 270.027 184.066 270.027C199.692 270.027 212.356 270.201 212.356 270.413Z" fill="#E0E0E0"/>
<path d="M244.766 242.289H235.188V262.487H244.766V242.289Z" fill="#F5F5F5"/>
<path d="M269.428 270.417C269.428 270.629 256.764 270.803 241.138 270.803C225.512 270.803 212.848 270.629 212.848 270.417C212.848 270.205 225.512 270.031 241.138 270.031C256.764 270.031 269.428 270.205 269.428 270.417Z" fill="#E0E0E0"/>
<path d="M244.766 282.395H235.188V302.592H244.766V282.395Z" fill="#F5F5F5"/>
<path d="M269.428 310.511C269.428 310.723 256.764 310.897 241.138 310.897C225.512 310.897 212.848 310.723 212.848 310.511C212.848 310.299 225.512 310.125 241.138 310.125C256.764 310.125 269.428 310.299 269.428 310.511Z" fill="#E0E0E0"/>
<path d="M244.766 323.695H235.188V343.893H244.766V323.695Z" fill="#F5F5F5"/>
<path d="M269.428 351.823C269.428 352.036 256.764 352.209 241.138 352.209C225.512 352.209 212.848 352.036 212.848 351.823C212.848 351.611 225.512 351.438 241.138 351.438C256.764 351.438 269.428 351.611 269.428 351.823Z" fill="#E0E0E0"/>
<path d="M244.766 365.008H235.188V385.206H244.766V365.008Z" fill="#F5F5F5"/>
<path d="M269.428 393.136C269.428 393.348 256.764 393.522 241.138 393.522C225.512 393.522 212.848 393.348 212.848 393.136C212.848 392.924 225.512 392.75 241.138 392.75C256.764 392.75 269.428 392.924 269.428 393.136Z" fill="#E0E0E0"/>
<path d="M187.691 283.004H178.113V303.202H187.691V283.004Z" fill="white"/>
<path d="M212.356 311.128C212.356 311.34 199.692 311.514 184.066 311.514C168.44 311.514 155.775 311.34 155.775 311.128C155.775 310.916 168.44 310.742 184.066 310.742C199.692 310.742 212.356 310.916 212.356 311.128Z" fill="#E0E0E0"/>
<path d="M187.691 323.715H178.113V343.913H187.691V323.715Z" fill="white"/>
<path d="M212.356 351.843C212.356 352.055 199.692 352.229 184.066 352.229C168.44 352.229 155.775 352.055 155.775 351.843C155.775 351.631 168.44 351.457 184.066 351.457C199.692 351.457 212.356 351.631 212.356 351.843Z" fill="#E0E0E0"/>
<path d="M187.691 364.43H178.113V384.627H187.691V364.43Z" fill="white"/>
<path d="M212.356 392.558C212.356 392.77 199.692 392.944 184.066 392.944C168.44 392.944 155.775 392.77 155.775 392.558C155.775 392.346 168.44 392.172 184.066 392.172C199.692 392.172 212.356 392.346 212.356 392.558Z" fill="#E0E0E0"/>
<path d="M84.9391 82.8557C85.8379 76.3871 76.6015 71.0743 69.6476 70.5139C66.3362 70.2453 62.8947 70.7474 59.7608 69.6732C52.9606 67.3379 50.2406 58.6624 43.606 55.8952C38.6507 53.8285 32.9386 55.6733 28.1252 58.0553C23.3119 60.4489 18.5696 63.4497 13.1886 63.7883C8.51716 64.0802 3.44364 62.3755 -0.648281 64.629C-3.69948 66.3104 -5.29603 69.7783 -8.09888 71.8216C-10.8426 73.8183 -14.426 74.2503 -17.832 74.4254C-21.238 74.6123 -24.774 74.6473 -27.8726 76.0484C-30.9711 77.4496 -33.5492 80.6956 -32.8988 84L84.9391 82.8557Z" fill="#F5F5F5"/>
<path d="M149.688 29.2375C150.17 25.6976 145.184 22.7943 141.431 22.4856C139.647 22.3409 137.785 22.611 136.088 22.0226C132.413 20.7397 130.947 16.0038 127.368 14.4894C124.687 13.3609 121.61 14.364 119.006 15.6758C116.411 16.978 113.845 18.6274 110.942 18.8106C108.415 18.9746 105.675 18.039 103.467 19.2736C101.817 20.19 100.959 22.0901 99.4444 23.209C97.959 24.299 96.0299 24.5304 94.1876 24.6365C92.3453 24.733 90.4451 24.7523 88.7668 25.5239C87.0885 26.2956 85.6995 28.0607 86.0564 29.8741L149.688 29.2471V29.2375Z" fill="#F5F5F5"/>
<path d="M236.016 102.266C236.016 102.266 233.405 99.4524 232.135 100.123C230.865 100.793 229.956 102.619 229.454 103.669C228.898 104.833 230.106 105.741 230.609 105.565C231.112 105.38 232.329 103.986 232.329 103.986L234.728 105.935L234.807 109.217L234.666 110.178L232.567 109.631L232.135 107.153C231.976 106.253 230.865 105.812 230.212 106.447C229.956 106.694 229.771 107.082 229.727 107.673C229.586 109.808 229.771 113.521 232.188 114.668C234.605 115.814 238.935 117.084 238.935 117.084L240.92 119.131L249.158 117.446L247.562 113.883L246.794 102.892C246.794 102.892 249.326 98.3322 249.149 96.8063C248.973 95.2804 247.923 90.7467 247.923 90.7467C247.923 90.7467 246.644 90.2528 246.38 91.6552C246.115 93.0665 246.521 96.8328 246.521 96.8328L244.36 100.493L242.173 88.4269C242.005 87.5008 240.752 87.2626 240.294 88.0829C240.082 88.4534 239.95 89.0091 239.967 89.8294C240.038 92.8989 241.202 100.202 240.841 100.299C240.479 100.396 239.5 99.9111 239.085 98.4205C238.706 97.0621 236.58 91.1877 235.716 88.8327C235.504 88.2505 234.711 88.1182 234.349 88.621C233.881 89.2649 233.52 90.4027 234.014 92.3873C234.613 94.8129 235.901 99.6553 236.016 100.237C236.131 100.811 236.016 102.249 236.016 102.249V102.266Z" fill="#FFBF9D"/>
<path d="M241.511 112.418C241.449 112.453 241.22 112.118 240.761 111.686C240.312 111.245 239.597 110.724 238.697 110.389C237.798 110.054 236.916 109.975 236.281 110.01C235.646 110.045 235.258 110.142 235.231 110.072C235.213 110.027 235.584 109.816 236.245 109.701C236.907 109.586 237.868 109.613 238.847 109.975C239.818 110.336 240.567 110.954 240.991 111.474C241.414 111.994 241.555 112.4 241.511 112.418Z" fill="#FF9A6C"/>
<path d="M219.972 365.899L233.493 386.821L239.421 406.455C239.844 407.867 241.388 408.625 242.764 408.105C243.54 407.814 244.157 407.179 244.325 406.367C245.392 401.392 249.088 378.521 248.382 377.454C247.218 375.69 236.581 357.996 236.581 357.996L219.963 365.89L219.972 365.899Z" fill="#263238"/>
<path d="M242.764 408.103L247.509 376.023L248.065 376.923C248.541 377.699 248.735 378.617 248.594 379.525C248.223 381.933 247.042 393.488 244.404 406.33C244.237 407.168 243.575 407.821 242.773 408.103H242.764Z" fill="#455A64"/>
<g opacity="0.6">
<path d="M239.949 375.416C239.64 376.113 239.967 377.022 240.646 377.357C241.325 377.692 242.26 377.375 242.577 376.687C242.895 375.999 242.542 374.896 241.828 374.64C241.113 374.385 240.046 374.817 239.896 375.566" fill="white"/>
</g>
<path d="M241.916 395.844C241.828 395.977 240.672 395.156 239.041 395.333C237.409 395.465 236.421 396.479 236.306 396.365C236.253 396.321 236.421 395.994 236.88 395.615C237.329 395.236 238.088 394.865 238.988 394.786C239.887 394.707 240.708 394.927 241.219 395.209C241.731 395.492 241.96 395.783 241.916 395.836V395.844Z" fill="white"/>
<path d="M242.156 399.618C242.112 399.768 241.009 399.504 239.713 399.865C238.416 400.2 237.587 400.985 237.472 400.871C237.349 400.8 238.09 399.724 239.572 399.336C241.045 398.93 242.226 399.495 242.156 399.618Z" fill="white"/>
<path d="M242.499 390.473C242.463 390.631 240.761 390.208 238.706 390.596C236.642 390.949 235.195 391.937 235.107 391.796C235.001 391.708 236.395 390.437 238.609 390.058C240.814 389.652 242.56 390.358 242.499 390.473Z" fill="white"/>
<path d="M238.919 383.768C238.936 383.926 237.463 384.156 235.911 385.047C234.341 385.911 233.371 387.04 233.238 386.934C233.115 386.864 233.953 385.496 235.646 384.57C237.322 383.627 238.928 383.635 238.928 383.776L238.919 383.768Z" fill="white"/>
<path d="M236.413 379.317C236.422 379.476 234.808 379.493 233.247 380.561C231.659 381.593 231.015 383.066 230.865 382.995C230.803 382.969 230.865 382.563 231.183 381.981C231.491 381.399 232.091 380.667 232.938 380.102C233.785 379.538 234.693 379.273 235.355 379.211C236.016 379.149 236.422 379.246 236.413 379.308V379.317Z" fill="white"/>
<path d="M167.216 233.268C167.216 234.106 173.417 311.373 175.798 316.418C178.171 321.464 225.042 379.202 225.042 379.202L244.597 365.724L203.062 305.525L201.898 249.136L192.266 227.023L167.207 233.268H167.216Z" fill="#263238"/>
<path d="M225.854 217.805C226.348 218.978 232.796 237.395 233.281 245.21C233.775 253.033 219.327 391.823 219.327 391.823L195.468 389.917L201.668 255.318L191.375 227.022L225.854 217.805Z" fill="#263238"/>
<path d="M199.066 247.723C199.066 247.723 199.066 247.811 199.066 247.996C199.075 248.19 199.093 248.455 199.101 248.79C199.145 249.504 199.207 250.545 199.287 251.886C199.463 254.611 199.719 258.581 200.045 263.626C200.724 273.76 201.695 288.199 202.859 305.54V305.593L202.894 305.637C212.588 319.706 224.046 336.341 236.288 354.097C239.04 358.084 241.748 362.009 244.403 365.854L244.465 365.528C237.655 370.22 231.102 374.745 224.91 379.014L225.21 379.059C210.824 361.162 198.493 345.823 189.752 334.939C185.377 329.523 181.902 325.219 179.502 322.255C178.312 320.791 177.394 319.662 176.759 318.886C176.451 318.515 176.212 318.233 176.045 318.021C175.886 317.827 175.789 317.739 175.789 317.739C175.789 317.739 175.86 317.845 176.01 318.048C176.177 318.259 176.398 318.551 176.698 318.93C177.315 319.715 178.224 320.861 179.388 322.343C181.76 325.325 185.2 329.664 189.531 335.106C198.246 346.017 210.533 361.4 224.857 379.332L224.989 379.5L225.166 379.376C231.358 375.116 237.92 370.6 244.729 365.907L244.923 365.775L244.791 365.581C242.136 361.735 239.428 357.801 236.676 353.815C224.425 336.068 212.941 319.45 203.229 305.39L203.265 305.496C202.03 288.164 200.998 273.725 200.275 263.599C199.904 258.554 199.604 254.585 199.401 251.868C199.295 250.528 199.216 249.496 199.154 248.781C199.128 248.446 199.101 248.181 199.084 247.987C199.066 247.811 199.057 247.723 199.048 247.723H199.066Z" fill="#455A64"/>
<path d="M200.503 378.325L200.997 396.425C200.997 396.425 182.765 403.005 182.527 406.356L217.659 406.656L218.047 378.422L200.503 378.316V378.325Z" fill="#263238"/>
<path d="M211.873 394.995C212.552 395.189 213.011 395.957 212.852 396.645C212.684 397.333 211.908 397.809 211.229 397.624C210.55 397.447 209.959 396.539 210.206 395.877C210.444 395.216 211.388 394.704 212.005 395.039" fill="#E0E0E0"/>
<path d="M217.66 406.665L217.589 403.816L183.931 404.593C183.931 404.593 182.361 405.263 182.528 406.365L217.66 406.665Z" fill="#455A64"/>
<path d="M200.434 396.241C200.434 396.408 201.298 396.497 202.136 397.052C202.991 397.59 203.415 398.34 203.574 398.27C203.732 398.234 203.485 397.211 202.453 396.55C201.43 395.879 200.389 396.073 200.425 396.232L200.434 396.241Z" fill="white"/>
<path d="M196.728 397.73C196.684 397.898 197.425 398.198 198.007 398.921C198.607 399.636 198.748 400.421 198.916 400.412C199.075 400.438 199.207 399.433 198.466 398.542C197.743 397.642 196.728 397.563 196.728 397.722V397.73Z" fill="white"/>
<path d="M194.604 402.123C194.762 402.158 195.009 401.303 194.577 400.359C194.154 399.415 193.342 399.036 193.272 399.177C193.175 399.318 193.686 399.83 194.03 400.606C194.392 401.373 194.436 402.105 194.604 402.123Z" fill="white"/>
<path d="M200.777 392.104C200.847 392.263 201.632 392.033 202.603 392.104C203.573 392.157 204.323 392.492 204.42 392.342C204.517 392.218 203.785 391.575 202.647 391.504C201.509 391.425 200.697 391.963 200.777 392.095V392.104Z" fill="white"/>
<path d="M187.865 93.2598C189.779 93.0217 191.358 91.187 191.313 89.2554C191.269 87.3237 189.602 85.5684 187.679 85.4185C188.553 83.9455 188.367 81.9344 187.247 80.6378C186.127 79.35 184.151 78.8826 182.572 79.5441C182.105 77.9211 180.747 76.5893 179.115 76.1571C177.483 75.7249 175.64 76.2012 174.431 77.3831C172.244 76.2717 169.315 76.9156 167.798 78.8473C166.131 78.9355 164.605 80.2056 164.208 81.8198C163.811 83.4339 164.57 85.2685 165.999 86.1241" fill="#263238"/>
<path d="M194.736 114.12C193.774 109.895 191.084 101.357 188.553 93.6569C185.836 85.3833 177.218 80.5762 168.751 82.6225L167.913 82.8254C158.969 85.5421 156.279 94.6624 159.242 103.527L168.345 135.033L189.885 132.652L188.332 126.336C188.332 126.336 196.729 122.879 194.736 114.129V114.12Z" fill="#FFBF9D"/>
<path d="M188.402 126.302C188.402 126.302 182.916 127.978 176.168 125.711C176.168 125.711 180.366 131.338 188.887 128.454L188.411 126.302H188.402Z" fill="#FF9A6C"/>
<path d="M186.657 102.157C186.842 102.81 186.437 103.498 185.757 103.7C185.078 103.903 184.381 103.542 184.205 102.889C184.02 102.236 184.426 101.548 185.105 101.345C185.784 101.143 186.481 101.504 186.657 102.157Z" fill="#263238"/>
<path d="M187.707 98.3731C187.592 98.576 186.48 98.0996 185.14 98.426C183.799 98.7347 182.979 99.6609 182.794 99.5286C182.705 99.4756 182.794 99.1405 183.146 98.7259C183.49 98.3113 184.143 97.835 184.972 97.641C185.81 97.4469 186.586 97.5792 187.063 97.7998C187.548 98.0203 187.759 98.2761 187.707 98.3643V98.3731Z" fill="#263238"/>
<path d="M174.819 105.141C175.004 105.794 174.599 106.482 173.92 106.685C173.24 106.888 172.544 106.526 172.367 105.873C172.182 105.221 172.588 104.533 173.267 104.33C173.946 104.127 174.643 104.489 174.819 105.141Z" fill="#263238"/>
<path d="M174.749 101.823C174.652 102.035 173.506 101.647 172.191 102.079C170.877 102.485 170.136 103.473 169.942 103.358C169.845 103.314 169.907 102.97 170.233 102.529C170.551 102.088 171.151 101.567 171.971 101.303C172.791 101.038 173.576 101.118 174.07 101.303C174.573 101.479 174.802 101.726 174.749 101.823Z" fill="#263238"/>
<path d="M181.85 110.575C181.823 110.504 182.626 110.151 183.931 109.657C184.267 109.543 184.575 109.393 184.575 109.146C184.593 108.881 184.364 108.546 184.099 108.184C183.579 107.434 183.032 106.649 182.458 105.82C180.156 102.451 178.41 99.646 178.542 99.549C178.675 99.4608 180.65 102.116 182.952 105.485C183.508 106.314 184.046 107.117 184.558 107.875C184.778 108.237 185.113 108.625 185.06 109.172C185.034 109.454 184.822 109.692 184.619 109.807C184.417 109.931 184.223 109.975 184.055 110.028C182.714 110.425 181.876 110.636 181.85 110.566V110.575Z" fill="#263238"/>
<path d="M173.179 97.4135C173.197 97.8104 171.979 98.075 170.683 98.7718C169.377 99.4334 168.451 100.289 168.151 100.042C168.01 99.9185 168.081 99.5216 168.398 99.01C168.707 98.5072 169.289 97.9162 170.065 97.5105C170.842 97.1048 171.644 96.9636 172.226 97.0077C172.809 97.043 173.161 97.2283 173.179 97.4135Z" fill="#263238"/>
<path d="M186.7 94.6786C186.488 95.0314 185.412 94.8902 184.177 95.0931C182.933 95.2519 181.937 95.7017 181.646 95.4195C181.513 95.2783 181.619 94.9432 182.025 94.5727C182.422 94.2023 183.136 93.8318 183.983 93.7083C184.83 93.5848 185.615 93.7348 186.1 93.9729C186.594 94.2111 186.788 94.511 186.7 94.6786Z" fill="#263238"/>
<path d="M186.745 89.8629C186.745 89.8629 183.128 84.9587 180.182 84.3149C176.619 83.5387 176.089 87.3667 172.852 87.252C169.606 87.1374 166.211 86.3876 163.67 89.4836C160.892 92.8706 162.921 94.2907 163.644 98.2158C166.572 114.11 164.782 119.244 162.18 112.046C161.897 111.261 159.49 111.155 158.334 107.812C156.835 103.482 155.362 98.1364 155.6 94.7494C155.794 91.8916 156.87 89.6953 159.093 87.0227C162.603 82.7977 168.469 81.3159 172.561 80.7514C176.654 80.1869 185.466 82.9301 186.745 89.8541V89.8629Z" fill="#263238"/>
<path d="M162.682 111.677C162.302 110.345 160.882 109.56 159.577 110.01C157.989 110.557 156.401 111.915 157.319 115.25C158.951 121.168 164.551 118.31 164.516 118.143C164.49 118.028 163.387 114.147 162.682 111.677Z" fill="#FFBF9D"/>
<path d="M162.612 116.271C162.612 116.271 162.532 116.368 162.374 116.501C162.224 116.624 161.95 116.756 161.606 116.73C160.918 116.668 160.116 115.821 159.798 114.763C159.639 114.225 159.604 113.687 159.683 113.211C159.745 112.725 159.939 112.346 160.239 112.205C160.53 112.046 160.804 112.17 160.927 112.32C161.051 112.461 161.051 112.593 161.077 112.593C161.095 112.602 161.174 112.461 161.059 112.232C161.007 112.117 160.892 112.002 160.724 111.923C160.548 111.843 160.327 111.843 160.116 111.923C159.666 112.082 159.375 112.611 159.295 113.14C159.19 113.669 159.207 114.287 159.392 114.886C159.754 116.068 160.671 117.012 161.598 117.03C162.047 117.03 162.356 116.801 162.497 116.615C162.638 116.421 162.638 116.28 162.612 116.271Z" fill="#FF9A6C"/>
<path d="M160.009 100.097C160.909 100.441 161.862 100.785 162.814 100.653C163.767 100.52 164.711 99.7264 164.64 98.765C164.614 98.3328 164.393 97.8741 164.587 97.486C164.817 97.0274 165.452 97.0009 165.963 96.9303C167.745 96.6922 169.218 95.0428 169.253 93.2522C169.853 93.8079 170.876 93.5345 171.441 92.9347C172.005 92.3437 172.27 91.5323 172.649 90.809C173.028 90.0857 173.637 89.3713 174.448 89.2919C174.907 89.2478 175.383 89.4154 175.816 89.2654C176.583 89.0096 176.742 87.9953 176.671 87.1926C176.601 86.39 176.477 85.455 177.042 84.8728C177.562 84.3348 178.409 84.3701 179.159 84.2995C179.908 84.229 180.799 83.8409 180.808 83.0911C180.808 82.6942 180.561 82.3502 180.279 82.0768C179 80.8419 176.812 80.6743 175.366 81.7151C174.307 79.8893 172.093 78.7956 170.003 79.069C167.904 79.3424 166.051 80.9742 165.505 83.0117C163.97 82.1738 162.02 82.1297 160.45 82.9147C158.88 83.6909 157.734 85.2698 157.478 86.9986C155.934 86.9633 154.417 87.9247 153.782 89.336C153.147 90.7472 153.438 92.5113 154.488 93.6492C153.562 94.5224 152.9 95.8102 153.174 97.045C153.447 98.2887 154.947 99.2236 156.058 98.615C155.811 99.6911 156.517 100.9 157.575 101.217C158.633 101.526 159.886 100.9 160.256 99.8587" fill="#263238"/>
<path d="M176.248 83.3633C176.248 83.3633 176.266 83.3986 176.275 83.4691C176.283 83.5397 176.31 83.6544 176.31 83.7955C176.319 84.0866 176.31 84.5188 176.151 85.048C175.992 85.5684 175.701 86.2035 175.172 86.7768C174.652 87.3501 173.875 87.8793 172.896 88.0646L172.967 87.9058C173.276 88.3733 173.373 88.9995 173.24 89.5817C173.126 90.1726 172.861 90.7371 172.57 91.2928C172.42 91.5663 172.305 91.8662 172.067 92.1396C171.838 92.4042 171.538 92.5894 171.203 92.7217C170.55 92.9687 169.739 92.9422 169.121 92.4924L169.333 92.3777C169.465 93.6038 169.077 94.9445 168.177 95.9324C167.71 96.4792 167.066 96.8938 166.378 97.0437C165.69 97.2025 164.993 97.1584 164.349 97.0878L164.491 96.982C164.349 97.8023 164.005 98.552 163.52 99.1606C163.044 99.7692 162.33 100.228 161.58 100.228C160.098 100.272 158.881 99.3282 158.431 98.2698L158.581 98.2962C157.972 98.8431 157.231 99.0636 156.605 99.0901C155.97 99.1253 155.423 98.9754 155.026 98.799C154.621 98.6138 154.356 98.3933 154.188 98.2345C154.03 98.0669 153.959 97.9699 153.959 97.9611C153.985 97.9258 154.268 98.3668 155.07 98.702C155.467 98.8607 155.996 98.993 156.605 98.9401C157.205 98.896 157.902 98.6755 158.466 98.1551L158.563 98.0669L158.616 98.1904C159.057 99.1695 160.213 100.051 161.58 99.9986C162.259 99.9986 162.885 99.584 163.335 99.0107C163.785 98.4374 164.111 97.7141 164.244 96.9467L164.261 96.8232H164.385C165.02 96.9026 165.69 96.9467 166.325 96.7968C166.969 96.6556 167.542 96.2852 167.992 95.7648C168.839 94.8386 169.201 93.5773 169.086 92.413L169.06 92.1219L169.298 92.2984C169.827 92.6865 170.55 92.7217 171.141 92.4924C171.432 92.3866 171.706 92.2101 171.908 91.9896C172.103 91.7691 172.226 91.4692 172.385 91.1958C172.676 90.6489 172.932 90.1021 173.046 89.5552C173.17 89.0083 173.09 88.4615 172.817 88.0381L172.738 87.9058L172.888 87.8793C173.814 87.7206 174.563 87.2266 175.075 86.6886C175.604 86.1417 175.895 85.5419 176.072 85.0392C176.398 84.0072 176.231 83.3809 176.275 83.3809L176.248 83.3633Z" fill="#455A64"/>
<path d="M178.346 113.319C180.048 113.222 181.76 113.336 183.435 113.654L183.462 113.689C183.55 114.845 183.515 116.15 182.703 116.979C182.095 117.597 181.133 117.799 180.304 117.552C179.475 117.305 178.849 116.759 178.514 115.965C178.179 115.171 178.267 114.157 178.337 113.319H178.346Z" fill="#FF9A6C"/>
<path d="M181.769 117.411C181.751 117.332 181.116 117.738 180.155 117.359C179.687 117.173 179.193 116.803 178.884 116.221C178.567 115.639 178.435 114.898 178.479 114.113C178.488 113.936 178.505 113.68 178.54 113.575C178.576 113.53 178.505 113.575 178.567 113.557H178.832C179.211 113.583 179.572 113.601 179.934 113.619C180.587 113.645 181.213 113.663 181.804 113.68C182.871 113.707 183.533 113.689 183.533 113.628C183.533 113.566 182.88 113.469 181.822 113.372C181.231 113.319 180.613 113.266 179.961 113.213C179.599 113.186 179.237 113.16 178.858 113.134C178.752 113.134 178.682 113.116 178.549 113.116C178.408 113.089 178.152 113.266 178.135 113.425C178.064 113.698 178.073 113.857 178.047 114.086C178.002 114.924 178.152 115.762 178.54 116.415C178.911 117.076 179.52 117.491 180.058 117.65C180.596 117.826 181.081 117.764 181.372 117.667C181.672 117.561 181.795 117.438 181.778 117.42L181.769 117.411Z" fill="#263238"/>
<path d="M146.842 144.974L113.448 154.8L102.457 140.387C102.528 142.081 88.8652 139.938 88.8652 139.938C98.603 163.32 103.922 171.135 105.368 171.806C109.037 173.517 136.822 173.27 139.018 172.749C141.214 172.22 161.263 169.362 161.263 169.362L157.594 141.287L149.259 143.924C148.421 144.189 147.609 144.542 146.842 144.983V144.974Z" fill="#455A64"/>
<path d="M227.503 208.796C225.581 201.519 221.329 184.928 221.329 184.928L212.57 133.399L192.927 133.558L191.296 130.109C190.952 129.377 190.149 128.963 189.355 129.113L168.539 132.826C167.586 132.993 166.934 133.893 167.066 134.846L167.454 137.633L151.595 143.516L149.875 166.59L162.638 219.142L163.423 226.543C163.608 228.289 164.526 229.886 165.955 230.962L168.23 232.673L225.775 219.389L227.195 215.491C227.98 213.347 228.086 211.01 227.503 208.796Z" fill="#455A64"/>
<path d="M167.217 231.438L167.755 239.217L229.268 224.875L227.072 214.891L167.217 231.438Z" fill="#455A64"/>
<path d="M221.409 219.77C221.277 219.787 221.33 221.199 221.515 222.936C221.709 224.674 221.965 226.067 222.097 226.05C222.23 226.032 222.177 224.621 221.992 222.883C221.798 221.146 221.542 219.752 221.409 219.77Z" fill="#263238"/>
<path d="M211.627 222.035C211.494 222.062 211.653 223.491 211.98 225.228C212.306 226.966 212.668 228.351 212.8 228.333C212.932 228.307 212.773 226.878 212.447 225.14C212.121 223.402 211.759 222.018 211.627 222.035Z" fill="#263238"/>
<path d="M201.37 225.063C201.237 225.089 201.37 226.447 201.67 228.097C201.969 229.746 202.313 231.069 202.446 231.052C202.578 231.025 202.446 229.667 202.146 228.018C201.846 226.368 201.502 225.045 201.378 225.063H201.37Z" fill="#263238"/>
<path d="M188.562 228.051C188.429 228.078 188.606 229.612 188.958 231.482C189.302 233.352 189.691 234.852 189.823 234.825C189.955 234.799 189.779 233.264 189.426 231.394C189.082 229.524 188.694 228.025 188.562 228.051Z" fill="#263238"/>
<path d="M176.576 230.794C176.452 230.829 176.735 232.267 177.22 233.995C177.705 235.733 178.199 237.109 178.322 237.074C178.446 237.038 178.163 235.601 177.678 233.872C177.193 232.134 176.699 230.758 176.576 230.794Z" fill="#263238"/>
<path d="M212.563 133.41L214.785 133.454C217.484 133.507 220.131 134.248 222.459 135.615L241.864 146.94L237.154 118.838L252.466 115.707C252.466 115.707 261.463 152.25 261.437 158.045C261.384 169.723 252.404 173.745 243.416 170.985C240.735 170.164 208.664 155.566 208.664 155.566L212.563 133.418V133.41Z" fill="#455A64"/>
<path d="M220.897 188.3C221.029 188.282 219.609 177.336 217.722 163.849C215.843 150.363 214.211 139.443 214.079 139.461C213.947 139.479 215.367 150.425 217.254 163.92C219.133 177.406 220.765 188.326 220.897 188.308V188.3Z" fill="#263238"/>
<path d="M207.102 183.141C207.102 183.141 206.987 183.255 206.811 183.511C206.608 183.811 206.352 184.173 206.052 184.614C205.364 185.637 204.43 187.013 203.301 188.689C200.972 192.12 197.691 196.83 193.924 201.91C190.149 206.991 186.595 211.489 183.975 214.718C182.696 216.288 181.655 217.575 180.87 218.528L180.032 219.569C179.847 219.807 179.75 219.939 179.768 219.957C179.785 219.975 179.9 219.86 180.103 219.631C180.35 219.366 180.641 219.04 181.002 218.643C181.779 217.778 182.881 216.508 184.222 214.921C186.903 211.745 190.511 207.273 194.295 202.184C198.07 197.095 201.307 192.349 203.574 188.865C204.703 187.127 205.603 185.699 206.202 184.711C206.476 184.252 206.705 183.873 206.89 183.564C207.04 183.299 207.111 183.158 207.102 183.149V183.141Z" fill="#263238"/>
<path d="M200.373 170.641C200.373 170.641 200.091 171.02 199.668 171.752C199.2 172.563 198.591 173.595 197.868 174.848C196.351 177.459 194.234 181.058 191.8 184.974C189.365 188.89 187.081 192.383 185.405 194.897C184.611 196.096 183.941 197.102 183.429 197.878C182.962 198.584 182.724 198.989 182.75 199.007C182.776 199.025 183.068 198.663 183.579 197.984C184.091 197.314 184.814 196.317 185.678 195.082C187.425 192.612 189.762 189.137 192.197 185.221C194.631 181.296 196.713 177.67 198.159 175.007C198.883 173.675 199.456 172.59 199.826 171.84C200.206 171.082 200.4 170.658 200.373 170.641Z" fill="#263238"/>
<path d="M192.425 133.595C192.39 133.524 191.12 134.15 188.994 134.962C186.868 135.773 183.86 136.708 180.438 137.264C177.016 137.82 173.858 137.881 171.591 137.784C169.316 137.687 167.922 137.493 167.904 137.573C167.904 137.608 168.248 137.679 168.875 137.793C169.501 137.908 170.427 138.031 171.565 138.12C173.849 138.305 177.042 138.287 180.509 137.732C183.975 137.167 187.009 136.17 189.109 135.271C190.167 134.821 191.005 134.424 191.561 134.106C192.125 133.798 192.425 133.621 192.407 133.586L192.425 133.595Z" fill="#263238"/>
<g opacity="0.3">
<path d="M203.893 188.371C202.314 200.102 194.349 210.766 183.553 215.609L203.893 188.371Z" fill="black"/>
</g>
<path d="M147.943 156.297C147.811 156.332 149.372 163.168 151.427 171.565C153.483 179.971 155.247 186.754 155.379 186.727C155.502 186.692 153.95 179.856 151.895 171.459C149.84 163.062 148.076 156.27 147.943 156.306V156.297Z" fill="#263238"/>
<path d="M98.6202 130.976C98.6202 130.976 100.517 130.579 101.452 132.211C102.387 133.842 103.277 137.573 103.189 139.399C103.189 139.399 105.879 139.867 105.976 140.969C106.073 142.072 105.412 143.148 102.828 143.113C102.828 143.113 101.108 146.376 99.4317 145.221C97.7558 144.065 98.2851 142.716 98.2851 142.716C98.2851 142.716 96.7503 145.256 94.3776 141.992C94.3776 141.992 93.328 142.813 92.1549 142.522C90.9994 142.239 90.5319 141.437 90.5319 141.437C90.5319 141.437 89.0677 142.239 88.2121 141.199C87.3566 140.158 84.5428 135.827 84.0754 134.425C83.6079 133.022 84.0401 131.161 85.2308 130.411C86.4216 129.662 88.415 130.358 88.415 130.358C88.415 130.358 90.2849 128.4 92.5694 129.961C92.5694 129.961 95.9212 126.989 98.6114 130.967L98.6202 130.976Z" fill="#FFBF9D"/>
<path d="M87.9216 134.266C87.7893 134.319 88.3538 135.933 89.13 137.864C89.5181 138.835 89.8445 139.717 90.0561 140.361C90.2678 141.004 90.3561 141.419 90.4266 141.41C90.4884 141.41 90.5148 140.969 90.3825 140.281C90.2502 139.593 89.968 138.676 89.5799 137.697C88.7948 135.747 88.0363 134.23 87.9216 134.274V134.266Z" fill="#FF9A6C"/>
<path d="M91.6512 133.364C91.5277 133.399 91.9776 135.375 92.7008 137.774C93.4241 140.173 94.2444 142.043 94.3679 141.99C94.4914 141.946 93.8651 140.023 93.1507 137.633C92.4274 135.243 91.7747 133.328 91.6424 133.364H91.6512Z" fill="#FF9A6C"/>
<path d="M96.566 133.419C96.4337 133.472 97.1922 135.509 97.7832 138.103C98.0655 139.399 98.3389 140.599 98.3742 141.437C98.4183 142.292 98.1272 142.769 98.1978 142.804C98.233 142.848 98.6652 142.381 98.7093 141.446C98.7534 140.519 98.5329 139.32 98.2507 137.997C97.6509 135.351 96.6806 133.366 96.566 133.419Z" fill="#FF9A6C"/>
<path d="M102.167 134.008C102.017 134.052 102.661 136.134 102.908 138.754C103.022 140.059 102.996 141.276 102.934 142.114C102.864 142.961 102.52 143.393 102.573 143.437C102.608 143.49 103.093 143.084 103.261 142.167C103.419 141.276 103.49 140.068 103.375 138.71C103.111 136.002 102.255 133.973 102.158 134.008H102.167Z" fill="#FF9A6C"/>
<path d="M103.968 261.667C103.968 261.667 98.6019 256.249 97.0675 289.015C95.6178 319.941 93.49 364.525 100.916 383.658C101.722 385.727 103.146 387.507 105.036 388.669C106.571 389.618 108.707 390.568 111.471 391C117.939 392.009 143.499 391.441 143.499 391.441C143.499 391.441 158.004 391.441 158.225 379.496C158.403 369.67 158.225 348.299 158.225 348.299L103.96 261.667H103.968Z" fill="#263238"/>
<g opacity="0.3">
<path d="M103.968 261.667C103.968 261.667 98.6019 256.249 97.0675 289.015C95.6178 319.941 93.49 364.525 100.916 383.658C101.722 385.727 103.146 387.507 105.036 388.669C106.571 389.618 108.707 390.568 111.471 391C117.939 392.009 143.499 391.441 143.499 391.441C143.499 391.441 158.004 391.441 158.225 379.496C158.403 369.67 158.225 348.299 158.225 348.299L103.96 261.667H103.968Z" fill="black"/>
</g>
<path d="M182.911 204.974C182.911 204.974 181.283 210.51 177.943 211.087C174.595 211.663 148.221 212.468 148.221 212.468L145.644 217.775H140.676L137.064 196.488L140.142 197.124C141.193 197.345 142.075 198.057 142.499 199.049C142.965 200.142 143.991 200.897 145.169 201.015L182.919 204.966L182.911 204.974Z" fill="#263238"/>
<path d="M181.799 205.799C183.757 205.646 185.19 203.875 184.91 201.925C184.045 195.846 180.858 184.029 169.117 182.282C158.723 180.731 151.178 181.206 147.194 181.723C145.371 181.96 144.464 183.613 144.252 185.444C143.252 193.803 144.057 204.171 146.473 205.443C148.991 206.774 173.228 206.486 181.799 205.808V205.799Z" fill="#F1BF37"/>
<path d="M166.065 182.332C166.065 182.332 166.328 182.612 166.735 183.171C167.141 183.722 167.701 184.553 168.362 185.596C169.685 187.681 171.355 190.665 172.847 194.124C174.339 197.583 175.373 200.847 175.984 203.238C176.289 204.433 176.509 205.408 176.636 206.086C176.763 206.764 176.823 207.137 176.789 207.146C176.755 207.146 176.645 206.79 176.467 206.12C176.297 205.459 176.026 204.492 175.687 203.314C175 200.957 173.932 197.736 172.448 194.294C170.956 190.86 169.346 187.868 168.099 185.757C167.481 184.697 166.955 183.85 166.59 183.265C166.226 182.68 166.039 182.349 166.065 182.332Z" fill="#263238"/>
<path d="M176.951 283.85C176.951 283.85 182.317 278.433 183.851 311.199C185.301 342.125 187.429 386.708 180.003 405.842C179.197 407.91 177.773 409.691 175.882 410.852C174.348 411.802 172.212 412.751 169.448 413.184C162.98 414.192 137.42 413.624 137.42 413.624C137.42 413.624 122.915 413.624 122.694 401.679C122.516 391.854 122.694 370.482 122.694 370.482L176.959 283.85H176.951Z" fill="#263238"/>
<path d="M176.95 283.848C176.95 283.848 176.873 283.992 176.704 284.272C176.526 284.56 176.28 284.967 175.949 285.51C175.271 286.603 174.288 288.205 172.999 290.282C170.405 294.453 166.624 300.523 161.851 308.187C152.28 323.506 138.741 345.175 122.854 370.59L122.888 370.48C122.888 379.788 122.888 389.554 122.897 399.668C122.897 400.931 122.846 402.211 123.058 403.441C123.244 404.678 123.634 405.891 124.253 406.984C125.482 409.197 127.61 410.825 129.976 411.817C134.765 413.961 140.225 413.326 145.549 413.52C151.161 413.571 156.714 413.588 162.182 413.436C164.903 413.334 167.641 413.292 170.252 412.808C171.558 412.546 172.83 412.139 174.025 411.596C175.22 411.045 176.373 410.384 177.306 409.485C178.247 408.595 179.01 407.527 179.544 406.357C179.824 405.781 179.993 405.145 180.205 404.534C180.408 403.915 180.612 403.305 180.815 402.686C181.036 402.076 181.188 401.448 181.341 400.821C181.494 400.194 181.646 399.566 181.799 398.948C182.138 397.71 182.341 396.447 182.57 395.192C183.07 392.7 183.342 390.19 183.681 387.732C183.833 386.494 183.927 385.265 184.045 384.036C184.156 382.815 184.291 381.594 184.359 380.382C185.046 370.683 185.139 361.426 185.08 352.779C185.003 344.123 184.757 336.07 184.478 328.711C184.189 321.361 183.893 314.706 183.613 308.865C183.299 303.033 182.833 298.014 182.18 293.953C181.519 289.909 180.722 286.756 179.578 284.916C179.289 284.467 178.984 284.094 178.654 283.857C178.323 283.611 177.984 283.526 177.713 283.543C177.162 283.602 176.958 283.873 176.958 283.848C176.958 283.848 177 283.789 177.119 283.712C177.238 283.636 177.433 283.526 177.713 283.5C177.992 283.475 178.357 283.56 178.696 283.797C179.035 284.035 179.357 284.408 179.654 284.865C180.832 286.722 181.663 289.876 182.35 293.919C183.028 297.989 183.52 303.007 183.859 308.848C184.164 314.689 184.486 321.344 184.791 328.694C185.088 336.053 185.359 344.115 185.444 352.77C185.52 361.426 185.444 370.692 184.766 380.407C184.707 381.62 184.571 382.84 184.461 384.07C184.342 385.299 184.249 386.536 184.096 387.774C183.766 390.25 183.486 392.759 182.986 395.268C182.765 396.523 182.553 397.795 182.214 399.041C182.062 399.668 181.909 400.296 181.756 400.931C181.612 401.567 181.451 402.194 181.231 402.813C181.027 403.432 180.824 404.051 180.612 404.678C180.4 405.297 180.23 405.933 179.934 406.543C179.374 407.764 178.577 408.875 177.594 409.807C176.611 410.748 175.415 411.435 174.194 411.995C172.965 412.563 171.66 412.969 170.329 413.241C167.641 413.732 164.912 413.775 162.182 413.877C156.705 414.029 151.152 414.012 145.532 413.961C142.853 413.919 140.191 413.877 137.546 413.843C134.876 413.775 132.231 413.249 129.789 412.223C127.364 411.206 125.143 409.519 123.863 407.196C123.219 406.052 122.821 404.78 122.626 403.5C122.414 402.211 122.473 400.931 122.464 399.668C122.464 389.554 122.464 379.78 122.473 370.472V370.412L122.507 370.361C138.445 344.971 152.034 323.328 161.648 308.026C166.454 300.396 170.269 294.343 172.889 290.189C174.194 288.129 175.203 286.544 175.89 285.459C176.229 284.933 176.492 284.526 176.67 284.246C176.848 283.975 176.941 283.84 176.941 283.84L176.95 283.848Z" fill="#455A64"/>
<path d="M181.927 255.62L170.05 247.821C167.354 235.689 145.329 210.519 145.329 210.519C145.329 210.519 122.406 155.237 102.628 142.199C82.8498 129.16 -13.7433 130.805 -13.7433 130.805L-18.8553 130.881C-18.8553 130.881 -121.213 129.169 -140.991 142.199C-160.769 155.237 -183.693 210.519 -183.693 210.519C-183.693 210.519 -205.717 235.689 -208.413 247.821L-220.29 255.62C-222.689 257.197 -224.097 259.91 -223.995 262.783C-223.274 283.257 -219.332 364.548 -212.465 373.67C-205.887 382.402 -143.738 377.773 -126.842 377.747C-102.605 377.705 -27.1378 376.713 -27.1378 376.713L83.7738 376.442C96.3545 375.094 165.548 383.554 174.085 373.67C181.545 365.031 184.894 283.257 185.615 262.783C185.716 259.91 184.309 257.197 181.91 255.62H181.927Z" fill="#F1BF37"/>
<path d="M97.27 145.902C96.7698 145.029 95.8543 144.478 94.8539 144.427L-17.4481 139.612L-18.3298 139.578L-18.3467 139.654L-133.285 144.427C-134.294 144.47 -135.201 145.029 -135.701 145.902L-164.983 196.997C-165.975 198.717 -164.762 200.879 -162.779 200.93C-159.566 201.023 -154.793 201.074 -149.257 200.845C-140.254 200.472 -68.6185 200.642 -30.8087 200.769L-30.8257 200.845C-30.8257 200.845 -26.4428 200.828 -19.2199 200.803C-11.997 200.828 -7.61414 200.845 -7.61414 200.845L-7.63112 200.769C30.1787 200.65 101.814 200.481 110.817 200.845C116.65 201.083 121.617 201.023 124.831 200.922C126.594 200.862 127.662 198.946 126.789 197.412L97.27 145.902Z" fill="#455A64"/>
<path d="M-154.08 191.225L116.015 190.496L118.202 195.862L-12.3013 196.719L-156.623 195.778L-154.08 191.225Z" fill="#F1BF37"/>
<g opacity="0.5">
<path d="M-154.08 191.225L115.243 190.496L118.202 195.862L-12.3013 196.719L-156.623 195.778L-154.08 191.225Z" fill="black"/>
</g>
<path d="M160.369 366.869C159.911 365.911 158.944 365.224 157.037 365.436C151.738 366.038 96.1936 367.276 88.5468 365.436C80.8916 363.596 55.3912 334.654 44.5993 332.687C35.5452 331.034 -8.47862 330.153 -22.4327 330.551C-36.3952 330.144 -80.419 331.034 -89.4646 332.687C-100.256 334.663 -125.375 366.428 -133.031 368.268C-140.686 370.107 -196.612 366.038 -201.911 365.436C-203.827 365.216 -204.793 365.902 -205.242 366.869C-206.183 368.861 -204.657 371.158 -202.445 371.226C-190.619 371.557 -144.933 372.083 -136.388 371.93C-127.419 371.769 -35.7085 370.09 -20.3387 369.811C2.83041 369.955 81.9937 370.463 90.378 370.582C100.263 370.718 145.77 371.557 157.605 371.226C159.809 371.167 161.343 368.87 160.402 366.869H160.369Z" fill="#263238"/>
<path d="M-131.75 363.693C-131.75 363.693 -131.572 363.659 -131.284 363.473C-130.987 363.295 -130.572 363.007 -130.038 362.583C-128.978 361.752 -127.477 360.455 -125.578 358.725C-121.797 355.275 -116.44 350.155 -109.997 343.652C-108.386 342.025 -106.716 340.312 -104.986 338.498C-103.24 336.718 -101.595 334.683 -99.4845 332.962C-97.3736 331.267 -94.9066 329.851 -92.1938 328.868C-89.481 327.876 -86.5393 327.291 -83.5043 327.062C-81.9868 326.952 -80.4439 326.952 -78.901 326.935C-77.3496 326.918 -75.7813 326.901 -74.196 326.892C-71.0254 326.858 -67.7954 326.833 -64.4977 326.799C-57.9106 326.74 -51.0947 326.672 -44.1092 326.604C-16.1672 326.375 9.12131 326.163 27.4498 326.011C36.597 325.96 43.9979 325.909 49.1353 325.883C51.6871 325.883 53.6708 325.875 55.0272 325.875C55.6884 325.875 56.1971 325.875 56.5616 325.875C56.9092 325.875 57.0872 325.892 57.0872 325.892C57.0872 325.892 56.9092 325.909 56.5616 325.917C56.1971 325.926 55.6884 325.934 55.0272 325.951C53.6623 325.977 51.6786 326.002 49.1353 326.045C43.9979 326.112 36.597 326.197 27.4498 326.316C9.12131 326.502 -16.1672 326.757 -44.1092 327.036C-51.0947 327.096 -57.9106 327.164 -64.4977 327.223C-67.7869 327.248 -71.0254 327.282 -74.196 327.308C-75.7813 327.325 -77.3496 327.333 -78.901 327.35C-80.4524 327.367 -81.9784 327.367 -83.4789 327.469C-86.4799 327.698 -89.3877 328.266 -92.0582 329.232C-94.7371 330.199 -97.1701 331.58 -99.2556 333.25C-101.333 334.929 -102.986 336.955 -104.749 338.735C-106.478 340.541 -108.165 342.245 -109.776 343.873C-116.245 350.358 -121.636 355.445 -125.46 358.861C-127.376 360.565 -128.893 361.845 -129.978 362.659C-130.512 363.066 -130.945 363.354 -131.25 363.515C-131.555 363.685 -131.742 363.693 -131.742 363.693H-131.75Z" fill="#263238"/>
<g opacity="0.3">
<path d="M-101.58 300.829C-51.9186 314.054 0.548859 310.731 51.6006 304.839C59.4847 303.932 68.0555 302.618 73.4303 296.785" fill="black"/>
</g>
<path d="M83.501 255.043C64.1043 252.305 23.3274 250.94 -17.1529 250.965C-57.6331 250.94 -98.4186 252.305 -117.807 255.043C-123.885 255.899 -127.844 261.935 -126.106 267.827C-126.089 267.895 -126.064 267.963 -126.047 268.039C-123.928 275.008 -115.56 297.244 -102.242 300.576C-96.0618 302.119 -61.2361 303.602 -24.0706 303.907V303.958C-21.7647 303.958 -19.4588 303.958 -17.1529 303.941C-14.847 303.95 -12.5411 303.958 -10.2352 303.958V303.907C26.9219 303.611 61.7561 302.119 67.9362 300.576C81.2629 297.244 89.6217 275.008 91.7411 268.039C91.7581 267.971 91.7835 267.903 91.8005 267.827C93.5299 261.935 89.5794 255.899 83.501 255.043Z" fill="#263238"/>
<path d="M88.4103 297.626C88.4103 297.626 88.2408 297.728 87.9017 297.906C87.5456 298.093 87.037 298.347 86.3842 298.694C85.706 299.042 84.8837 299.457 83.9003 299.958C83.4086 300.203 82.8829 300.483 82.3065 300.746C81.73 301 81.1111 301.28 80.4584 301.568C75.2786 303.984 67.5217 306.977 57.6369 309.605C47.7351 312.165 35.7139 314.352 22.2346 315.497C8.76381 316.743 -6.11426 317.014 -21.7045 316.955C-37.3031 316.879 -52.1812 316.175 -65.6012 314.395C-79.0127 312.657 -90.9236 309.851 -100.622 306.595C-110.337 303.383 -117.831 299.78 -122.858 297.058C-124.13 296.397 -125.215 295.744 -126.173 295.193C-127.131 294.651 -127.92 294.159 -128.555 293.761C-129.183 293.362 -129.666 293.065 -130.005 292.853C-130.327 292.65 -130.488 292.531 -130.488 292.531C-130.488 292.531 -130.31 292.624 -129.98 292.819C-129.632 293.023 -129.149 293.311 -128.505 293.693C-127.86 294.083 -127.063 294.557 -126.097 295.091C-125.139 295.626 -124.045 296.27 -122.765 296.914C-117.721 299.585 -110.227 303.137 -100.512 306.307C-90.8219 309.512 -78.9279 312.284 -65.5334 313.996C-52.1388 315.751 -37.2777 316.446 -21.6875 316.514C-6.10579 316.582 8.76381 316.319 22.2092 315.098C35.6631 313.971 47.6757 311.826 57.569 309.308C67.4538 306.723 75.2023 303.781 80.399 301.416C81.0518 301.136 81.6707 300.865 82.2556 300.619C82.8321 300.365 83.3577 300.085 83.8494 299.847C84.8328 299.364 85.6721 298.957 86.3503 298.627C87.02 298.304 87.5287 298.059 87.8932 297.881C88.2408 297.711 88.4273 297.643 88.4273 297.643L88.4103 297.626Z" fill="#263238"/>
<path d="M90.8 265.869C90.8 265.988 42.3762 266.089 -17.3565 266.089C-77.0893 266.089 -125.521 265.988 -125.521 265.869C-125.521 265.75 -77.1062 265.648 -17.3565 265.648C42.3932 265.648 90.8 265.75 90.8 265.869Z" fill="#455A64"/>
<path d="M90.8 259.283C90.8 259.402 42.3762 259.503 -17.3565 259.503C-77.0893 259.503 -125.521 259.402 -125.521 259.283C-125.521 259.164 -77.1062 259.062 -17.3565 259.062C42.3932 259.062 90.8 259.164 90.8 259.283Z" fill="#455A64"/>
<path d="M60.188 252.697C60.188 252.816 25.5234 252.917 -17.2289 252.917C-59.9811 252.917 -94.6543 252.816 -94.6543 252.697C-94.6543 252.578 -59.9981 252.477 -17.2289 252.477C25.5403 252.477 60.188 252.578 60.188 252.697Z" fill="#455A64"/>
<path d="M90.8 272.549C90.8 272.667 42.3762 272.769 -17.3565 272.769C-77.0893 272.769 -125.521 272.667 -125.521 272.549C-125.521 272.43 -77.1062 272.328 -17.3565 272.328C42.3932 272.328 90.8 272.43 90.8 272.549Z" fill="#455A64"/>
<path d="M85.9934 279.228C85.9934 279.347 39.4941 279.449 -17.8565 279.449C-75.2071 279.449 -121.715 279.347 -121.715 279.228C-121.715 279.11 -75.224 279.008 -17.8565 279.008C39.511 279.008 85.9934 279.11 85.9934 279.228Z" fill="#455A64"/>
<path d="M83.8911 285.912C83.8911 286.03 38.6464 286.132 -17.1528 286.132C-72.9519 286.132 -118.205 286.03 -118.205 285.912C-118.205 285.793 -72.9689 285.691 -17.1528 285.691C38.6634 285.691 83.8911 285.793 83.8911 285.912Z" fill="#455A64"/>
<path d="M78.6688 292.592C78.6688 292.71 35.7554 292.812 -17.1614 292.812C-70.0782 292.812 -113 292.71 -113 292.592C-113 292.473 -70.0952 292.371 -17.1614 292.371C35.7724 292.371 78.6688 292.473 78.6688 292.592Z" fill="#455A64"/>
<path d="M72.1761 299.263C72.1761 299.382 32.4165 299.484 -16.6177 299.484C-65.6518 299.484 -105.42 299.382 -105.42 299.263C-105.42 299.145 -65.6687 299.043 -16.6177 299.043C32.4334 299.043 72.1761 299.145 72.1761 299.263Z" fill="#455A64"/>
<path d="M80.5019 360.275C80.5019 360.394 35.0622 360.496 -20.9743 360.496C-77.0109 360.496 -122.459 360.394 -122.459 360.275C-122.459 360.156 -77.0278 360.055 -20.9743 360.055C35.0792 360.055 80.5019 360.156 80.5019 360.275Z" fill="#455A64"/>
<path d="M33.6212 367.67H27.67L27.2461 360.277H34.0705L33.6212 367.67Z" fill="#455A64"/>
<path d="M77.3565 357.594C66.59 348.32 52.085 334.052 44.6247 332.687C35.5707 331.034 -8.45317 330.153 -22.4072 330.551C-36.3697 330.144 -80.3936 331.034 -89.4391 332.687C-96.3822 333.959 -109.26 347.565 -119.594 357.594H77.3735H77.3565Z" fill="#455A64"/>
<path d="M72.4826 354.248C72.4826 354.366 30.3577 354.468 -21.6011 354.468C-73.56 354.468 -115.693 354.366 -115.693 354.248C-115.693 354.129 -73.5769 354.027 -21.6011 354.027C30.3747 354.027 72.4826 354.129 72.4826 354.248Z" fill="#263238"/>
<path d="M68.7942 349.994C68.7942 350.113 28.475 350.214 -21.2374 350.214C-70.9497 350.214 -111.277 350.113 -111.277 349.994C-111.277 349.875 -70.9666 349.773 -21.2374 349.773C28.4919 349.773 68.7942 349.875 68.7942 349.994Z" fill="#263238"/>
<path d="M63.1895 345.634C63.1895 345.753 25.0575 345.855 -21.9674 345.855C-68.9924 345.855 -107.133 345.753 -107.133 345.634C-107.133 345.516 -69.0093 345.414 -21.9674 345.414C25.0745 345.414 63.1895 345.516 63.1895 345.634Z" fill="#263238"/>
<path d="M59.4515 341.275C59.4515 341.394 23.1337 341.496 -21.6616 341.496C-66.4569 341.496 -102.783 341.394 -102.783 341.275C-102.783 341.156 -66.4739 341.055 -21.6616 341.055C23.1507 341.055 59.4515 341.156 59.4515 341.275Z" fill="#263238"/>
<path d="M53.2295 337.123C53.2295 337.241 19.5567 337.343 -21.9748 337.343C-63.5062 337.343 -97.1875 337.241 -97.1875 337.123C-97.1875 337.004 -63.5232 336.902 -21.9748 336.902C19.5737 336.902 53.2295 337.004 53.2295 337.123Z" fill="#263238"/>
<path d="M46.1756 332.978C46.1756 333.097 15.7497 333.199 -21.7634 333.199C-59.2766 333.199 -89.7109 333.097 -89.7109 332.978C-89.7109 332.86 -59.2935 332.758 -21.7634 332.758C15.7667 332.758 46.1756 332.86 46.1756 332.978Z" fill="#263238"/>
<g opacity="0.3">
<path d="M-7.61478 200.847L-165.195 200.602C-165.195 200.602 -158.668 208.401 -146.663 208.333C-135.71 208.274 -29.1223 208.325 -10.4124 208.333C-10.4124 208.333 -9.95459 208.333 -9.10684 208.333C-8.13193 208.333 -7.61478 208.333 -7.61478 208.333C9.65396 208.325 101.381 208.274 110.859 208.333C121.329 208.401 126.466 200.847 126.466 200.847H-7.61478Z" fill="black"/>
</g>
<path d="M127.026 197.489L97.2105 145.801C96.7442 144.996 95.8965 144.478 94.9639 144.436L-7.61435 140.036L-17.4568 139.612C-18.6352 139.562 -19.8135 139.562 -20.9919 139.612L-30.8344 140.036L-133.413 144.436C-134.345 144.478 -135.193 144.987 -135.659 145.801L-165.475 197.489C-166.433 199.15 -165.424 201.261 -163.516 201.549C-163.092 201.609 -162.643 201.676 -162.16 201.727C-159.557 202.016 -55.4955 201.829 -19.2286 201.753C17.0468 201.829 121.109 202.016 123.703 201.727C124.178 201.676 124.635 201.617 125.059 201.549C126.958 201.261 127.975 199.159 127.018 197.489H127.026ZM113.301 195.318L-19.2201 196.217L-151.741 195.318C-153.835 195.301 -155.132 193.038 -154.081 191.232C-148.367 181.347 -134.015 156.61 -131.717 153.753C-127.546 148.573 -63.032 147.886 -28.715 147.895C-28.5115 147.946 -28.2996 147.971 -28.0791 147.971C-26.07 147.954 -23.035 147.937 -19.2201 147.92C-15.4052 147.937 -12.3703 147.954 -10.3611 147.971C-10.1407 147.971 -9.92873 147.946 -9.72527 147.895C24.5918 147.895 89.1144 148.573 93.2769 153.753C95.5743 156.61 109.927 181.347 115.641 191.232C116.683 193.038 115.386 195.301 113.301 195.318Z" fill="#263238"/>
<path d="M14.4284 192.453C14.4284 189.502 15.5644 181.169 18.2942 178.948C20.4051 177.235 25.3983 176.718 27.8653 176.574C27.9416 176.574 28.0179 176.574 28.1027 176.574C29.4082 176.591 38.1401 176.82 40.7512 178.948C43.4809 181.169 44.6254 189.502 44.6169 192.453V192.537C44.6169 194.369 43.1334 195.852 41.2937 195.852H17.7431C15.912 195.852 14.4199 194.369 14.4199 192.537V192.453H14.4284Z" fill="#263238"/>
<g opacity="0.3">
<path d="M14.4284 192.453C14.4284 189.502 15.5644 181.169 18.2942 178.948C20.4051 177.235 25.3983 176.718 27.8653 176.574C27.9416 176.574 28.0179 176.574 28.1027 176.574C29.4082 176.591 38.1401 176.82 40.7512 178.948C43.4809 181.169 44.6254 189.502 44.6169 192.453V192.537C44.6169 194.369 43.1334 195.852 41.2937 195.852H17.7431C15.912 195.852 14.4199 194.369 14.4199 192.537V192.453H14.4284Z" fill="black"/>
</g>
<path d="M26.3223 190.284C26.3223 185.461 28.1788 171.82 32.655 168.183C36.1138 165.377 44.2862 164.538 48.3215 164.301C48.4486 164.301 48.5758 164.292 48.703 164.301C50.8393 164.326 65.1324 164.708 69.4136 168.192C73.8897 171.829 75.7463 185.478 75.7463 190.293V190.437C75.7463 193.438 73.3133 195.871 70.3122 195.871H31.7564C28.7553 195.871 26.3223 193.438 26.3223 190.437V190.293V190.284Z" fill="#263238"/>
<g opacity="0.3">
<path d="M73.5507 331.332C73.5507 331.332 72.9149 335.189 81.9435 347.948C84.6987 351.848 93.456 359.706 96.7283 362.597C97.5252 363.301 98.5595 363.665 99.6276 363.623C108.716 363.224 152.536 361.198 159.81 359.062C163.099 358.096 165.574 356.968 167.423 355.883C170.627 353.992 172.501 350.474 172.365 346.761C172.136 340.462 171.746 329.382 171.746 326.483C171.746 322.363 168.881 318.895 163.54 319.548C160.022 319.972 73.5507 331.34 73.5507 331.34V331.332ZM101.806 330.45L158.597 325.296L160.242 348.194L118.439 354.967L101.815 330.459L101.806 330.45Z" fill="black"/>
</g>
<g opacity="0.3">
<path d="M170.44 272.551C170.44 272.551 174.721 285.556 147.508 291.609C119.956 297.738 79.1875 308.844 79.1875 308.844L101.085 293.237C101.085 293.237 164.073 282.733 165.641 273.094C167.439 262.073 165.641 249.688 165.641 249.688L170.44 272.551Z" fill="black"/>
</g>
<path d="M64.1407 330.945C64.1407 330.945 64.2339 330.902 64.4289 330.843C64.6408 330.784 64.9206 330.699 65.2767 330.597C66.0566 330.385 67.1587 330.072 68.5575 329.682C71.4229 328.927 75.5684 327.85 80.7312 326.664C91.0484 324.264 105.401 321.391 121.339 318.796C129.316 317.508 136.92 316.321 143.872 315.439C147.339 314.982 150.637 314.541 153.723 314.125C156.8 313.71 159.691 313.303 162.361 313.396C165.015 313.473 167.473 314.125 169.177 315.414C170.907 316.652 172.085 318.093 172.857 319.364C173.637 320.636 174.01 321.747 174.179 322.51C174.357 323.273 174.357 323.688 174.357 323.688C174.272 323.722 174.289 321.967 172.713 319.458C171.933 318.22 170.746 316.813 169.033 315.617C167.346 314.371 164.964 313.761 162.345 313.71C159.716 313.642 156.834 314.058 153.757 314.49C150.671 314.914 147.382 315.363 143.914 315.838C136.98 316.736 129.375 317.932 121.398 319.229C105.46 321.823 91.1077 324.646 80.7821 326.969C75.6193 328.113 71.4568 329.148 68.5829 329.843C67.1672 330.199 66.0566 330.479 65.2767 330.674C64.9121 330.758 64.6324 330.826 64.412 330.877C64.217 330.919 64.1152 330.936 64.1152 330.936L64.1407 330.945Z" fill="#263238"/>
<path d="M173.9 297.32C173.9 297.32 173.866 297.15 173.857 296.837C173.849 296.472 173.832 296.014 173.815 295.446C173.781 294.183 173.738 292.454 173.679 290.343C173.552 286.036 173.264 280.093 172.687 273.54C172.102 266.987 171.331 261.087 170.703 256.823C170.39 254.737 170.127 253.033 169.932 251.778C169.847 251.219 169.779 250.77 169.729 250.405C169.686 250.091 169.669 249.922 169.686 249.922C169.703 249.922 169.745 250.083 169.813 250.388C169.89 250.744 169.983 251.194 170.102 251.745C170.339 252.923 170.653 254.644 171.009 256.772C171.721 261.027 172.535 266.936 173.12 273.498C173.696 280.06 173.933 286.019 173.984 290.334C174.01 292.488 174.001 294.234 173.984 295.446C173.967 296.006 173.95 296.472 173.942 296.837C173.925 297.15 173.916 297.32 173.9 297.32Z" fill="#263238"/>
<path d="M154.977 238.742C154.892 238.742 154.875 237.267 154.435 234.918C154.002 232.579 153.163 229.391 152.069 225.915C150.976 222.439 149.848 219.337 149.034 217.099C148.644 216.047 148.322 215.157 148.059 214.445C147.831 213.818 147.72 213.462 147.746 213.453C147.771 213.445 147.941 213.775 148.221 214.377C148.492 214.988 148.882 215.878 149.323 216.988C150.221 219.21 151.391 222.304 152.485 225.788C153.587 229.272 154.384 232.494 154.74 234.868C154.85 235.453 154.875 236.004 154.935 236.478C154.994 236.953 155.011 237.36 155.011 237.699C155.011 238.369 155.011 238.742 154.977 238.742Z" fill="#263238"/>
<path d="M149.839 244.676C149.839 244.676 164.022 239.505 165.836 250.5C167.65 261.495 167.464 272.44 165.082 276.28C162.7 280.129 140.802 285.368 140.802 285.368L102.933 293.693C102.933 293.693 100.212 294.261 101.848 291.175C103.687 287.725 113.716 265.598 119.515 260.224C130.214 250.296 149.839 244.667 149.839 244.667V244.676Z" fill="#F5F5F5"/>
<g opacity="0.3">
<path d="M135.86 286.463C135.86 286.463 135.801 260.547 137.7 257.673C139.599 254.799 161.92 244.465 161.92 244.465C161.92 244.465 159.75 242.617 155.291 243.465C150.832 244.312 143.414 246.33 137.259 249.492C131.096 252.654 121.237 257.181 117.557 262.42C115.955 264.692 112.606 270.135 109.41 276.035C105.256 283.708 101.323 291.914 101.323 292.363C101.323 293.304 101.102 294.16 104.782 293.38C113.31 291.558 135.86 286.48 135.86 286.48V286.463Z" fill="black"/>
</g>
<path d="M123.516 284.122C128.591 284.122 132.705 280.007 132.705 274.932C132.705 269.857 128.591 265.742 123.516 265.742C118.441 265.742 114.326 269.857 114.326 274.932C114.326 280.007 118.441 284.122 123.516 284.122Z" fill="#F5F5F5"/>
<path d="M114.335 274.931C114.335 274.931 114.225 274.108 114.539 272.667C114.852 271.252 115.751 269.149 117.87 267.504C118.922 266.699 120.253 266.012 121.795 265.724C123.33 265.453 125.068 265.487 126.721 266.106C127.552 266.394 128.366 266.826 129.103 267.377C129.849 267.92 130.536 268.59 131.095 269.37C132.257 270.904 132.909 272.888 132.926 274.922C132.909 276.965 132.248 278.941 131.095 280.484C130.536 281.264 129.849 281.933 129.103 282.476C128.366 283.027 127.56 283.459 126.721 283.747C125.059 284.366 123.33 284.409 121.795 284.129C120.253 283.841 118.922 283.154 117.87 282.349C115.751 280.704 114.852 278.602 114.539 277.186C114.225 275.745 114.335 274.922 114.335 274.922C114.395 274.922 114.335 275.745 114.708 277.143C115.064 278.517 115.988 280.543 118.057 282.103C119.083 282.866 120.371 283.51 121.855 283.773C123.33 284.019 124.991 283.968 126.577 283.366C127.374 283.086 128.145 282.671 128.849 282.137C129.561 281.62 130.214 280.975 130.739 280.229C131.841 278.763 132.46 276.872 132.477 274.931C132.46 272.989 131.841 271.099 130.739 269.632C130.205 268.886 129.561 268.242 128.849 267.725C128.145 267.199 127.374 266.775 126.577 266.496C124.991 265.894 123.33 265.843 121.855 266.089C120.371 266.343 119.083 266.996 118.057 267.759C115.988 269.319 115.064 271.336 114.708 272.718C114.344 274.117 114.395 274.948 114.335 274.939V274.931Z" fill="#263238"/>
<path d="M123.517 274.534C120.143 274.534 117.209 276.408 115.692 279.163C114.988 277.883 114.59 276.425 114.59 274.865C114.59 269.931 118.591 265.93 123.525 265.93C128.459 265.93 132.46 269.931 132.46 274.865C132.46 276.425 132.062 277.892 131.358 279.163C129.841 276.399 126.908 274.534 123.534 274.534H123.517Z" fill="#E0E0E0"/>
<path d="M119.559 274.627C119.559 276.814 121.33 278.586 123.518 278.586C125.705 278.586 127.477 276.814 127.477 274.627C127.477 272.44 125.705 270.668 123.518 270.668C121.33 270.668 119.559 272.44 119.559 274.627Z" fill="white"/>
<path d="M119.558 274.626C119.558 274.626 119.533 274.541 119.524 274.371C119.516 274.202 119.524 273.956 119.6 273.642C119.719 273.023 120.101 272.091 121.033 271.362C121.923 270.624 123.449 270.183 124.941 270.726C126.425 271.218 127.722 272.786 127.705 274.634C127.722 276.482 126.425 278.059 124.941 278.542C123.449 279.076 121.923 278.635 121.033 277.906C120.109 277.169 119.728 276.245 119.609 275.626C119.541 275.312 119.524 275.058 119.533 274.897C119.533 274.727 119.55 274.643 119.567 274.643C119.609 274.643 119.6 274.999 119.77 275.592C119.94 276.177 120.338 277.025 121.22 277.669C122.067 278.322 123.458 278.678 124.797 278.178C126.128 277.711 127.273 276.304 127.256 274.651C127.273 272.998 126.128 271.591 124.797 271.124C123.458 270.624 122.067 270.98 121.22 271.625C120.338 272.269 119.94 273.117 119.77 273.702C119.6 274.295 119.609 274.651 119.567 274.651L119.558 274.626Z" fill="#263238"/>
<path d="M120.058 268.413C119.906 268.176 120.508 267.387 121.966 266.845C123.381 266.302 125.713 266.141 127.908 267.303C130.096 268.472 131.266 270.499 131.605 271.974C131.961 273.483 131.647 274.432 131.367 274.432C131.045 274.449 130.782 273.627 130.146 272.542C129.528 271.456 128.451 270.1 126.866 269.252C125.28 268.413 123.551 268.277 122.305 268.371C121.05 268.447 120.219 268.693 120.058 268.413Z" fill="white"/>
<path d="M117.751 269.869C117.251 269.522 117.005 269.004 117.26 268.759C117.514 268.513 118.023 268.767 118.353 269.284C118.684 269.793 118.879 270.259 118.794 270.344C118.709 270.42 118.252 270.217 117.743 269.869H117.751Z" fill="white"/>
<path d="M-198.809 366.869C-198.351 365.911 -197.385 365.224 -195.477 365.436C-190.179 366.038 -134.634 367.276 -126.987 365.436C-119.332 363.596 -93.8315 334.654 -83.0396 332.687C-73.9856 331.034 -29.9617 330.153 -16.0077 330.551C-2.0452 330.144 41.9787 331.034 51.0242 332.687C61.8161 334.663 86.9351 366.428 94.5903 368.268C102.246 370.107 158.172 366.038 163.47 365.436C165.386 365.216 166.353 365.902 166.802 366.869C167.743 368.861 166.217 371.158 164.004 371.226C152.178 371.557 106.493 372.083 97.9474 371.93C88.9781 371.769 -2.73186 370.09 -18.1016 369.811C-41.2708 369.955 -120.434 370.463 -128.818 370.582C-138.703 370.718 -184.211 371.557 -196.045 371.226C-198.249 371.167 -199.784 368.87 -198.843 366.869H-198.809Z" fill="#263238"/>
<path d="M-3.27281 154C-2.37419 154 -1.53493 154.424 -1.00932 155.153C0.525112 157.247 3.59398 161.579 3.67876 162.935C3.78896 164.741 2.77167 166.216 0.906609 166.445C-0.865196 166.657 -34.8093 166.47 -38.3275 166.445C-38.5479 166.445 -38.7598 166.42 -38.9718 166.36C-39.8958 166.131 -42.3034 165.368 -42.1254 163.724C-41.9558 162.223 -39.3447 157.671 -37.9714 155.365C-37.4627 154.517 -36.5556 154 -35.5638 154H-3.27281Z" fill="#263238"/>
<path d="M100.551 141.267C100.551 141.267 100.602 141.326 100.678 141.445C100.763 141.589 100.873 141.767 101 141.988C101.297 142.496 101.704 143.2 102.212 144.09C103.272 145.964 104.773 148.617 106.612 151.872C110.308 158.493 115.378 167.59 120.99 177.644C125.526 185.85 129.705 193.412 133.037 199.448L132.994 199.397C136.996 202.551 140.294 205.154 142.616 206.985C143.735 207.883 144.617 208.587 145.253 209.096C145.533 209.325 145.762 209.511 145.931 209.655C146.084 209.782 146.16 209.859 146.151 209.859C146.151 209.859 146.058 209.808 145.897 209.698L145.185 209.172C144.541 208.68 143.634 208.002 142.489 207.137C140.141 205.332 136.818 202.78 132.765 199.669L132.74 199.643L132.723 199.609C129.366 193.59 125.161 186.037 120.6 177.848C115.039 167.776 110.003 158.654 106.341 152.016C104.544 148.727 103.094 146.048 102.06 144.158C101.577 143.251 101.195 142.53 100.915 142.013C100.797 141.784 100.703 141.598 100.627 141.453C100.568 141.326 100.534 141.258 100.542 141.25L100.551 141.267Z" fill="#263238"/>
<path d="M84.9006 136.493C84.9176 136.443 85.7653 136.604 87.1048 137.019C88.4358 137.451 90.2754 138.164 92.0133 139.461C93.7427 140.766 94.9465 142.334 95.7349 143.487C96.5149 144.657 96.9048 145.429 96.854 145.454C96.7946 145.488 96.3114 144.776 95.4806 143.665C94.6413 142.572 93.429 141.071 91.7505 139.808C90.0635 138.553 88.2916 137.807 87.0031 137.307C85.706 136.816 84.8837 136.553 84.9006 136.485V136.493Z" fill="#263238"/>
<path d="M93.3112 363.693C93.3112 363.693 93.1247 363.693 92.8195 363.515C92.5143 363.346 92.082 363.066 91.5479 362.659C90.4628 361.854 88.9453 360.565 87.0293 358.861C83.206 355.445 77.8142 350.358 71.3459 343.873C69.7267 342.254 68.0481 340.541 66.3187 338.735C64.5638 336.955 62.9022 334.929 60.8252 333.25C58.7398 331.58 56.3067 330.199 53.6278 329.232C50.9489 328.257 48.0496 327.689 45.0486 327.469C43.548 327.359 42.0221 327.359 40.4707 327.35C38.9193 327.333 37.3509 327.325 35.7656 327.308C32.595 327.282 29.3651 327.248 26.0673 327.223C19.4803 327.164 12.6643 327.104 5.67884 327.036C-22.2631 326.757 -47.5517 326.502 -65.8801 326.316C-75.0274 326.206 -82.4283 326.112 -87.5657 326.045C-90.1089 326.002 -92.0927 325.968 -93.4575 325.951C-94.1188 325.934 -94.6274 325.926 -94.992 325.917C-95.3396 325.909 -95.5176 325.892 -95.5176 325.892C-95.5176 325.892 -95.3396 325.875 -94.992 325.875C-94.6274 325.875 -94.1188 325.875 -93.4575 325.875C-92.0927 325.875 -90.1089 325.875 -87.5657 325.883C-82.4283 325.917 -75.0274 325.96 -65.8801 326.011C-47.5517 326.163 -22.2631 326.367 5.67884 326.604C12.6643 326.672 19.4803 326.731 26.0673 326.799C29.3566 326.833 32.595 326.858 35.7656 326.892C37.3509 326.909 38.9193 326.926 40.4707 326.935C42.0136 326.952 43.5565 326.952 45.074 327.062C48.1089 327.299 51.0422 327.876 53.7635 328.868C56.4763 329.851 58.9433 331.267 61.0542 332.962C63.1651 334.683 64.8182 336.718 66.5561 338.498C68.277 340.304 69.9556 342.025 71.5663 343.652C78.0092 350.155 83.3586 355.284 87.148 358.725C89.0385 360.446 90.539 361.752 91.6072 362.583C92.1328 362.998 92.5567 363.295 92.8534 363.473C93.1501 363.659 93.3282 363.676 93.3197 363.693H93.3112Z" fill="#263238"/>
<g opacity="0.3">
<path d="M138.979 313.141C141.599 310.547 144.244 307.936 147.355 305.969C150.466 304.002 154.942 301.696 157.765 303.527C159.198 305.087 160.351 306.893 161.173 308.834C161.453 309.496 161.69 310.276 161.377 310.92C160.978 311.725 159.953 311.929 159.062 312.039C152.577 312.853 146.092 313.667 139.598 314.489C139.225 314.54 138.75 314.54 138.572 314.209C138.377 313.853 138.691 313.429 138.979 313.141Z" fill="white"/>
</g>
<path d="M143.948 368.481L143.931 368.54C143.516 369.981 144.601 371.584 146.101 371.55L160.191 371.312C161.293 371.287 162.209 370.193 162.344 369.1L162.438 368.32C162.607 366.93 161.319 365.658 159.928 365.76L145.949 366.785C145.016 366.853 144.194 367.574 143.94 368.481H143.948Z" fill="white"/>
<path d="M-118.941 360.275C-118.941 360.156 -73.5018 360.055 -17.4652 360.055C38.5713 360.055 84.0194 360.156 84.0194 360.275C84.0194 360.394 38.5883 360.496 -17.4652 360.496C-73.5187 360.496 -118.941 360.394 -118.941 360.275Z" fill="#455A64"/>
<path d="M39.2748 367.67H45.2345L45.6499 360.277H38.834L39.2748 367.67Z" fill="#455A64"/>
<path d="M-115.805 357.594C-105.038 348.32 -90.5331 334.052 -83.0729 332.687C-74.0189 331.034 -29.995 330.153 -16.041 330.551C-2.07845 330.144 41.9454 331.034 50.991 332.687C57.9341 333.959 70.8115 347.565 81.1456 357.594H-115.805Z" fill="#455A64"/>
<path d="M170.703 352.74C170.703 352.74 170.516 352.629 170.186 352.375L168.736 351.265C167.448 350.256 165.625 348.831 163.344 347.051L163.455 347.085C156.478 347.975 145.957 349.332 134.199 350.832C128.476 351.544 123.042 352.214 118.202 352.816L118.269 352.791C112.386 355.953 107.41 358.632 103.858 360.539C102.12 361.455 100.729 362.192 99.7459 362.709C99.2881 362.947 98.9236 363.125 98.6439 363.269C98.3895 363.396 98.2624 363.455 98.2539 363.447C98.2539 363.438 98.3726 363.362 98.6099 363.218C98.8812 363.065 99.2373 362.853 99.6781 362.599C100.653 362.056 102.026 361.285 103.739 360.327C107.274 358.386 112.225 355.656 118.074 352.443L118.108 352.426H118.151C122.991 351.807 128.417 351.12 134.148 350.391C145.915 348.95 156.435 347.653 163.421 346.797H163.48L163.522 346.831C165.769 348.653 167.566 350.12 168.838 351.146C169.431 351.638 169.898 352.028 170.245 352.316C170.559 352.587 170.72 352.731 170.711 352.74H170.703Z" fill="#263238"/>
<path d="M98.2537 336.555C98.2537 336.555 95.3713 331.689 98.2537 330.46C101.56 329.053 156.766 322.432 159.012 322.228C163.488 321.83 165.116 323.856 166.167 329.112C167.218 334.368 169.533 347.407 165.116 351.196C160.699 354.986 153.756 356.664 140.09 357.503C126.416 358.343 119.227 358.809 112.496 355.02C105.765 351.23 98.2622 336.547 98.2622 336.547L98.2537 336.555Z" fill="#263238"/>
<path d="M101.086 293.235C100.95 293.175 101.459 291.633 102.561 288.911C103.663 286.19 105.35 282.29 107.664 277.568C108.843 275.22 110.131 272.643 111.674 269.947C113.217 267.26 114.921 264.403 117.075 261.588C118.16 260.206 119.423 258.765 120.847 257.57C122.271 256.349 123.857 255.247 125.518 254.272C127.18 253.297 128.875 252.415 130.596 251.491C132.317 250.576 134.072 249.652 135.886 248.762C139.498 246.981 143.151 245.421 146.822 244.285C148.653 243.717 150.493 243.26 152.299 242.895C154.096 242.522 155.961 242.259 157.826 242.344C159.683 242.437 161.59 242.954 163.108 244.09C164.617 245.235 165.558 246.837 166.126 248.363C166.711 249.898 167.016 251.398 167.287 252.822C167.55 254.221 167.804 255.569 168.05 256.849C169.067 261.987 169.83 266.166 170.254 269.074C170.678 271.982 170.771 273.609 170.627 273.635C170.475 273.66 170.093 272.083 169.406 269.235C168.72 266.361 167.736 262.249 166.524 257.18C166.219 255.908 165.922 254.543 165.617 253.161C165.303 251.788 164.973 250.372 164.422 249.041C163.888 247.71 163.091 246.49 161.955 245.659C160.81 244.836 159.318 244.438 157.733 244.379C156.131 244.328 154.452 244.574 152.714 244.964C150.976 245.328 149.221 245.794 147.458 246.345C143.931 247.465 140.396 248.99 136.844 250.737C135.064 251.61 133.326 252.517 131.614 253.424C129.901 254.34 128.189 255.213 126.603 256.137C125.01 257.053 123.543 258.053 122.195 259.18C120.83 260.3 119.737 261.529 118.66 262.851C116.557 265.496 114.82 268.268 113.234 270.88C111.649 273.491 110.284 276 109.029 278.289C106.562 282.884 104.663 286.665 103.324 289.267C101.993 291.87 101.213 293.303 101.069 293.235H101.086Z" fill="#263238"/>
<path d="M150.898 265.445C146.6 265.445 142.862 267.827 140.929 271.346C140.03 269.718 139.521 267.853 139.521 265.869C139.521 259.587 144.616 254.492 150.898 254.492C157.18 254.492 162.275 259.587 162.275 265.869C162.275 267.853 161.767 269.718 160.868 271.346C158.935 267.827 155.196 265.445 150.898 265.445Z" fill="#E0E0E0"/>
<path d="M145.99 265.494C145.99 268.198 148.186 270.394 150.89 270.394C153.595 270.394 155.79 268.198 155.79 265.494C155.79 262.789 153.595 260.594 150.89 260.594C148.186 260.594 145.99 262.789 145.99 265.494Z" fill="white"/>
<path d="M145.99 265.495C145.99 265.495 145.964 265.385 145.964 265.181C145.964 264.978 145.981 264.664 146.066 264.283C146.227 263.52 146.693 262.375 147.838 261.477C148.94 260.578 150.805 260.044 152.636 260.705C153.535 261.019 154.4 261.629 155.018 262.477C155.654 263.316 156.01 264.393 156.019 265.504C156.01 266.614 155.654 267.691 155.018 268.53C154.4 269.378 153.535 269.988 152.636 270.302C150.805 270.963 148.94 270.429 147.838 269.53C146.693 268.632 146.227 267.487 146.066 266.724C145.981 266.334 145.956 266.029 145.964 265.826C145.964 265.622 145.981 265.512 145.99 265.512C146.032 265.512 146.024 265.953 146.227 266.69C146.431 267.419 146.931 268.471 148.024 269.285C149.084 270.098 150.822 270.556 152.501 269.929C154.162 269.352 155.603 267.581 155.578 265.512C155.595 263.443 154.162 261.672 152.501 261.095C150.822 260.468 149.084 260.917 148.024 261.74C146.931 262.553 146.431 263.613 146.227 264.334C146.024 265.071 146.032 265.512 145.99 265.512V265.495Z" fill="#263238"/>
<path d="M139.523 265.868C139.523 265.868 139.506 265.622 139.523 265.139C139.523 264.901 139.532 264.605 139.591 264.257C139.633 263.91 139.676 263.511 139.803 263.07C140.193 261.324 141.312 258.73 143.931 256.704C145.229 255.712 146.873 254.864 148.772 254.516C150.663 254.177 152.807 254.228 154.851 254.991C155.876 255.347 156.877 255.881 157.784 256.559C158.708 257.229 159.547 258.052 160.242 259.018C161.675 260.908 162.48 263.358 162.506 265.868C162.489 268.386 161.675 270.827 160.242 272.718C159.547 273.676 158.708 274.506 157.784 275.176C156.868 275.854 155.876 276.388 154.851 276.745C152.807 277.516 150.663 277.558 148.772 277.219C146.865 276.872 145.22 276.024 143.931 275.032C141.312 273.006 140.201 270.412 139.803 268.665C139.676 268.225 139.633 267.826 139.591 267.479C139.532 267.131 139.523 266.834 139.523 266.597C139.515 266.122 139.523 265.868 139.523 265.868C139.591 265.868 139.523 266.885 139.964 268.623C140.405 270.327 141.541 272.845 144.11 274.786C145.381 275.736 146.983 276.541 148.831 276.863C150.663 277.177 152.731 277.118 154.706 276.363C155.698 276.015 156.656 275.498 157.529 274.837C158.42 274.193 159.225 273.387 159.886 272.463C161.26 270.632 162.031 268.284 162.056 265.868C162.031 263.452 161.26 261.103 159.886 259.272C159.225 258.348 158.42 257.543 157.529 256.899C156.648 256.237 155.698 255.72 154.706 255.373C152.74 254.618 150.671 254.559 148.831 254.872C146.983 255.195 145.381 256 144.11 256.949C141.541 258.891 140.396 261.4 139.964 263.113C139.523 264.851 139.591 265.876 139.523 265.868Z" fill="#263238"/>
<path d="M146.601 257.799C146.448 257.57 147.228 256.654 149 256.035C150.729 255.416 153.552 255.255 156.189 256.654C158.817 258.07 160.267 260.494 160.716 262.275C161.191 264.097 160.868 265.25 160.597 265.25C160.267 265.267 160.012 264.233 159.266 262.843C158.537 261.452 157.189 259.689 155.163 258.604C153.128 257.527 150.916 257.392 149.356 257.561C147.779 257.714 146.779 258.087 146.609 257.799H146.601Z" fill="white"/>
<path d="M143.753 259.604C143.253 259.257 143.033 258.706 143.329 258.417C143.626 258.129 144.177 258.367 144.508 258.875C144.838 259.384 144.991 259.875 144.872 260.003C144.745 260.121 144.262 259.952 143.762 259.604H143.753Z" fill="white"/>
<path d="M79.1881 308.842C79.0356 308.249 94.0069 303.959 112.624 299.254C131.24 294.549 146.457 291.217 146.602 291.811C146.754 292.404 131.783 296.694 113.158 301.399C94.541 306.104 79.3323 309.435 79.1797 308.842H79.1881Z" fill="#263238"/>
<path d="M168.872 246.583C168.872 246.583 168.846 246.498 168.812 246.329C168.779 246.159 168.728 245.905 168.643 245.583C168.465 244.938 168.168 243.98 167.532 242.87C166.897 241.776 165.871 240.538 164.319 239.623C163.938 239.385 163.497 239.216 163.065 239.012C162.598 238.877 162.141 238.682 161.64 238.589C161.14 238.504 160.623 238.36 160.089 238.351C159.555 238.317 158.995 238.334 158.436 238.385C156.164 238.58 153.714 239.157 151.111 239.869C148.509 240.581 145.77 241.462 142.905 242.454C137.191 244.464 130.952 246.871 124.611 249.821C123.822 250.194 123.042 250.576 122.288 250.983C121.533 251.381 120.855 251.881 120.185 252.407C118.863 253.458 117.667 254.637 116.642 255.908C114.709 258.545 112.937 261.232 111.241 263.733C107.859 268.769 104.943 273.397 102.56 277.322C100.187 281.256 98.3471 284.478 97.0924 286.716C96.4736 287.818 95.9904 288.682 95.6428 289.293C95.4817 289.573 95.3545 289.784 95.2613 289.962C95.1765 290.115 95.1257 290.183 95.1172 290.183C95.1172 290.183 95.1426 290.098 95.2189 289.946C95.3037 289.767 95.4224 289.539 95.5665 289.259C95.8717 288.657 96.3295 287.767 96.9399 286.639C98.1521 284.376 99.9494 281.12 102.289 277.161C104.637 273.211 107.528 268.565 110.902 263.513C112.606 260.986 114.336 258.341 116.303 255.645C117.345 254.34 118.566 253.145 119.906 252.068C120.584 251.542 121.287 251.017 122.067 250.601C122.839 250.186 123.619 249.804 124.416 249.423C130.782 246.464 137.03 244.074 142.769 242.073C145.643 241.089 148.399 240.216 151.018 239.513C153.629 238.817 156.105 238.258 158.41 238.071C158.987 238.021 159.555 238.012 160.114 238.054C160.674 238.071 161.191 238.224 161.708 238.317C162.225 238.419 162.692 238.622 163.166 238.767C163.607 238.987 164.057 239.165 164.446 239.411C166.032 240.377 167.066 241.657 167.685 242.785C168.304 243.929 168.584 244.904 168.728 245.566C168.804 245.896 168.838 246.151 168.855 246.329C168.872 246.498 168.872 246.591 168.863 246.591L168.872 246.583Z" fill="#263238"/>
<g opacity="0.3">
<path d="M172.398 251.38C173.238 251.659 177.841 254.525 179.791 255.618C181.741 256.712 183.445 258.433 184.013 260.595C184.572 262.748 183.953 265.02 183.343 267.156C181.334 274.15 179.002 286.722 176.993 293.708C175.425 281.026 173.712 259.425 172.398 251.371" fill="white"/>
</g>
<path d="M109.266 351.993C109.249 351.874 122.33 349.958 138.488 347.728C154.646 345.49 167.752 343.778 167.769 343.896C167.786 344.015 154.705 345.931 138.547 348.161C122.397 350.399 109.283 352.111 109.266 351.993Z" fill="#455A64"/>
<path d="M113.438 355.195C113.438 355.195 113.624 355.136 113.98 355.077C114.379 355.009 114.896 354.924 115.54 354.822C116.896 354.61 118.863 354.322 121.296 353.983C126.162 353.305 132.885 352.465 140.328 351.584C147.738 350.702 154.452 349.897 159.369 349.312C161.768 349.024 163.726 348.786 165.142 348.617C165.786 348.549 166.312 348.49 166.71 348.447C167.066 348.413 167.261 348.405 167.261 348.413C167.261 348.43 167.075 348.473 166.719 348.532C166.32 348.6 165.803 348.684 165.159 348.786C163.803 348.998 161.836 349.286 159.403 349.625C154.537 350.304 147.814 351.143 140.371 352.025C132.961 352.906 126.256 353.712 121.33 354.297C118.931 354.585 116.973 354.822 115.557 354.992C114.913 355.06 114.387 355.119 113.989 355.161C113.633 355.195 113.438 355.204 113.438 355.195Z" fill="#455A64"/>
<path d="M122.602 357.594C122.559 357.594 123.119 357.51 124.077 357.391C125.111 357.255 126.493 357.086 128.172 356.874C131.698 356.45 136.446 355.882 141.693 355.246C146.941 354.653 151.697 354.119 155.223 353.712C156.902 353.542 158.292 353.398 159.327 353.296C160.293 353.212 160.836 353.169 160.836 353.203C160.836 353.237 160.31 353.33 159.344 353.466C158.309 353.61 156.927 353.797 155.257 354.025C151.799 354.475 147.026 355.068 141.744 355.687C136.463 356.306 131.681 356.832 128.214 357.188C124.755 357.535 122.568 357.713 122.61 357.603L122.602 357.594Z" fill="#455A64"/>
<path d="M106.206 348.348C106.189 348.229 119.956 346.313 136.954 344.084C153.96 341.846 167.753 340.133 167.761 340.252C167.778 340.371 154.011 342.287 137.005 344.516C120.007 346.754 106.214 348.467 106.197 348.348H106.206Z" fill="#455A64"/>
<path d="M103.814 344.956C103.798 344.838 118.057 342.862 135.648 340.548C153.247 338.234 167.532 336.453 167.549 336.572C167.566 336.691 153.315 338.666 135.707 340.98C118.108 343.295 103.831 345.075 103.814 344.948V344.956Z" fill="#455A64"/>
<path d="M101.128 340.955C101.111 340.837 115.768 338.811 133.859 336.428C151.959 334.046 166.642 332.215 166.651 332.342C166.668 332.461 152.01 334.487 133.91 336.869C115.819 339.251 101.136 341.083 101.119 340.955H101.128Z" fill="#455A64"/>
<path d="M99.0664 336.87C99.0495 336.751 113.97 334.691 132.383 332.266C150.805 329.842 165.742 327.977 165.759 328.104C165.776 328.222 150.864 330.283 132.442 332.707C114.029 335.132 99.0834 336.997 99.0664 336.87Z" fill="#455A64"/>
<path d="M96.9824 332.785C96.9655 332.666 112.005 330.589 130.57 328.148C149.136 325.706 164.201 323.824 164.218 323.943C164.235 324.062 149.196 326.139 130.63 328.58C112.064 331.022 96.9994 332.904 96.9824 332.785Z" fill="#455A64"/>
<path d="M145.601 323.457C145.719 323.432 147.372 330.731 149.297 339.759C151.221 348.788 152.679 356.13 152.561 356.155C152.442 356.18 150.789 348.881 148.864 339.853C146.94 330.824 145.482 323.483 145.601 323.457Z" fill="#455A64"/>
<path d="M151.153 322.531C151.272 322.506 152.925 329.805 154.849 338.834C156.774 347.862 158.232 355.204 158.113 355.229C157.995 355.255 156.342 347.955 154.417 338.927C152.493 329.898 151.035 322.557 151.153 322.531Z" fill="#455A64"/>
<path d="M156.699 321.609C156.817 321.584 158.386 328.493 160.208 337.03C162.031 345.575 163.404 352.519 163.286 352.544C163.167 352.569 161.599 345.669 159.776 337.123C157.962 328.586 156.58 321.635 156.699 321.609Z" fill="#455A64"/>
<path d="M162.717 322.872C162.717 322.872 162.844 323.185 162.997 323.77C163.149 324.355 163.353 325.203 163.582 326.263C164.057 328.374 164.633 331.298 165.201 334.545C165.777 337.733 166.295 340.615 166.693 342.845C166.871 343.837 167.024 344.676 167.142 345.363C167.244 345.956 167.278 346.295 167.253 346.295C167.219 346.295 167.125 345.982 166.973 345.397C166.82 344.812 166.617 343.964 166.388 342.904C165.913 340.793 165.337 337.869 164.769 334.613C164.192 331.426 163.675 328.543 163.277 326.314C163.099 325.322 162.946 324.482 162.827 323.796C162.726 323.202 162.692 322.863 162.717 322.863V322.872Z" fill="#455A64"/>
<path d="M139.191 324.609C139.309 324.584 140.912 331.629 142.768 340.344C144.625 349.059 146.032 356.146 145.913 356.171C145.795 356.197 144.192 349.152 142.336 340.437C140.479 331.722 139.072 324.635 139.191 324.609Z" fill="#455A64"/>
<path d="M132.808 325.899C132.926 325.873 134.529 332.935 136.394 341.675C138.25 350.416 139.666 357.52 139.547 357.545C139.429 357.571 137.826 350.509 135.961 341.768C134.105 333.037 132.689 325.932 132.808 325.907V325.899Z" fill="#455A64"/>
<path d="M126.23 326.246C126.348 326.221 127.942 333.223 129.782 341.879C131.63 350.543 133.02 357.579 132.902 357.605C132.783 357.63 131.189 350.636 129.349 341.972C127.51 333.316 126.111 326.272 126.23 326.246Z" fill="#455A64"/>
<path d="M119.753 327.094C119.872 327.068 121.457 334.028 123.288 342.642C125.119 351.255 126.51 358.257 126.391 358.283C126.272 358.308 124.687 351.348 122.856 342.735C121.025 334.122 119.634 327.119 119.753 327.094Z" fill="#455A64"/>
<path d="M113.361 328.356C113.48 328.33 114.963 334.841 116.684 342.895C118.397 350.948 119.694 357.501 119.575 357.527C119.456 357.552 117.973 351.041 116.252 342.988C114.539 334.934 113.242 328.381 113.361 328.356Z" fill="#455A64"/>
<path d="M106.824 328.899C106.943 328.873 108.342 334.96 109.944 342.488C111.546 350.016 112.75 356.145 112.632 356.171C112.513 356.196 111.114 350.118 109.512 342.581C107.91 335.053 106.706 328.932 106.824 328.907V328.899Z" fill="#455A64"/>
<path d="M100.391 329.953C100.509 329.928 101.374 333.514 102.323 337.956C103.273 342.398 103.943 346.027 103.824 346.052C103.705 346.078 102.841 342.492 101.891 338.049C100.942 333.607 100.272 329.979 100.391 329.953Z" fill="#455A64"/>
<path d="M-110.93 354.248C-110.93 354.129 -68.8048 354.027 -16.8459 354.027C35.1129 354.027 77.2463 354.129 77.2463 354.248C77.2463 354.366 35.1299 354.468 -16.8459 354.468C-68.8217 354.468 -110.93 354.366 -110.93 354.248Z" fill="#263238"/>
<path d="M-107.234 349.994C-107.234 349.875 -66.9152 349.773 -17.2029 349.773C32.5094 349.773 72.8371 349.875 72.8371 349.994C72.8371 350.113 32.5264 350.214 -17.2029 350.214C-66.9321 350.214 -107.234 350.113 -107.234 349.994Z" fill="#263238"/>
<path d="M-101.631 345.634C-101.631 345.516 -63.4989 345.414 -16.4739 345.414C30.551 345.414 68.6914 345.516 68.6914 345.634C68.6914 345.753 30.5679 345.855 -16.4739 345.855C-63.5158 345.855 -101.631 345.753 -101.631 345.634Z" fill="#263238"/>
<path d="M-97.9004 341.275C-97.9004 341.156 -61.5826 341.055 -16.7872 341.055C28.0081 341.055 64.3344 341.156 64.3344 341.275C64.3344 341.394 28.025 341.496 -16.7872 341.496C-61.5995 341.496 -97.9004 341.394 -97.9004 341.275Z" fill="#263238"/>
<path d="M-91.668 337.123C-91.668 337.004 -57.9952 336.902 -16.4637 336.902C25.0678 336.902 58.7491 337.004 58.7491 337.123C58.7491 337.241 25.0847 337.343 -16.4637 337.343C-58.0121 337.343 -91.668 337.241 -91.668 337.123Z" fill="#263238"/>
<path d="M-84.6152 332.978C-84.6152 332.86 -54.1893 332.758 -16.6762 332.758C20.8369 332.758 51.2713 332.86 51.2713 332.978C51.2713 333.097 20.8539 333.199 -16.6762 333.199C-54.2063 333.199 -84.6152 333.097 -84.6152 332.978Z" fill="#263238"/>
</svg>
