<svg width="22" height="20" viewBox="0 0 22 20" fill="none" xmlns="http://www.w3.org/2000/svg">
<path fill-rule="evenodd" clip-rule="evenodd" d="M20.847 18.6058L17.2944 15.2468L17.2138 15.1258C17.0568 14.9728 16.847 14.8908 16.6248 14.8908C16.4068 14.8908 16.1929 14.9728 16.04 15.1258C13.0206 17.8048 8.37058 17.9498 5.16931 15.4648C1.96804 12.9768 1.21371 8.63277 3.40541 5.30977C5.59711 1.98777 10.0539 0.71977 13.8193 2.34477C17.5858 3.96977 19.4944 7.98377 18.2761 11.7268C18.1914 12.0008 18.2596 12.2938 18.4652 12.5008C18.6677 12.7078 18.9746 12.7938 19.265 12.7308C19.5554 12.6688 19.7899 12.4608 19.8788 12.1918C21.3317 7.75077 19.1358 2.96977 14.7121 0.940771C10.2874 -1.08523 4.95954 0.250771 2.17884 4.08577C-0.602891 7.92177 -0.00562459 13.1018 3.58728 16.2818C7.17501 19.4578 12.6816 19.6758 16.5401 16.7938L19.6845 19.7698C20.008 20.0788 20.5319 20.0788 20.8594 19.7698C21.1818 19.4608 21.1818 18.9608 20.8594 18.6488L20.847 18.6058Z" fill="black"/>
</svg>
