<svg width="20" height="20" viewBox="0 0 20 20" fill="none" xmlns="http://www.w3.org/2000/svg">
<path d="M8.59104 6.01777C9.1261 4.68387 9.39363 4.01692 9.82828 3.92448C9.94257 3.90017 10.0607 3.90017 10.175 3.92448C10.6096 4.01692 10.8772 4.68387 11.4122 6.01777C11.7165 6.77634 11.8686 7.15562 12.1533 7.4136C12.2332 7.48595 12.3198 7.5504 12.4121 7.60602C12.7412 7.80434 13.1519 7.84112 13.9734 7.91469C15.364 8.03923 16.0593 8.10151 16.2717 8.49796C16.3157 8.58007 16.3456 8.66897 16.3601 8.76096C16.4305 9.20515 15.9194 9.6702 14.897 10.6003L14.6131 10.8586C14.1352 11.2934 13.8962 11.5108 13.758 11.7822C13.6751 11.9449 13.6195 12.1202 13.5934 12.301C13.55 12.6024 13.62 12.9179 13.7599 13.5487L13.8099 13.7741C14.0609 14.9053 14.1864 15.471 14.0298 15.749C13.8891 15.9987 13.6299 16.1586 13.3435 16.1723C13.0248 16.1875 12.5756 15.8215 11.6773 15.0895C11.0854 14.6073 10.7895 14.3661 10.461 14.2719C10.1608 14.1859 9.84245 14.1859 9.54224 14.2719C9.21374 14.3661 8.91782 14.6073 8.32597 15.0895C7.42766 15.8215 6.97851 16.1875 6.65974 16.1723C6.37341 16.1586 6.1142 15.9987 5.97348 15.749C5.81682 15.471 5.94232 14.9053 6.19331 13.7741L6.24332 13.5487C6.38328 12.9179 6.45326 12.6024 6.40983 12.301C6.38378 12.1202 6.32819 11.9449 6.24527 11.7822C6.10704 11.5108 5.86806 11.2934 5.39011 10.8586L5.10622 10.6003C4.08389 9.6702 3.57273 9.20515 3.64313 8.76096C3.6577 8.66897 3.6876 8.58007 3.73158 8.49796C3.94391 8.10151 4.63923 8.03923 6.02986 7.91469C6.85135 7.84112 7.2621 7.80434 7.59113 7.60602C7.68342 7.5504 7.7701 7.48595 7.84994 7.4136C8.13462 7.15562 8.28676 6.77634 8.59104 6.01777Z" fill="#FFBD14" stroke="#FFBD14" stroke-width="2"/>
</svg>
