<svg width="14" height="14" viewBox="0 0 14 14" fill="none" xmlns="http://www.w3.org/2000/svg">
<path d="M12.0547 11.4546H2.50923C1.98197 11.4546 1.55469 11.882 1.55469 12.4091C1.55469 13.2878 2.26687 14 3.14556 14H11.4183C12.2969 14 13.0092 13.2878 13.0092 12.4091C13.0092 11.882 12.5818 11.4546 12.0547 11.4546ZM4.57493 5.70583C4.58448 5.01068 5.15184 4.45275 5.84698 4.45451H8.71692C9.41955 4.45531 9.98888 5.02464 9.98968 5.72728L10.3212 10.8182H11.72L11.4183 5.09095C11.4171 4.03701 10.5631 3.18302 9.50916 3.18186H9.19106V2.54542H9.82738C10.1787 2.54506 10.4633 2.26039 10.4637 1.90909V1.27277C10.4629 0.570132 9.89357 0.000835228 9.19106 0H5.37287C4.67024 0.000805398 4.10094 0.570132 4.1001 1.27277V1.90909C4.10046 2.26039 4.38513 2.54506 4.73643 2.54542H5.37287V3.18186H5.05465C4.00653 3.18082 3.15406 4.02604 3.14615 5.07416L2.84389 10.8182H4.22724L4.57493 5.70583ZM6.0092 2.54542H8.55461V3.18186H6.0092V2.54542Z" fill="black"/>
<path d="M8.71698 5.08984H5.84707C5.49574 5.0902 5.21111 5.37487 5.21072 5.72617L4.86523 10.8171H9.68354L9.3539 5.74669C9.35583 5.66158 9.34082 5.57693 9.30974 5.49767C9.27866 5.41841 9.23214 5.34612 9.17287 5.285C9.11361 5.22388 9.04278 5.17515 8.96452 5.14165C8.88625 5.10815 8.80211 5.09054 8.71698 5.08984Z" fill="black"/>
</svg>
