<svg width="14" height="14" viewBox="0 0 14 14" fill="none" xmlns="http://www.w3.org/2000/svg">
<path d="M3.76745 1.00625V2.49375L3.31573 2.42919C2.92842 2.37382 2.64453 2.08657 2.64453 1.75C2.64453 1.41512 2.92647 1.12645 3.31573 1.07081L3.76745 1.00625ZM9.72209 0.933241V2.56676C9.72209 3.08161 9.23496 3.5 8.63331 3.5C8.47412 3.5 8.33663 3.59461 8.30218 3.72777L7.85078 5.46875H6.14918L5.69778 3.72777C5.6639 3.59707 5.52902 3.5 5.36664 3.5C4.76531 3.5 4.27786 3.08218 4.27786 2.56676V0.933241C4.27786 0.417812 4.76531 0 5.36664 0H8.63331C9.23464 0 9.72209 0.417812 9.72209 0.933241ZM7.81664 6.34374V7.69999C7.81664 8.08663 7.45106 8.39999 6.99998 8.39999C6.5489 8.39999 6.18331 8.08666 6.18331 7.69999V6.34374H7.81664ZM9.21167 10.8489C9.21167 11.189 8.88967 11.4625 8.49582 11.4625H5.50414C5.1092 11.4625 4.78828 11.1871 4.78828 10.8489C4.78828 10.7517 4.75434 10.9118 5.38993 8.46042C6.0833 9.54271 7.90727 9.54889 8.6097 8.45878C9.24616 10.9139 9.21167 10.7519 9.21167 10.8489Z" fill="black"/>
<path d="M12.4438 8.86676V12.1332C12.4438 13.1644 11.4689 14 10.2659 14H3.73257C2.52958 14 1.55469 13.1644 1.55469 12.1332V8.86676C1.55469 7.83562 2.52958 7 3.73257 7H4.93492C4.73267 7.23926 4.58943 7.51215 4.51351 7.80527C3.75835 10.7179 3.7667 10.6168 3.7667 10.8489C3.7667 11.6698 4.54573 12.3375 5.5034 12.3375H8.49507C9.45482 12.3375 10.2318 11.6713 10.2318 10.8489C10.2318 10.6236 10.2551 10.7745 9.48496 7.80527C9.40904 7.51187 9.2658 7.23926 9.06323 7H10.2659C11.4689 7 12.4438 7.83562 12.4438 8.86676Z" fill="black"/>
</svg>
