<svg width="14" height="14" viewBox="0 0 14 14" fill="none" xmlns="http://www.w3.org/2000/svg">
<g clip-path="url(#clip0_624_1744)">
<path d="M1.36878 2.97691H1.04902V1.13612H3.69601C3.00598 1.47025 2.37707 1.91804 1.83557 2.46077C1.67145 2.62491 1.51566 2.79718 1.36878 2.97691ZM13.609 0.167969C13.5054 0.168083 13.4062 0.209268 13.3329 0.282488C13.2597 0.355709 13.2185 0.454985 13.2184 0.558538V3.5545C13.2193 3.65751 13.2608 3.75599 13.334 3.82852C13.4071 3.90105 13.506 3.94174 13.609 3.94174C13.712 3.94174 13.8108 3.90105 13.884 3.82852C13.9571 3.75599 13.9987 3.65751 13.9996 3.5545V0.558538C13.9995 0.454973 13.9583 0.355683 13.885 0.28246C13.8118 0.209236 13.7125 0.16806 13.6089 0.167969H13.609ZM0.760945 1.46516H0V2.64779H0.760974L0.760945 1.46516ZM8.13996 3.65238C8.86346 3.94672 9.48288 4.4499 9.91923 5.09772C10.3556 5.74555 10.5891 6.50866 10.5899 7.28974C10.5899 9.45423 8.82901 11.2152 6.66451 11.2152C4.50002 11.2152 2.73914 9.45423 2.73914 7.28974C2.73914 5.12524 4.50007 3.36431 6.66457 3.36431H12.9302V0.748609H6.66457C3.05775 0.748637 0.123439 3.68295 0.123439 7.28974C0.123439 10.8965 3.05775 13.8309 6.66454 13.8309C10.2713 13.8309 13.2057 10.8965 13.2057 7.28974C13.2079 5.99434 12.8233 4.72777 12.1011 3.65238H8.13996ZM8.81875 6.39657C8.63215 6.58183 8.42212 6.74189 8.19401 6.87267C8.21497 6.94958 8.23006 7.02798 8.23915 7.10719C8.42909 7.16594 8.62678 7.19589 8.82561 7.19603H8.84038C9.29543 7.1926 9.74084 7.06453 10.1282 6.82574L10.261 6.74246C10.3176 7.11834 10.3154 7.50074 10.2544 7.87594C9.80932 8.07549 9.32742 8.17963 8.83969 8.18164H8.82033C8.557 8.18078 8.29492 8.14542 8.04078 8.07647C8.00122 8.14557 7.95652 8.2116 7.90706 8.274C7.99974 8.44989 8.11835 8.61084 8.25891 8.75145C8.58203 9.07814 8.99099 9.30673 9.43854 9.41082L9.5924 9.44556C9.36672 9.75118 9.09493 10.0199 8.78677 10.2421C8.32521 10.0661 7.90631 9.79402 7.55782 9.44392C7.37259 9.25735 7.21257 9.04733 7.08184 8.81923C7.00492 8.84018 6.92652 8.85527 6.84732 8.86437C6.78855 9.05431 6.75861 9.25199 6.75848 9.4508C6.7589 9.91091 6.88705 10.3619 7.12865 10.7534L7.21176 10.886C6.83596 10.9429 6.45357 10.9407 6.07843 10.8796C5.87597 10.4284 5.7718 9.9392 5.77284 9.44461C5.77373 9.1816 5.80908 8.91983 5.87799 8.66601C5.80889 8.62646 5.74287 8.58177 5.68048 8.53231C5.50459 8.62499 5.34363 8.74359 5.203 8.88414C4.87631 9.20727 4.64772 9.61624 4.54363 10.0638L4.50883 10.2175C4.20321 9.9918 3.93451 9.72002 3.71234 9.41186C3.88833 8.95029 4.16039 8.53138 4.51047 8.18288C4.69707 7.99766 4.90709 7.83763 5.13519 7.70687C5.11423 7.62996 5.09913 7.55157 5.09002 7.47238C4.90008 7.41362 4.70241 7.38367 4.50359 7.38354H4.49175C4.03572 7.38667 3.58928 7.51473 3.20092 7.7538L3.06841 7.83688C3.01155 7.46109 3.01369 7.07873 3.07475 6.7036C3.5198 6.50405 4.00171 6.39991 4.48944 6.39789H4.50849C4.77193 6.39873 5.03413 6.43408 5.28839 6.50304C5.32792 6.43394 5.3726 6.36792 5.42205 6.30554C5.32938 6.12965 5.21078 5.9687 5.07023 5.82808C4.7471 5.5014 4.33813 5.2728 3.89057 5.16871L3.73691 5.13389C3.96257 4.82829 4.23433 4.55961 4.54248 4.33745C5.00402 4.51343 5.42289 4.78548 5.77134 5.13559C5.95659 5.32216 6.11663 5.53217 6.24738 5.76027C6.32428 5.7393 6.40266 5.7242 6.48184 5.7151C6.5406 5.52517 6.57056 5.32751 6.57071 5.1287C6.57027 4.66859 6.44213 4.21763 6.20057 3.82603L6.11746 3.69352C6.29852 3.66612 6.48139 3.65236 6.66451 3.65238H7.2285C7.44537 4.11645 7.55731 4.6226 7.55636 5.13484C7.55548 5.39786 7.52014 5.65963 7.45124 5.91347C7.52031 5.95303 7.58632 5.99771 7.64871 6.04714C7.82458 5.95445 7.98551 5.83585 8.12611 5.69531C8.45275 5.37217 8.68131 4.96321 8.78539 4.51568L8.82054 4.36053C9.12691 4.58493 9.39612 4.85607 9.61832 5.16405C9.44235 5.627 9.16976 6.04716 8.81875 6.39657ZM7.56275 7.28959C7.56275 7.11193 7.51007 6.93826 7.41136 6.79054C7.31266 6.64282 7.17237 6.52769 7.00823 6.4597C6.84409 6.39171 6.66348 6.37392 6.48923 6.40859C6.31498 6.44325 6.15492 6.5288 6.0293 6.65443C5.90368 6.78006 5.81813 6.94012 5.78347 7.11437C5.74881 7.28862 5.76661 7.46923 5.8346 7.63337C5.90259 7.7975 6.01773 7.93779 6.16545 8.03649C6.31318 8.13519 6.48685 8.18787 6.66451 8.18786C6.90264 8.1876 7.13094 8.09289 7.29934 7.92452C7.46773 7.75615 7.56248 7.52787 7.56278 7.28974L7.56275 7.28959Z" fill="black"/>
</g>
<defs>
<clipPath id="clip0_624_1744">
<rect width="14" height="14" fill="white"/>
</clipPath>
</defs>
</svg>
