<svg width="24" height="25" viewBox="0 0 24 25" fill="none" xmlns="http://www.w3.org/2000/svg">
<path fill-rule="evenodd" clip-rule="evenodd" d="M8.92574 16.722H14.3119C14.7178 16.722 15.0545 16.382 15.0545 15.972C15.0545 15.562 14.7178 15.232 14.3119 15.232H8.92574C8.5198 15.232 8.18317 15.562 8.18317 15.972C8.18317 16.382 8.5198 16.722 8.92574 16.722ZM12.2723 10.232H8.92574C8.5198 10.232 8.18317 10.572 8.18317 10.982C8.18317 11.392 8.5198 11.722 8.92574 11.722H12.2723C12.6782 11.722 13.0149 11.392 13.0149 10.982C13.0149 10.572 12.6782 10.232 12.2723 10.232ZM19.3381 9.35764C19.5708 9.35496 19.8242 9.35203 20.0545 9.35203C20.302 9.35203 20.5 9.55203 20.5 9.80203V17.842C20.5 20.322 18.5099 22.332 16.0545 22.332H8.17327C5.59901 22.332 3.5 20.222 3.5 17.622V6.84203C3.5 4.36203 5.5 2.33203 7.96535 2.33203H13.2525C13.5099 2.33203 13.7079 2.54203 13.7079 2.79203V6.01203C13.7079 7.84203 15.203 9.34203 17.0149 9.35203C17.4381 9.35203 17.8112 9.35519 18.1377 9.35796C18.3917 9.36012 18.6175 9.36203 18.8168 9.36203C18.9578 9.36203 19.1405 9.35992 19.3381 9.35764ZM19.6111 7.89803C18.7972 7.90103 17.8378 7.89803 17.1477 7.89103C16.0527 7.89103 15.1507 6.98003 15.1507 5.87403V3.23803C15.1507 2.80703 15.6685 2.59303 15.9646 2.90403C16.5004 3.46679 17.2368 4.24037 17.9699 5.01041C18.7009 5.77835 19.4286 6.54277 19.9507 7.09103C20.2398 7.39403 20.0279 7.89703 19.6111 7.89803Z" fill="#4E90FF"/>
</svg>
